G04 DipTrace 2.4.0.2*
%INBottomAssy.gbr*%
%MOMM*%
%ADD10C,0.25*%
%ADD12C,0.076*%
%FSLAX53Y53*%
G04*
G71*
G90*
G75*
G01*
%LNBotAssy*%
%LPD*%
X34436Y119258D2*
D10*
X73956D1*
X34373Y-4853D2*
X73893D1*
X98803Y158352D2*
D12*
Y157963D1*
X98827Y157890D1*
X98852Y157866D1*
X98900Y157842D1*
X98949D1*
X98997Y157866D1*
X99021Y157890D1*
X99046Y157963D1*
Y158012D1*
X98646Y158254D2*
X98597Y158279D1*
X98524Y158351D1*
Y157842D1*
X98367Y158254D2*
X98318Y158279D1*
X98245Y158351D1*
Y157842D1*
X36250Y122892D2*
Y122503D1*
X36274Y122430D1*
X36298Y122406D1*
X36347Y122382D1*
X36396D1*
X36444Y122406D1*
X36468Y122430D1*
X36493Y122503D1*
Y122552D1*
X36093Y122794D2*
X36044Y122819D1*
X35971Y122891D1*
Y122382D1*
X35523Y122819D2*
X35547Y122867D1*
X35620Y122891D1*
X35668D1*
X35741Y122867D1*
X35790Y122794D1*
X35814Y122673D1*
Y122552D1*
X35790Y122455D1*
X35741Y122406D1*
X35668Y122382D1*
X35644D1*
X35571Y122406D1*
X35523Y122455D1*
X35498Y122528D1*
Y122552D1*
X35523Y122625D1*
X35571Y122673D1*
X35644Y122697D1*
X35668D1*
X35741Y122673D1*
X35790Y122625D1*
X35814Y122552D1*
X98740Y34241D2*
Y33852D1*
X98765Y33779D1*
X98789Y33755D1*
X98838Y33730D1*
X98886D1*
X98935Y33755D1*
X98959Y33779D1*
X98984Y33852D1*
Y33900D1*
X98584Y34143D2*
X98535Y34168D1*
X98462Y34240D1*
Y33730D1*
X98305Y34143D2*
X98256Y34168D1*
X98183Y34240D1*
Y33730D1*
X36187Y-1219D2*
Y-1608D1*
X36211Y-1681D1*
X36236Y-1705D1*
X36284Y-1730D1*
X36333D1*
X36382Y-1705D1*
X36406Y-1681D1*
X36430Y-1608D1*
Y-1560D1*
X36030Y-1317D2*
X35982Y-1292D1*
X35909Y-1220D1*
Y-1730D1*
X35460Y-1292D2*
X35484Y-1244D1*
X35557Y-1220D1*
X35606D1*
X35679Y-1244D1*
X35728Y-1317D1*
X35752Y-1438D1*
Y-1560D1*
X35728Y-1657D1*
X35679Y-1706D1*
X35606Y-1730D1*
X35582D1*
X35509Y-1706D1*
X35460Y-1657D1*
X35436Y-1584D1*
Y-1560D1*
X35460Y-1487D1*
X35509Y-1438D1*
X35582Y-1414D1*
X35606D1*
X35679Y-1438D1*
X35728Y-1487D1*
X35752Y-1560D1*
X51668Y118285D2*
Y118796D1*
X51887D1*
X51960Y118771D1*
X51984Y118747D1*
X52008Y118699D1*
Y118626D1*
X51984Y118577D1*
X51960Y118553D1*
X51887Y118528D1*
X51960Y118504D1*
X51984Y118480D1*
X52008Y118431D1*
Y118382D1*
X51984Y118334D1*
X51960Y118309D1*
X51887Y118285D1*
X51668D1*
Y118528D2*
X51887D1*
X52311Y118285D2*
X52262Y118309D1*
X52214Y118358D1*
X52189Y118407D1*
X52165Y118480D1*
Y118601D1*
X52189Y118674D1*
X52214Y118723D1*
X52262Y118771D1*
X52311Y118796D1*
X52408D1*
X52457Y118771D1*
X52506Y118723D1*
X52530Y118674D1*
X52554Y118601D1*
Y118480D1*
X52530Y118407D1*
X52506Y118358D1*
X52457Y118309D1*
X52408Y118285D1*
X52311D1*
X53100Y118796D2*
X52905Y118285D1*
X52711Y118796D1*
X52784Y118626D2*
X53027D1*
X53257Y118528D2*
X53475D1*
X53548Y118504D1*
X53573Y118480D1*
X53597Y118431D1*
Y118382D1*
X53573Y118334D1*
X53548Y118309D1*
X53475Y118285D1*
X53257D1*
Y118796D1*
X53427Y118528D2*
X53597Y118796D1*
X53754Y118285D2*
Y118796D1*
X53924D1*
X53997Y118771D1*
X54046Y118723D1*
X54070Y118674D1*
X54094Y118601D1*
Y118480D1*
X54070Y118407D1*
X54046Y118358D1*
X53997Y118309D1*
X53924Y118285D1*
X53754D1*
X55060D2*
X54745D1*
Y118796D1*
X55060D1*
X54745Y118528D2*
X54939D1*
X55217Y118285D2*
Y118796D1*
X55387D1*
X55460Y118771D1*
X55509Y118723D1*
X55533Y118674D1*
X55558Y118601D1*
Y118480D1*
X55533Y118407D1*
X55509Y118358D1*
X55460Y118309D1*
X55387Y118285D1*
X55217D1*
X56079Y118407D2*
X56055Y118358D1*
X56006Y118309D1*
X55958Y118285D1*
X55860D1*
X55812Y118309D1*
X55763Y118358D1*
X55739Y118407D1*
X55714Y118480D1*
Y118601D1*
X55739Y118674D1*
X55763Y118723D1*
X55812Y118771D1*
X55860Y118796D1*
X55958D1*
X56006Y118771D1*
X56055Y118723D1*
X56079Y118674D1*
Y118601D1*
X55958D1*
X56551Y118285D2*
X56236D1*
Y118796D1*
X56551D1*
X56236Y118528D2*
X56430D1*
X51606Y-5826D2*
Y-5316D1*
X51825D1*
X51898Y-5340D1*
X51922Y-5364D1*
X51946Y-5413D1*
Y-5486D1*
X51922Y-5535D1*
X51898Y-5559D1*
X51825Y-5583D1*
X51898Y-5608D1*
X51922Y-5632D1*
X51946Y-5680D1*
Y-5729D1*
X51922Y-5777D1*
X51898Y-5802D1*
X51825Y-5826D1*
X51606D1*
Y-5583D2*
X51825D1*
X52249Y-5826D2*
X52200Y-5802D1*
X52152Y-5753D1*
X52127Y-5705D1*
X52103Y-5632D1*
Y-5510D1*
X52127Y-5437D1*
X52152Y-5389D1*
X52200Y-5340D1*
X52249Y-5316D1*
X52346D1*
X52394Y-5340D1*
X52443Y-5389D1*
X52467Y-5437D1*
X52492Y-5510D1*
Y-5632D1*
X52467Y-5705D1*
X52443Y-5753D1*
X52394Y-5802D1*
X52346Y-5826D1*
X52249D1*
X53038Y-5316D2*
X52843Y-5826D1*
X52648Y-5316D1*
X52721Y-5486D2*
X52965D1*
X53194Y-5583D2*
X53413D1*
X53486Y-5608D1*
X53511Y-5632D1*
X53535Y-5680D1*
Y-5729D1*
X53511Y-5777D1*
X53486Y-5802D1*
X53413Y-5826D1*
X53194D1*
Y-5316D1*
X53365Y-5583D2*
X53535Y-5316D1*
X53692Y-5826D2*
Y-5316D1*
X53862D1*
X53935Y-5340D1*
X53984Y-5389D1*
X54008Y-5437D1*
X54032Y-5510D1*
Y-5632D1*
X54008Y-5705D1*
X53984Y-5753D1*
X53935Y-5802D1*
X53862Y-5826D1*
X53692D1*
X54998D2*
X54683D1*
Y-5316D1*
X54998D1*
X54683Y-5583D2*
X54877D1*
X55155Y-5826D2*
Y-5316D1*
X55325D1*
X55398Y-5340D1*
X55447Y-5389D1*
X55471Y-5437D1*
X55495Y-5510D1*
Y-5632D1*
X55471Y-5705D1*
X55447Y-5753D1*
X55398Y-5802D1*
X55325Y-5826D1*
X55155D1*
X56017Y-5705D2*
X55992Y-5753D1*
X55944Y-5802D1*
X55895Y-5826D1*
X55798D1*
X55749Y-5802D1*
X55701Y-5753D1*
X55676Y-5705D1*
X55652Y-5632D1*
Y-5510D1*
X55676Y-5437D1*
X55701Y-5389D1*
X55749Y-5340D1*
X55798Y-5316D1*
X55895D1*
X55944Y-5340D1*
X55992Y-5389D1*
X56017Y-5437D1*
Y-5510D1*
X55895D1*
X56489Y-5826D2*
X56173D1*
Y-5316D1*
X56489D1*
X56173Y-5583D2*
X56368D1*
M02*
