G04 DipTrace 2.4.0.2*
%INBottomSilk.gbr*%
%MOIN*%
%ADD10C,0.0098*%
%ADD12C,0.003*%
%FSLAX44Y44*%
G04*
G70*
G90*
G75*
G01*
%LNBotSilk*%
%LPD*%
X37543Y74067D2*
D10*
X39543D1*
Y62067D1*
X37543D1*
Y74067D1*
X13544Y59067D2*
X28543D1*
Y60067D1*
X13544D1*
Y59067D1*
X37543Y25661D2*
X39543D1*
Y13661D1*
X37543D1*
Y25661D1*
X13544Y10661D2*
X28543D1*
Y11661D1*
X13544D1*
Y10661D1*
X38605Y74360D2*
D12*
Y74207D1*
X38615Y74178D1*
X38624Y74169D1*
X38643Y74159D1*
X38663D1*
X38682Y74169D1*
X38691Y74178D1*
X38701Y74207D1*
Y74226D1*
X38543Y74321D2*
X38524Y74331D1*
X38495Y74360D1*
Y74159D1*
X38434Y74321D2*
X38414Y74331D1*
X38386Y74360D1*
Y74159D1*
X13978Y60399D2*
Y60246D1*
X13987Y60217D1*
X13997Y60208D1*
X14016Y60198D1*
X14035D1*
X14054Y60208D1*
X14064Y60217D1*
X14074Y60246D1*
Y60265D1*
X13916Y60361D2*
X13897Y60370D1*
X13868Y60399D1*
Y60198D1*
X13692Y60370D2*
X13701Y60389D1*
X13730Y60399D1*
X13749D1*
X13778Y60389D1*
X13797Y60361D1*
X13806Y60313D1*
Y60265D1*
X13797Y60227D1*
X13778Y60208D1*
X13749Y60198D1*
X13739D1*
X13711Y60208D1*
X13692Y60227D1*
X13682Y60256D1*
Y60265D1*
X13692Y60294D1*
X13711Y60313D1*
X13739Y60322D1*
X13749D1*
X13778Y60313D1*
X13797Y60294D1*
X13806Y60265D1*
X38605Y25954D2*
Y25801D1*
X38615Y25773D1*
X38624Y25763D1*
X38643Y25753D1*
X38663D1*
X38682Y25763D1*
X38691Y25773D1*
X38701Y25801D1*
Y25820D1*
X38543Y25916D2*
X38524Y25926D1*
X38495Y25954D1*
Y25753D1*
X38434Y25916D2*
X38414Y25926D1*
X38386Y25954D1*
Y25753D1*
X13978Y11994D2*
Y11841D1*
X13987Y11812D1*
X13997Y11802D1*
X14016Y11793D1*
X14035D1*
X14054Y11802D1*
X14064Y11812D1*
X14074Y11841D1*
Y11860D1*
X13916Y11955D2*
X13897Y11965D1*
X13868Y11993D1*
Y11793D1*
X13692Y11965D2*
X13701Y11984D1*
X13730Y11993D1*
X13749D1*
X13778Y11984D1*
X13797Y11955D1*
X13806Y11907D1*
Y11860D1*
X13797Y11821D1*
X13778Y11802D1*
X13749Y11793D1*
X13739D1*
X13711Y11802D1*
X13692Y11821D1*
X13682Y11850D1*
Y11860D1*
X13692Y11888D1*
X13711Y11907D1*
X13739Y11917D1*
X13749D1*
X13778Y11907D1*
X13797Y11888D1*
X13806Y11860D1*
M02*
