G04 DipTrace 2.4.0.2*
%INBottomSilk.gbr*%
%MOIN*%
%ADD10C,0.0098*%
%ADD12C,0.003*%
%FSLAX44Y44*%
G04*
G70*
G90*
G75*
G01*
%LNBotSilk*%
%LPD*%
X37606Y61969D2*
D10*
X39606D1*
Y49969D1*
X37606D1*
Y61969D1*
X13607Y46968D2*
X28606D1*
Y47969D1*
X13607D1*
Y46968D1*
X37543Y13457D2*
X39543D1*
Y1457D1*
X37543D1*
Y13457D1*
X13544Y-1543D2*
X28543D1*
Y-543D1*
X13544D1*
Y-1543D1*
X38668Y62261D2*
D12*
Y62108D1*
X38678Y62080D1*
X38687Y62070D1*
X38706Y62060D1*
X38726D1*
X38745Y62070D1*
X38754Y62080D1*
X38764Y62108D1*
Y62127D1*
X38606Y62223D2*
X38587Y62233D1*
X38558Y62261D1*
Y62060D1*
X38497Y62223D2*
X38477Y62233D1*
X38449Y62261D1*
Y62060D1*
X14041Y48301D2*
Y48148D1*
X14050Y48119D1*
X14060Y48110D1*
X14079Y48100D1*
X14098D1*
X14117Y48110D1*
X14127Y48119D1*
X14137Y48148D1*
Y48167D1*
X13979Y48262D2*
X13960Y48272D1*
X13931Y48301D1*
Y48100D1*
X13755Y48272D2*
X13764Y48291D1*
X13793Y48301D1*
X13812D1*
X13841Y48291D1*
X13860Y48262D1*
X13869Y48215D1*
Y48167D1*
X13860Y48129D1*
X13841Y48109D1*
X13812Y48100D1*
X13802D1*
X13774Y48109D1*
X13755Y48129D1*
X13745Y48157D1*
Y48167D1*
X13755Y48196D1*
X13774Y48215D1*
X13802Y48224D1*
X13812D1*
X13841Y48215D1*
X13860Y48196D1*
X13869Y48167D1*
X38605Y13750D2*
Y13597D1*
X38615Y13568D1*
X38624Y13558D1*
X38643Y13549D1*
X38663D1*
X38682Y13558D1*
X38691Y13568D1*
X38701Y13597D1*
Y13616D1*
X38543Y13711D2*
X38524Y13721D1*
X38495Y13749D1*
Y13549D1*
X38434Y13711D2*
X38414Y13721D1*
X38386Y13749D1*
Y13549D1*
X13978Y-211D2*
Y-364D1*
X13987Y-393D1*
X13997Y-402D1*
X14016Y-412D1*
X14035D1*
X14054Y-402D1*
X14064Y-393D1*
X14074Y-364D1*
Y-345D1*
X13916Y-250D2*
X13897Y-240D1*
X13868Y-211D1*
Y-412D1*
X13692Y-240D2*
X13701Y-221D1*
X13730Y-211D1*
X13749D1*
X13778Y-221D1*
X13797Y-250D1*
X13806Y-297D1*
Y-345D1*
X13797Y-383D1*
X13778Y-402D1*
X13749Y-412D1*
X13739D1*
X13711Y-402D1*
X13692Y-383D1*
X13682Y-355D1*
Y-345D1*
X13692Y-316D1*
X13711Y-297D1*
X13739Y-288D1*
X13749D1*
X13778Y-297D1*
X13797Y-316D1*
X13806Y-345D1*
M02*
