G04 DipTrace 2.4.0.2*
%INBottomAssy.gbr*%
%MOIN*%
%ADD10C,0.0098*%
%ADD12C,0.003*%
%FSLAX44Y44*%
G04*
G70*
G90*
G75*
G01*
%LNBotAssy*%
%LPD*%
X13327Y46870D2*
D10*
X28886D1*
X13264Y-1642D2*
X28823D1*
X38668Y62261D2*
D12*
Y62108D1*
X38678Y62080D1*
X38687Y62070D1*
X38706Y62060D1*
X38726D1*
X38745Y62070D1*
X38754Y62080D1*
X38764Y62108D1*
Y62127D1*
X38606Y62223D2*
X38587Y62233D1*
X38558Y62261D1*
Y62060D1*
X38497Y62223D2*
X38477Y62233D1*
X38449Y62261D1*
Y62060D1*
X14041Y48301D2*
Y48148D1*
X14050Y48119D1*
X14060Y48110D1*
X14079Y48100D1*
X14098D1*
X14117Y48110D1*
X14127Y48119D1*
X14137Y48148D1*
Y48167D1*
X13979Y48262D2*
X13960Y48272D1*
X13931Y48301D1*
Y48100D1*
X13755Y48272D2*
X13764Y48291D1*
X13793Y48301D1*
X13812D1*
X13841Y48291D1*
X13860Y48262D1*
X13869Y48215D1*
Y48167D1*
X13860Y48129D1*
X13841Y48109D1*
X13812Y48100D1*
X13802D1*
X13774Y48109D1*
X13755Y48129D1*
X13745Y48157D1*
Y48167D1*
X13755Y48196D1*
X13774Y48215D1*
X13802Y48224D1*
X13812D1*
X13841Y48215D1*
X13860Y48196D1*
X13869Y48167D1*
X38605Y13750D2*
Y13597D1*
X38615Y13568D1*
X38624Y13558D1*
X38643Y13549D1*
X38663D1*
X38682Y13558D1*
X38691Y13568D1*
X38701Y13597D1*
Y13616D1*
X38543Y13711D2*
X38524Y13721D1*
X38495Y13749D1*
Y13549D1*
X38434Y13711D2*
X38414Y13721D1*
X38386Y13749D1*
Y13549D1*
X13978Y-211D2*
Y-364D1*
X13987Y-393D1*
X13997Y-402D1*
X14016Y-412D1*
X14035D1*
X14054Y-402D1*
X14064Y-393D1*
X14074Y-364D1*
Y-345D1*
X13916Y-250D2*
X13897Y-240D1*
X13868Y-211D1*
Y-412D1*
X13692Y-240D2*
X13701Y-221D1*
X13730Y-211D1*
X13749D1*
X13778Y-221D1*
X13797Y-250D1*
X13806Y-297D1*
Y-345D1*
X13797Y-383D1*
X13778Y-402D1*
X13749Y-412D1*
X13739D1*
X13711Y-402D1*
X13692Y-383D1*
X13682Y-355D1*
Y-345D1*
X13692Y-316D1*
X13711Y-297D1*
X13739Y-288D1*
X13749D1*
X13778Y-297D1*
X13797Y-316D1*
X13806Y-345D1*
X20111Y46487D2*
Y46688D1*
X20197D1*
X20226Y46678D1*
X20236Y46669D1*
X20245Y46650D1*
Y46621D1*
X20236Y46602D1*
X20226Y46592D1*
X20197Y46583D1*
X20226Y46573D1*
X20236Y46564D1*
X20245Y46545D1*
Y46525D1*
X20236Y46506D1*
X20226Y46497D1*
X20197Y46487D1*
X20111D1*
Y46583D2*
X20197D1*
X20364Y46487D2*
X20345Y46497D1*
X20326Y46516D1*
X20316Y46535D1*
X20307Y46564D1*
Y46612D1*
X20316Y46640D1*
X20326Y46659D1*
X20345Y46678D1*
X20364Y46688D1*
X20403D1*
X20422Y46678D1*
X20441Y46659D1*
X20450Y46640D1*
X20460Y46612D1*
Y46564D1*
X20450Y46535D1*
X20441Y46516D1*
X20422Y46497D1*
X20403Y46487D1*
X20364D1*
X20675Y46688D2*
X20598Y46487D1*
X20522Y46688D1*
X20550Y46621D2*
X20646D1*
X20737Y46583D2*
X20823D1*
X20851Y46573D1*
X20861Y46564D1*
X20871Y46545D1*
Y46525D1*
X20861Y46506D1*
X20851Y46497D1*
X20823Y46487D1*
X20737D1*
Y46688D1*
X20804Y46583D2*
X20871Y46688D1*
X20932Y46487D2*
Y46688D1*
X20999D1*
X21028Y46678D1*
X21047Y46659D1*
X21057Y46640D1*
X21066Y46612D1*
Y46564D1*
X21057Y46535D1*
X21047Y46516D1*
X21028Y46497D1*
X20999Y46487D1*
X20932D1*
X21447D2*
X21323D1*
Y46688D1*
X21447D1*
X21323Y46583D2*
X21399D1*
X21509Y46487D2*
Y46688D1*
X21576D1*
X21604Y46678D1*
X21623Y46659D1*
X21633Y46640D1*
X21642Y46612D1*
Y46564D1*
X21633Y46535D1*
X21623Y46516D1*
X21604Y46497D1*
X21576Y46487D1*
X21509D1*
X21848Y46535D2*
X21838Y46516D1*
X21819Y46497D1*
X21800Y46487D1*
X21762D1*
X21743Y46497D1*
X21723Y46516D1*
X21714Y46535D1*
X21704Y46564D1*
Y46612D1*
X21714Y46640D1*
X21723Y46659D1*
X21743Y46678D1*
X21762Y46688D1*
X21800D1*
X21819Y46678D1*
X21838Y46659D1*
X21848Y46640D1*
Y46612D1*
X21800D1*
X22034Y46487D2*
X21909D1*
Y46688D1*
X22034D1*
X21909Y46583D2*
X21986D1*
X20048Y-2025D2*
Y-1824D1*
X20134D1*
X20163Y-1833D1*
X20173Y-1843D1*
X20182Y-1862D1*
Y-1891D1*
X20173Y-1910D1*
X20163Y-1919D1*
X20134Y-1929D1*
X20163Y-1939D1*
X20173Y-1948D1*
X20182Y-1967D1*
Y-1986D1*
X20173Y-2005D1*
X20163Y-2015D1*
X20134Y-2025D1*
X20048D1*
Y-1929D2*
X20134D1*
X20301Y-2025D2*
X20282Y-2015D1*
X20263Y-1996D1*
X20253Y-1977D1*
X20244Y-1948D1*
Y-1900D1*
X20253Y-1872D1*
X20263Y-1852D1*
X20282Y-1833D1*
X20301Y-1824D1*
X20340D1*
X20359Y-1833D1*
X20378Y-1852D1*
X20387Y-1872D1*
X20397Y-1900D1*
Y-1948D1*
X20387Y-1977D1*
X20378Y-1996D1*
X20359Y-2015D1*
X20340Y-2025D1*
X20301D1*
X20612Y-1824D2*
X20535Y-2025D1*
X20459Y-1824D1*
X20487Y-1891D2*
X20583D1*
X20674Y-1929D2*
X20760D1*
X20788Y-1939D1*
X20798Y-1948D1*
X20808Y-1967D1*
Y-1986D1*
X20798Y-2005D1*
X20788Y-2015D1*
X20760Y-2025D1*
X20674D1*
Y-1824D1*
X20741Y-1929D2*
X20808Y-1824D1*
X20869Y-2025D2*
Y-1824D1*
X20936D1*
X20965Y-1833D1*
X20984Y-1852D1*
X20994Y-1872D1*
X21003Y-1900D1*
Y-1948D1*
X20994Y-1977D1*
X20984Y-1996D1*
X20965Y-2015D1*
X20936Y-2025D1*
X20869D1*
X21384D2*
X21260D1*
Y-1824D1*
X21384D1*
X21260Y-1929D2*
X21336D1*
X21446Y-2025D2*
Y-1824D1*
X21513D1*
X21541Y-1833D1*
X21560Y-1852D1*
X21570Y-1872D1*
X21580Y-1900D1*
Y-1948D1*
X21570Y-1977D1*
X21560Y-1996D1*
X21541Y-2015D1*
X21513Y-2025D1*
X21446D1*
X21785Y-1977D2*
X21775Y-1996D1*
X21756Y-2015D1*
X21737Y-2025D1*
X21699D1*
X21680Y-2015D1*
X21660Y-1996D1*
X21651Y-1977D1*
X21641Y-1948D1*
Y-1900D1*
X21651Y-1872D1*
X21660Y-1852D1*
X21680Y-1833D1*
X21699Y-1824D1*
X21737D1*
X21756Y-1833D1*
X21775Y-1852D1*
X21785Y-1872D1*
Y-1900D1*
X21737D1*
X21971Y-2025D2*
X21846D1*
X21847Y-1824D1*
X21971D1*
X21846Y-1929D2*
X21923D1*
M02*
