G04 DipTrace 2.4.0.2*
%INBottomMask.gbr*%
%MOMM*%
%ADD81C,1.704*%
%ADD83R,1.704X1.704*%
%ADD95C,1.904*%
%ADD97R,1.904X1.904*%
%FSLAX53Y53*%
G04*
G71*
G90*
G75*
G01*
%LNBotMask*%
%LPD*%
D97*
X71976Y123318D3*
D95*
X74516D3*
D97*
X87216Y199518D3*
D95*
Y196978D3*
Y194438D3*
Y191898D3*
Y189358D3*
Y186818D3*
Y184278D3*
Y181738D3*
D97*
X79596Y196978D3*
D95*
Y194438D3*
Y191898D3*
Y189358D3*
Y186818D3*
Y184278D3*
Y181738D3*
D97*
X33876Y171578D3*
D95*
X31336D3*
X28796D3*
X26256D3*
X23716D3*
D97*
X87216Y151258D3*
D95*
Y148718D3*
Y146178D3*
Y143638D3*
Y141098D3*
Y138558D3*
Y136018D3*
Y133478D3*
D97*
X79596Y151258D3*
D95*
Y148718D3*
Y146178D3*
Y143638D3*
Y141098D3*
Y138558D3*
Y136018D3*
D97*
X99916Y156338D3*
D95*
X97376D3*
X99916Y153798D3*
X97376D3*
X99916Y151258D3*
X97376D3*
X99916Y148718D3*
X97376D3*
X99916Y146178D3*
X97376D3*
X99916Y143638D3*
X97376D3*
X99916Y141098D3*
X97376D3*
X99916Y138558D3*
X97376D3*
X99916Y136018D3*
X97376D3*
X99916Y133478D3*
X97376D3*
X99916Y130938D3*
X97376D3*
X99916Y128398D3*
X97376D3*
D97*
X51656Y123318D3*
D95*
X54196D3*
X56736D3*
D97*
X107536Y146178D3*
D95*
X104996D3*
X107536Y148718D3*
X104996D3*
X107536Y151258D3*
X104996D3*
X107536Y153798D3*
X104996D3*
X107536Y156338D3*
X104996D3*
D97*
X61816Y123318D3*
D95*
X64356D3*
X66896D3*
D97*
X107536Y128398D3*
D95*
X104996D3*
X107536Y130938D3*
X104996D3*
X107536Y133478D3*
X104996D3*
X107536Y136018D3*
X104996D3*
X107536Y138558D3*
X104996D3*
D97*
X36416Y120778D3*
D95*
X38956D3*
X41496D3*
X44036D3*
X46576D3*
X49116D3*
X51656D3*
X54196D3*
X56736D3*
X59276D3*
X61816D3*
X64356D3*
X66896D3*
X69436D3*
X71976D3*
D97*
X41496Y123318D3*
D95*
X44036D3*
X46576D3*
D97*
X121896Y113408D3*
D95*
Y110868D3*
Y108328D3*
Y105788D3*
D83*
X62786Y201648D3*
D81*
X60246D3*
X57706D3*
D83*
X17616Y201848D3*
D81*
X15076D3*
X12536D3*
D97*
X71913Y-793D3*
D95*
X74453D3*
D97*
X87153Y75407D3*
D95*
Y72867D3*
Y70327D3*
Y67787D3*
Y65247D3*
Y62707D3*
Y60167D3*
Y57627D3*
D97*
X79533Y72867D3*
D95*
Y70327D3*
Y67787D3*
Y65247D3*
Y62707D3*
Y60167D3*
Y57627D3*
D97*
X33813Y47467D3*
D95*
X31273D3*
X28733D3*
X26193D3*
X23653D3*
D97*
X87153Y27147D3*
D95*
Y24607D3*
Y22067D3*
Y19527D3*
Y16987D3*
Y14447D3*
Y11907D3*
Y9367D3*
D97*
X79533Y27147D3*
D95*
Y24607D3*
Y22067D3*
Y19527D3*
Y16987D3*
Y14447D3*
Y11907D3*
D97*
X99853Y32227D3*
D95*
X97313D3*
X99853Y29687D3*
X97313D3*
X99853Y27147D3*
X97313D3*
X99853Y24607D3*
X97313D3*
X99853Y22067D3*
X97313D3*
X99853Y19527D3*
X97313D3*
X99853Y16987D3*
X97313D3*
X99853Y14447D3*
X97313D3*
X99853Y11907D3*
X97313D3*
X99853Y9367D3*
X97313D3*
X99853Y6827D3*
X97313D3*
X99853Y4287D3*
X97313D3*
D97*
X51593Y-793D3*
D95*
X54133D3*
X56673D3*
D97*
X107473Y22067D3*
D95*
X104933D3*
X107473Y24607D3*
X104933D3*
X107473Y27147D3*
X104933D3*
X107473Y29687D3*
X104933D3*
X107473Y32227D3*
X104933D3*
D97*
X61753Y-793D3*
D95*
X64293D3*
X66833D3*
D97*
X107473Y4287D3*
D95*
X104933D3*
X107473Y6827D3*
X104933D3*
X107473Y9367D3*
X104933D3*
X107473Y11907D3*
X104933D3*
X107473Y14447D3*
X104933D3*
D97*
X36353Y-3333D3*
D95*
X38893D3*
X41433D3*
X43973D3*
X46513D3*
X49053D3*
X51593D3*
X54133D3*
X56673D3*
X59213D3*
X61753D3*
X64293D3*
X66833D3*
X69373D3*
X71913D3*
D97*
X41433Y-793D3*
D95*
X43973D3*
X46513D3*
D97*
X121833Y-10703D3*
D95*
Y-13243D3*
Y-15783D3*
Y-18323D3*
D83*
X62723Y77537D3*
D81*
X60183D3*
X57643D3*
D83*
X17553Y77737D3*
D81*
X15013D3*
X12473D3*
M02*
