G04 DipTrace 2.4.0.2*
%INBottomMask.gbr*%
%MOIN*%
%ADD80C,0.0671*%
%ADD82R,0.0671X0.0671*%
%ADD94C,0.075*%
%ADD96R,0.075X0.075*%
%FSLAX44Y44*%
G04*
G70*
G90*
G75*
G01*
%LNBotMask*%
%LPD*%
D96*
X28043Y60567D3*
D94*
X29043D3*
D96*
X34043Y90567D3*
D94*
Y89567D3*
Y88567D3*
Y87567D3*
Y86567D3*
Y85567D3*
Y84567D3*
Y83567D3*
D96*
X31043Y89567D3*
D94*
Y88567D3*
Y87567D3*
Y86567D3*
Y85567D3*
Y84567D3*
Y83567D3*
D96*
X13043Y79567D3*
D94*
X12043D3*
X11043D3*
X10043D3*
X9043D3*
D96*
X34043Y71567D3*
D94*
Y70567D3*
Y69567D3*
Y68567D3*
Y67567D3*
Y66567D3*
Y65567D3*
Y64567D3*
D96*
X31043Y71567D3*
D94*
Y70567D3*
Y69567D3*
Y68567D3*
Y67567D3*
Y66567D3*
Y65567D3*
D96*
X39043Y73567D3*
D94*
X38043D3*
X39043Y72567D3*
X38043D3*
X39043Y71567D3*
X38043D3*
X39043Y70567D3*
X38043D3*
X39043Y69567D3*
X38043D3*
X39043Y68567D3*
X38043D3*
X39043Y67567D3*
X38043D3*
X39043Y66567D3*
X38043D3*
X39043Y65567D3*
X38043D3*
X39043Y64567D3*
X38043D3*
X39043Y63567D3*
X38043D3*
X39043Y62567D3*
X38043D3*
D96*
X20043Y60567D3*
D94*
X21043D3*
X22043D3*
D96*
X42043Y69567D3*
D94*
X41043D3*
X42043Y70567D3*
X41043D3*
X42043Y71567D3*
X41043D3*
X42043Y72567D3*
X41043D3*
X42043Y73567D3*
X41043D3*
D96*
X24043Y60567D3*
D94*
X25043D3*
X26043D3*
D96*
X42043Y62567D3*
D94*
X41043D3*
X42043Y63567D3*
X41043D3*
X42043Y64567D3*
X41043D3*
X42043Y65567D3*
X41043D3*
X42043Y66567D3*
X41043D3*
D96*
X14043Y59567D3*
D94*
X15043D3*
X16043D3*
X17043D3*
X18043D3*
X19043D3*
X20043D3*
X21043D3*
X22043D3*
X23043D3*
X24043D3*
X25043D3*
X26043D3*
X27043D3*
X28043D3*
D96*
X16043Y60567D3*
D94*
X17043D3*
X18043D3*
D96*
X47697Y56665D3*
D94*
Y55665D3*
Y54665D3*
Y53665D3*
D82*
X24425Y91406D3*
D80*
X23425D3*
X22425D3*
D82*
X6642Y91484D3*
D80*
X5642D3*
X4642D3*
D96*
X28043Y12161D3*
D94*
X29043D3*
D96*
X34043Y42161D3*
D94*
Y41161D3*
Y40161D3*
Y39161D3*
Y38161D3*
Y37161D3*
Y36161D3*
Y35161D3*
D96*
X31043Y41161D3*
D94*
Y40161D3*
Y39161D3*
Y38161D3*
Y37161D3*
Y36161D3*
Y35161D3*
D96*
X13043Y31161D3*
D94*
X12043D3*
X11043D3*
X10043D3*
X9043D3*
D96*
X34043Y23161D3*
D94*
Y22161D3*
Y21161D3*
Y20161D3*
Y19161D3*
Y18161D3*
Y17161D3*
Y16161D3*
D96*
X31043Y23161D3*
D94*
Y22161D3*
Y21161D3*
Y20161D3*
Y19161D3*
Y18161D3*
Y17161D3*
D96*
X39043Y25161D3*
D94*
X38043D3*
X39043Y24161D3*
X38043D3*
X39043Y23161D3*
X38043D3*
X39043Y22161D3*
X38043D3*
X39043Y21161D3*
X38043D3*
X39043Y20161D3*
X38043D3*
X39043Y19161D3*
X38043D3*
X39043Y18161D3*
X38043D3*
X39043Y17161D3*
X38043D3*
X39043Y16161D3*
X38043D3*
X39043Y15161D3*
X38043D3*
X39043Y14161D3*
X38043D3*
D96*
X20043Y12161D3*
D94*
X21043D3*
X22043D3*
D96*
X42043Y21161D3*
D94*
X41043D3*
X42043Y22161D3*
X41043D3*
X42043Y23161D3*
X41043D3*
X42043Y24161D3*
X41043D3*
X42043Y25161D3*
X41043D3*
D96*
X24043Y12161D3*
D94*
X25043D3*
X26043D3*
D96*
X42043Y14161D3*
D94*
X41043D3*
X42043Y15161D3*
X41043D3*
X42043Y16161D3*
X41043D3*
X42043Y17161D3*
X41043D3*
X42043Y18161D3*
X41043D3*
D96*
X14043Y11161D3*
D94*
X15043D3*
X16043D3*
X17043D3*
X18043D3*
X19043D3*
X20043D3*
X21043D3*
X22043D3*
X23043D3*
X24043D3*
X25043D3*
X26043D3*
X27043D3*
X28043D3*
D96*
X16043Y12161D3*
D94*
X17043D3*
X18043D3*
D96*
X47697Y8260D3*
D94*
Y7260D3*
Y6260D3*
Y5260D3*
D82*
X24425Y43000D3*
D80*
X23425D3*
X22425D3*
D82*
X6642Y43079D3*
D80*
X5642D3*
X4642D3*
M02*
