M48
INCH
T01C0.012
T02C0.0354
T03C0.0433
%
T01
X+010909Y+058886
X+010909Y+058492
X+010909Y+058098
X+010909Y+057705
X+010909Y+057311
X+011303Y+057311
X+011303Y+057705
X+011303Y+058098
X+011303Y+058492
X+011303Y+058886
X+011697Y+058886
X+011697Y+058492
X+012091Y+058492
X+012091Y+058886
X+012484Y+058886
X+012484Y+058492
X+012484Y+058098
X+012484Y+057705
X+012484Y+057311
X+012091Y+057311
X+011697Y+057311
X+011848Y+057915
X+013563Y+059630
X+014193Y+059528
X+013563Y+061142
X+012146Y+061142
X+011693Y+062933
X+012614Y+062933
X+009980Y+062933
X+010138Y+060118
X+010098Y+059685
X+008406Y+058089
X+008406Y+056772
X+010000Y+056319
X+009843Y+055728
X+007047Y+057854
X+007047Y+058327
X+005689Y+058327
X+004823Y+058465
X+004469Y+057894
X+004449Y+059094
X+004823Y+059154
X+005240Y+061681
X+001663Y+059941
X+001654Y+056949
X+004295Y+056209
X+004650Y+055933
X+004945Y+055480
X+005280Y+054496
X+004945Y+050165
X+004650Y+049909
X+004295Y+049673
X+005012Y+046594
X+005003Y+045945
X+004609Y+045945
X+004609Y+045551
X+005003Y+045551
X+005397Y+045551
X+005397Y+045945
X+005012Y+041969
X+010161Y+045799
X+012440Y+045949
X+012440Y+045555
X+012833Y+045555
X+012833Y+045949
X+013227Y+045949
X+013227Y+045555
X+012831Y+046555
X+013602Y+050913
X+013602Y+051646
X+012146Y+052264
X+008961Y+051563
X+008961Y+050697
X+013617Y+056161
X+014193Y+056122
X+016890Y+056099
X+016890Y+057382
X+016555Y+057620
X+016894Y+057854
X+016555Y+058327
X+016555Y+059547
X+016894Y+060382
X+016894Y+062370
X+018744Y+059654
X+020555Y+059654
X+023606Y+060756
X+025220Y+060500
X+026953Y+061484
X+027720Y+061976
X+027720Y+063039
X+028980Y+063039
X+029827Y+064181
X+028094Y+065441
X+028285Y+065717
X+028083Y+066031
X+028257Y+066287
X+027346Y+065028
X+026953Y+064673
X+025417Y+063709
X+024081Y+064673
X+024846Y+065461
X+024605Y+065717
X+024773Y+066031
X+024571Y+066287
X+024197Y+068295
X+023232Y+068354
X+021717Y+068354
X+021539Y+068709
X+021343Y+069299
X+021575Y+069602
X+020516Y+068728
X+020535Y+068354
X+018154Y+068728
X+016618Y+069673
X+018488Y+070638
X+018764Y+073000
X+018488Y+073512
X+019236Y+074417
X+018764Y+075028
X+019236Y+075323
X+019705Y+076020
X+021857Y+076271
X+021398Y+074465
X+019724Y+072969
X+016992Y+077705
X+016717Y+078906
X+014984Y+076031
X+013705Y+076051
X+011343Y+077690
X+011343Y+078902
X+008122Y+077476
X+007593Y+076630
X+009165Y+076039
X+009984Y+074496
X+010949Y+074949
X+011402Y+073906
X+010929Y+073748
X+010240Y+072961
X+009520Y+072969
X+009165Y+073461
X+010929Y+072449
X+009984Y+070933
X+010240Y+070677
X+011382Y+070126
X+011106Y+066661
X+011594Y+066543
X+013390Y+066287
X+013799Y+066031
X+018878Y+065717
X+019236Y+065480
X+022909Y+064673
X+025417Y+068866
X+025909Y+069299
X+025433Y+069602
X+028626Y+069752
X+029551Y+068630
X+029591Y+073492
X+027244Y+073461
X+027126Y+072870
X+025315Y+074484
X+025660Y+076228
X+026220Y+077555
X+027244Y+075980
X+028232Y+076484
X+028980Y+079437
X+029438Y+079929
X+029437Y+080756
X+031106Y+079929
X+034984Y+080756
X+035516Y+078413
X+037358Y+078449
X+037504Y+079437
X+038736Y+076126
X+038736Y+074827
X+037358Y+075634
X+035988Y+075598
X+037071Y+074280
X+040291Y+075654
X+040291Y+076756
X+042104Y+076814
X+042104Y+078094
X+042104Y+080043
X+044669Y+079161
X+045063Y+079161
X+045457Y+079161
X+045457Y+078768
X+045063Y+078768
X+045063Y+078374
X+045063Y+077980
X+045063Y+077587
X+045063Y+077193
X+045457Y+077193
X+045457Y+077587
X+045457Y+077980
X+045457Y+078374
X+045850Y+078374
X+046244Y+078374
X+046244Y+078768
X+046638Y+078768
X+046638Y+079161
X+046244Y+079161
X+045850Y+079161
X+045850Y+078768
X+045850Y+077980
X+046244Y+077980
X+046244Y+077587
X+046244Y+077193
X+046244Y+076799
X+046638Y+076799
X+046638Y+076406
X+046638Y+076012
X+046638Y+075618
X+046244Y+075618
X+045850Y+075618
X+045850Y+075224
X+046244Y+075224
X+046244Y+074831
X+046638Y+074831
X+047031Y+074831
X+047031Y+075224
X+047425Y+075224
X+047425Y+075618
X+047425Y+076012
X+047031Y+076012
X+047031Y+076406
X+047425Y+076406
X+047425Y+076799
X+047819Y+076799
X+048213Y+076799
X+048213Y+077193
X+048213Y+077587
X+047819Y+077587
X+047425Y+077587
X+047031Y+077587
X+047031Y+077193
X+047031Y+076799
X+047425Y+077193
X+047819Y+077193
X+048606Y+077193
X+049000Y+077193
X+049000Y+076799
X+049000Y+076406
X+049000Y+076012
X+048606Y+076012
X+048606Y+075618
X+048606Y+075224
X+049000Y+075224
X+049000Y+074831
X+048606Y+074831
X+048213Y+074831
X+047819Y+074831
X+047819Y+075224
X+047819Y+075618
X+047819Y+076012
X+048213Y+076012
X+048213Y+076406
X+048606Y+076406
X+048606Y+076799
X+048606Y+077587
X+049000Y+077587
X+049000Y+077980
X+049000Y+078374
X+049000Y+078768
X+048606Y+078768
X+048213Y+078768
X+048213Y+078374
X+047819Y+078374
X+047425Y+078374
X+047425Y+078768
X+047819Y+078768
X+047819Y+079161
X+048213Y+079161
X+048606Y+079161
X+049000Y+079161
X+048606Y+078374
X+048606Y+077980
X+048213Y+077980
X+047819Y+077980
X+047425Y+077980
X+047031Y+077980
X+047031Y+078374
X+046638Y+078374
X+046638Y+077980
X+046638Y+077587
X+046638Y+077193
X+045850Y+077193
X+045850Y+076799
X+045457Y+076799
X+045063Y+076799
X+045063Y+076406
X+045063Y+076012
X+045063Y+075618
X+045063Y+075224
X+045063Y+074831
X+044669Y+074831
X+044669Y+075224
X+044669Y+075618
X+044669Y+076012
X+044669Y+076406
X+044669Y+076799
X+044669Y+077193
X+044669Y+077587
X+044669Y+077980
X+044669Y+078374
X+044669Y+078768
X+045850Y+077587
X+045850Y+076406
X+045850Y+076012
X+046244Y+076012
X+046244Y+076406
X+045457Y+076406
X+045457Y+076012
X+045457Y+075618
X+045457Y+075224
X+045457Y+074831
X+045850Y+074831
X+046638Y+075224
X+047031Y+075618
X+047425Y+074831
X+048213Y+075224
X+048213Y+075618
X+049000Y+075618
X+047819Y+076406
X+047031Y+078768
X+047031Y+079161
X+047425Y+079161
X+047327Y+068079
X+046933Y+068079
X+046539Y+068079
X+046539Y+067685
X+046539Y+067291
X+046539Y+066898
X+046539Y+066504
X+046933Y+066504
X+046933Y+066110
X+046539Y+066110
X+046146Y+066110
X+046146Y+065717
X+045752Y+065717
X+045358Y+065717
X+045358Y+066110
X+045358Y+066504
X+044965Y+066504
X+044571Y+066504
X+044571Y+066898
X+044571Y+067291
X+044571Y+067685
X+044571Y+068079
X+044965Y+068079
X+044965Y+067685
X+045358Y+067685
X+045358Y+067291
X+045358Y+066898
X+045752Y+066898
X+045752Y+067291
X+045752Y+067685
X+045752Y+068079
X+045358Y+068079
X+046146Y+068079
X+046146Y+067685
X+046146Y+067291
X+046146Y+066898
X+046146Y+066504
X+045752Y+066504
X+045752Y+066110
X+044965Y+066110
X+044571Y+066110
X+044571Y+065717
X+044965Y+065717
X+044965Y+065323
X+044571Y+065323
X+044571Y+064929
X+044571Y+064535
X+044571Y+064142
X+044571Y+063748
X+044965Y+063748
X+045358Y+063748
X+045358Y+064142
X+045358Y+064535
X+045358Y+064929
X+045752Y+064929
X+046146Y+064929
X+046146Y+065323
X+045752Y+065323
X+045358Y+065323
X+044965Y+064929
X+044965Y+064535
X+044965Y+064142
X+045752Y+064142
X+046146Y+064142
X+046146Y+064535
X+045752Y+064535
X+046539Y+064535
X+046539Y+064142
X+046933Y+064142
X+046933Y+063748
X+046539Y+063748
X+046146Y+063748
X+045752Y+063748
X+046933Y+064535
X+046933Y+064929
X+046933Y+065323
X+046539Y+065323
X+046539Y+064929
X+047327Y+064929
X+047720Y+064929
X+047720Y+065323
X+048114Y+065323
X+048114Y+064929
X+048508Y+064929
X+048508Y+064535
X+048114Y+064535
X+047720Y+064535
X+047720Y+064142
X+047720Y+063748
X+047327Y+063748
X+047327Y+064142
X+047327Y+064535
X+047327Y+065323
X+047327Y+065717
X+047720Y+065717
X+048114Y+065717
X+048508Y+065717
X+048508Y+066110
X+048902Y+066110
X+048902Y+065717
X+048902Y+065323
X+048902Y+064929
X+048902Y+064535
X+048902Y+064142
X+048902Y+063748
X+048508Y+063748
X+048114Y+063748
X+048114Y+064142
X+048508Y+064142
X+048508Y+065323
X+048114Y+066110
X+048114Y+066504
X+048114Y+066898
X+048114Y+067291
X+048114Y+067685
X+048114Y+068079
X+047720Y+068079
X+047720Y+067685
X+047720Y+067291
X+047720Y+066898
X+047327Y+066898
X+047327Y+067291
X+046933Y+067291
X+046933Y+066898
X+047327Y+066504
X+047327Y+066110
X+047720Y+066110
X+047720Y+066504
X+048508Y+066504
X+048508Y+066898
X+048508Y+067291
X+048508Y+067685
X+048902Y+067685
X+048902Y+067291
X+048902Y+066898
X+048902Y+066504
X+048902Y+068079
X+048508Y+068079
X+047327Y+067685
X+046933Y+067685
X+046933Y+065717
X+046539Y+065717
X+044965Y+066898
X+044965Y+067291
X+042001Y+067087
X+042001Y+065832
X+040193Y+065736
X+040193Y+064673
X+038677Y+065146
X+037760Y+064693
X+037740Y+064220
X+038677Y+063906
X+037091Y+065441
X+036618Y+065717
X+036854Y+066031
X+036323Y+066287
X+037398Y+067449
X+037327Y+068630
X+036795Y+069673
X+035004Y+067449
X+035417Y+064693
X+028626Y+060500
X+027720Y+057626
X+027012Y+057606
X+028035Y+055972
X+027720Y+055106
X+027012Y+054476
X+025240Y+053469
X+023606Y+054240
X+022106Y+049909
X+023094Y+049673
X+023094Y+048472
X+023055Y+046465
X+022996Y+045972
X+022602Y+045972
X+022602Y+045579
X+022996Y+045579
X+023390Y+045579
X+023390Y+045972
X+025610Y+045815
X+026106Y+050165
X+028843Y+051543
X+029827Y+053469
X+029551Y+055972
X+035299Y+045677
X+036343Y+045677
X+038370Y+045433
X+038075Y+042244
X+037307Y+041673
X+037307Y+040630
X+038075Y+040413
X+038449Y+039732
X+042071Y+041386
X+042465Y+041386
X+042465Y+041780
X+042465Y+042173
X+042071Y+042173
X+042071Y+042567
X+042071Y+042961
X+042071Y+043354
X+042071Y+043748
X+042071Y+044142
X+042465Y+044142
X+042465Y+044535
X+042465Y+044929
X+042071Y+044929
X+042071Y+044535
X+042465Y+043748
X+042465Y+043354
X+042465Y+042961
X+042465Y+042567
X+042071Y+041780
X+044846Y+041752
X+046185Y+041752
X+046185Y+044311
X+044846Y+044331
X+044453Y+046772
X+042209Y+045500
X+044354Y+039732
X+042041Y+031531
X+042041Y+029583
X+042041Y+028302
X+040228Y+028244
X+040228Y+027142
X+038673Y+027614
X+038673Y+026315
X+037295Y+027122
X+035925Y+027087
X+037008Y+025768
X+037295Y+029937
X+037441Y+030925
X+035453Y+029902
X+034921Y+032244
X+031043Y+031417
X+029375Y+031417
X+028917Y+030925
X+029374Y+032244
X+028169Y+027972
X+027181Y+027469
X+025597Y+027717
X+026157Y+029043
X+025252Y+025972
X+027181Y+024949
X+027063Y+024358
X+029528Y+024980
X+028563Y+021240
X+029488Y+020118
X+028194Y+017776
X+028020Y+017520
X+028222Y+017205
X+028031Y+016929
X+027283Y+016516
X+026890Y+016161
X+027657Y+014528
X+027657Y+013465
X+026890Y+012972
X+028563Y+011988
X+028917Y+014528
X+029764Y+015669
X+025354Y+015197
X+024018Y+016161
X+024783Y+016949
X+024542Y+017205
X+024710Y+017520
X+024508Y+017776
X+024134Y+019783
X+023169Y+019843
X+021654Y+019843
X+021476Y+020197
X+021280Y+020787
X+021512Y+021091
X+020453Y+020217
X+020472Y+019843
X+018091Y+020217
X+016555Y+021161
X+018425Y+022126
X+018701Y+024488
X+018425Y+025000
X+019173Y+025906
X+018701Y+026516
X+019173Y+026811
X+019642Y+027508
X+021794Y+027759
X+021335Y+025953
X+019661Y+024457
X+016929Y+029193
X+016654Y+030394
X+014921Y+027520
X+013642Y+027539
X+011280Y+029179
X+011280Y+030390
X+008059Y+028965
X+007530Y+028118
X+009102Y+027528
X+009921Y+025984
X+010886Y+026437
X+011339Y+025394
X+010866Y+025236
X+010177Y+024449
X+009457Y+024457
X+009102Y+024949
X+010866Y+023937
X+009921Y+022421
X+010177Y+022165
X+011319Y+021614
X+011043Y+018150
X+011531Y+018031
X+013327Y+017776
X+013736Y+017520
X+012551Y+014421
X+011630Y+014421
X+009917Y+014421
X+012083Y+012630
X+013500Y+012630
X+013500Y+011118
X+014130Y+011016
X+012421Y+010374
X+012421Y+009980
X+012028Y+009980
X+012028Y+010374
X+011634Y+010374
X+011240Y+010374
X+010846Y+010374
X+010846Y+009980
X+011240Y+009980
X+011240Y+009587
X+011240Y+009193
X+010846Y+009193
X+010846Y+008799
X+011240Y+008799
X+011634Y+008799
X+012028Y+008799
X+012421Y+008799
X+012421Y+009193
X+012421Y+009587
X+011785Y+009404
X+011634Y+009980
X+010846Y+009587
X+010035Y+011173
X+010075Y+011606
X+008343Y+009577
X+008343Y+008260
X+009937Y+007807
X+009780Y+007217
X+006984Y+009343
X+006984Y+009815
X+005626Y+009815
X+004760Y+009953
X+004406Y+009382
X+004386Y+010583
X+004760Y+010642
X+005177Y+013169
X+001600Y+011429
X+001591Y+008437
X+004232Y+007697
X+004587Y+007421
X+004882Y+006969
X+005217Y+005984
X+004882Y+001654
X+004587Y+001398
X+004232Y+001161
X+004941Y-001917
X+004940Y-002567
X+004546Y-002567
X+004546Y-002961
X+004940Y-002961
X+005334Y-002961
X+005334Y-002567
X+004961Y-006555
X+010098Y-002713
X+012377Y-002563
X+012770Y-002563
X+012770Y-002957
X+013164Y-002957
X+013164Y-002563
X+012768Y-001957
X+012377Y-002957
X+012795Y-006890
X+018602Y-003878
X+019390Y-003878
X+022539Y-002933
X+022933Y-002933
X+022933Y-002539
X+023327Y-002539
X+023327Y-002933
X+022539Y-002539
X+022992Y-002047
X+023031Y-000039
X+023031Y+001161
X+022043Y+001398
X+026043Y+001654
X+028780Y+003031
X+029764Y+004957
X+029488Y+007461
X+027972Y+007461
X+027657Y+006594
X+026949Y+005965
X+025177Y+004957
X+023543Y+005728
X+026949Y+009094
X+027657Y+009114
X+025157Y+011988
X+023543Y+012244
X+020492Y+011142
X+018681Y+011142
X+016831Y+011870
X+016492Y+011035
X+016492Y+009815
X+016831Y+009343
X+016492Y+009108
X+016827Y+008870
X+016827Y+007587
X+014130Y+007610
X+013554Y+007650
X+012083Y+003752
X+013539Y+003134
X+013539Y+002402
X+016827Y+004862
X+008898Y+003051
X+008898Y+002185
X+016831Y+013858
X+018815Y+017205
X+019173Y+016969
X+022846Y+016161
X+025354Y+020354
X+025846Y+020787
X+025370Y+021091
X+034941Y+018937
X+036260Y+017776
X+036791Y+017520
X+036555Y+017205
X+037028Y+016929
X+037697Y+016181
X+037677Y+015709
X+038614Y+015394
X+038614Y+016634
X+040130Y+016161
X+040130Y+017224
X+041938Y+017320
X+041938Y+018575
X+041941Y+020748
X+044508Y+019567
X+044902Y+019567
X+044902Y+019173
X+044508Y+019173
X+044508Y+018780
X+044508Y+018386
X+044902Y+018386
X+044902Y+018780
X+045295Y+018780
X+045295Y+019173
X+045295Y+019567
X+045689Y+019567
X+045689Y+019173
X+046083Y+019173
X+046083Y+018780
X+046476Y+018780
X+046476Y+018386
X+046476Y+017992
X+046476Y+017598
X+046083Y+017598
X+046083Y+017992
X+045689Y+017992
X+045689Y+018386
X+045689Y+018780
X+046083Y+018386
X+046870Y+018386
X+046870Y+017992
X+047264Y+017992
X+047264Y+017598
X+047264Y+017205
X+047657Y+017205
X+047657Y+016811
X+048051Y+016811
X+048445Y+016811
X+048445Y+017205
X+048445Y+017598
X+048051Y+017598
X+048051Y+017992
X+048445Y+017992
X+048445Y+018386
X+048839Y+018386
X+048839Y+017992
X+048839Y+017598
X+048839Y+017205
X+048839Y+016811
X+048839Y+016417
X+048445Y+016417
X+048051Y+016417
X+048051Y+016024
X+047657Y+016024
X+047657Y+016417
X+047264Y+016417
X+047264Y+016024
X+046870Y+016024
X+046476Y+016024
X+046083Y+016024
X+046083Y+016417
X+045689Y+016417
X+045295Y+016417
X+044902Y+016417
X+044508Y+016417
X+044508Y+016024
X+044902Y+016024
X+045295Y+016024
X+045689Y+016024
X+045689Y+015630
X+045689Y+015236
X+046083Y+015236
X+046083Y+015630
X+046476Y+015630
X+046870Y+015630
X+047264Y+015630
X+047657Y+015630
X+047657Y+015236
X+048051Y+015236
X+048445Y+015236
X+048445Y+015630
X+048051Y+015630
X+048445Y+016024
X+048839Y+016024
X+048839Y+015630
X+048839Y+015236
X+047264Y+015236
X+046870Y+015236
X+046476Y+015236
X+045295Y+015236
X+044902Y+015236
X+044902Y+015630
X+044508Y+015630
X+044508Y+015236
X+045295Y+015630
X+045295Y+016811
X+045295Y+017205
X+045689Y+017205
X+046083Y+017205
X+046083Y+016811
X+046476Y+016811
X+046870Y+016811
X+046870Y+017205
X+046476Y+017205
X+046870Y+017598
X+047657Y+017598
X+047657Y+017992
X+047657Y+018386
X+047657Y+018780
X+047264Y+018780
X+047264Y+018386
X+046870Y+018780
X+046870Y+019173
X+046870Y+019567
X+047264Y+019567
X+047657Y+019567
X+048051Y+019567
X+048445Y+019567
X+048839Y+019567
X+048839Y+019173
X+048839Y+018780
X+048445Y+018780
X+048445Y+019173
X+048051Y+019173
X+048051Y+018780
X+048051Y+018386
X+047657Y+019173
X+047264Y+019173
X+046476Y+019173
X+046476Y+019567
X+046083Y+019567
X+045295Y+018386
X+045295Y+017992
X+044902Y+017992
X+044902Y+017598
X+044508Y+017598
X+044508Y+017992
X+044508Y+017205
X+044508Y+016811
X+044902Y+016811
X+044902Y+017205
X+045295Y+017598
X+045689Y+017598
X+045689Y+016811
X+046476Y+016417
X+046870Y+016417
X+047264Y+016811
X+048051Y+017205
X+048150Y+026319
X+048543Y+026319
X+048937Y+026319
X+048937Y+026713
X+048937Y+027106
X+048543Y+027106
X+048150Y+027106
X+047756Y+027106
X+047756Y+026713
X+047362Y+026713
X+047362Y+026319
X+046969Y+026319
X+046969Y+026713
X+046969Y+027106
X+046969Y+027500
X+046969Y+027894
X+046969Y+028287
X+046969Y+028681
X+046969Y+029075
X+047362Y+029075
X+047362Y+029469
X+047362Y+029862
X+047756Y+029862
X+047756Y+029469
X+047756Y+029075
X+047756Y+028681
X+048150Y+028681
X+048543Y+028681
X+048937Y+028681
X+048937Y+028287
X+048937Y+027894
X+048937Y+027500
X+048543Y+027500
X+048150Y+027500
X+047756Y+027500
X+047362Y+027500
X+047362Y+027894
X+047362Y+028287
X+047756Y+028287
X+048150Y+028287
X+048543Y+028287
X+048543Y+027894
X+048150Y+027894
X+047756Y+027894
X+047362Y+028681
X+046575Y+028681
X+046181Y+028681
X+045787Y+028681
X+045787Y+028287
X+045394Y+028287
X+045394Y+027894
X+045787Y+027894
X+046181Y+027894
X+046181Y+028287
X+046575Y+028287
X+046575Y+027894
X+046575Y+027500
X+046181Y+027500
X+046181Y+027106
X+045787Y+027106
X+045787Y+026713
X+046181Y+026713
X+046181Y+026319
X+046575Y+026319
X+046575Y+026713
X+046575Y+027106
X+047362Y+027106
X+047756Y+026319
X+048150Y+026713
X+048543Y+026713
X+048543Y+029075
X+048543Y+029469
X+048543Y+029862
X+048543Y+030256
X+048150Y+030256
X+048150Y+030650
X+047756Y+030650
X+047756Y+030256
X+047362Y+030256
X+047362Y+030650
X+046969Y+030650
X+046575Y+030650
X+046575Y+030256
X+046575Y+029862
X+046575Y+029469
X+046181Y+029469
X+046181Y+029862
X+045787Y+029862
X+045787Y+030256
X+045394Y+030256
X+045000Y+030256
X+045000Y+030650
X+045394Y+030650
X+045787Y+030650
X+046181Y+030650
X+046181Y+030256
X+046969Y+030256
X+046969Y+029862
X+046969Y+029469
X+046575Y+029075
X+046181Y+029075
X+045787Y+029075
X+045394Y+029075
X+045394Y+029469
X+045394Y+029862
X+045000Y+029862
X+045000Y+029469
X+045000Y+029075
X+044606Y+029075
X+044606Y+028681
X+044606Y+028287
X+045000Y+028287
X+045000Y+028681
X+045394Y+028681
X+045000Y+027894
X+045000Y+027500
X+045000Y+027106
X+044606Y+027106
X+044606Y+027500
X+044606Y+027894
X+045394Y+027500
X+045394Y+027106
X+045394Y+026713
X+045394Y+026319
X+045000Y+026319
X+044606Y+026319
X+044606Y+026713
X+045000Y+026713
X+045787Y+026319
X+045787Y+027500
X+045787Y+029469
X+044606Y+029469
X+044606Y+029862
X+044606Y+030256
X+044606Y+030650
X+048150Y+029862
X+048150Y+029469
X+048150Y+029075
X+048937Y+029075
X+048937Y+029469
X+048937Y+029862
X+048937Y+030256
X+048937Y+030650
X+048543Y+030650
X+036732Y+021161
X+037264Y+020118
X+037335Y+018937
X+035354Y+016181
X+035236Y-002835
X+036280Y-002835
X+038307Y-003079
X+038012Y-006268
X+037244Y-006839
X+037244Y-007882
X+038012Y-008098
X+038386Y-008780
X+042008Y-007126
X+042402Y-007126
X+042402Y-006732
X+042402Y-006339
X+042008Y-006339
X+042008Y-005945
X+042008Y-005551
X+042008Y-005157
X+042008Y-004764
X+042402Y-004764
X+042402Y-004370
X+042402Y-003976
X+042008Y-003976
X+042008Y-003583
X+042402Y-003583
X+042146Y-003012
X+042008Y-004370
X+042402Y-005157
X+042402Y-005551
X+042402Y-005945
X+042008Y-006732
X+044783Y-006760
X+046122Y-006760
X+046122Y-004201
X+044783Y-004181
X+044390Y-001740
X+044291Y-008780
X+032595Y-006280
X+031043Y-007106
X+030728Y-006693
X+030433Y-007028
X+030728Y-008445
X+031043Y-008740
X+030453Y-009508
X+022953Y-007028
X+025547Y-002697
X+007579Y+020906
X+007370Y+021268
X+006173Y+022528
X+004724Y+020906
X+003709Y+021268
X+002776Y+023543
X+002232Y+025039
X+003531Y+025933
X+002776Y+029311
X+002283Y+030394
X+007327Y+025957
X+012858Y+041622
X+018665Y+044634
X+019453Y+044634
X+023016Y+041484
X+030496Y+041484
X+030791Y+041819
X+031106Y+041406
X+030791Y+040067
X+031106Y+039772
X+030516Y+039004
X+032658Y+042232
X+016890Y+053374
X+007642Y+069417
X+007433Y+069780
X+006236Y+071039
X+004787Y+069417
X+003772Y+069780
X+002839Y+072055
X+002295Y+073551
X+003594Y+074445
X+002839Y+077811
X+002346Y+078906
X+007390Y+074469
X+042004Y+069260
T02
X+024488Y+079307
X+023488Y+079307
X+022488Y+079307
X+006705Y+079386
X+005705Y+079386
X+004705Y+079386
X+004642Y+030874
X+005642Y+030874
X+006642Y+030874
X+022425Y+030795
X+023425Y+030795
X+024425Y+030795
T03
X+028106Y+048469
X+028106Y+047469
X+027106Y+047469
X+026106Y+047469
X+026106Y+048469
X+025106Y+048469
X+025106Y+047469
X+024106Y+047469
X+024106Y+048469
X+023106Y+047469
X+022106Y+047469
X+022106Y+048469
X+021106Y+048469
X+021106Y+047469
X+020106Y+047469
X+020106Y+048469
X+019106Y+047469
X+018106Y+047469
X+018106Y+048469
X+017106Y+048469
X+017106Y+047469
X+016106Y+047469
X+016106Y+048469
X+015106Y+047469
X+014106Y+047469
X+029106Y+048469
X+031106Y+053469
X+031106Y+054469
X+031106Y+055469
X+031106Y+056469
X+031106Y+057469
X+031106Y+058469
X+031106Y+059469
X+034106Y+059469
X+034106Y+058469
X+034106Y+057469
X+034106Y+056469
X+034106Y+055469
X+034106Y+054469
X+034106Y+053469
X+034106Y+052469
X+038106Y+052469
X+038106Y+053469
X+038106Y+054469
X+038106Y+055469
X+038106Y+056469
X+038106Y+057469
X+039106Y+057469
X+039106Y+056469
X+039106Y+055469
X+039106Y+054469
X+039106Y+053469
X+039106Y+052469
X+039106Y+051469
X+038106Y+051469
X+038106Y+050469
X+039106Y+050469
X+041106Y+050469
X+042106Y+050469
X+042106Y+051469
X+041106Y+051469
X+041106Y+052469
X+042106Y+052469
X+042106Y+053469
X+041106Y+053469
X+041106Y+054469
X+042106Y+054469
X+042106Y+057469
X+042106Y+058469
X+041106Y+058469
X+041106Y+059469
X+041106Y+060469
X+041106Y+061469
X+042106Y+061469
X+042106Y+060469
X+042106Y+059469
X+041106Y+057469
X+039106Y+058469
X+038106Y+058469
X+038106Y+059469
X+039106Y+059469
X+039106Y+060469
X+039106Y+061469
X+038106Y+061469
X+038106Y+060469
X+034106Y+071469
X+034106Y+072469
X+034106Y+073469
X+034106Y+074469
X+034106Y+075469
X+034106Y+076469
X+034106Y+077469
X+034106Y+078469
X+031106Y+077469
X+031106Y+076469
X+031106Y+075469
X+031106Y+074469
X+031106Y+073469
X+031106Y+072469
X+031106Y+071469
X+013106Y+067469
X+012106Y+067469
X+011106Y+067469
X+010106Y+067469
X+009106Y+067469
X+031043Y+028957
X+031043Y+027957
X+031043Y+026957
X+031043Y+025957
X+031043Y+024957
X+031043Y+023957
X+031043Y+022957
X+034043Y+022957
X+034043Y+023957
X+034043Y+024957
X+034043Y+025957
X+034043Y+026957
X+034043Y+027957
X+034043Y+028957
X+034043Y+029957
X+038043Y+012957
X+038043Y+011957
X+039043Y+011957
X+039043Y+012957
X+039043Y+010957
X+038043Y+010957
X+038043Y+009957
X+039043Y+009957
X+039043Y+008957
X+039043Y+007957
X+038043Y+007957
X+038043Y+008957
X+038043Y+006957
X+038043Y+005957
X+038043Y+004957
X+039043Y+004957
X+039043Y+005957
X+039043Y+006957
X+041043Y+005957
X+041043Y+004957
X+041043Y+003957
X+041043Y+002957
X+041043Y+001957
X+042043Y+001957
X+042043Y+002957
X+042043Y+003957
X+042043Y+004957
X+042043Y+005957
X+042043Y+008957
X+041043Y+008957
X+041043Y+009957
X+041043Y+010957
X+041043Y+011957
X+042043Y+011957
X+042043Y+010957
X+042043Y+009957
X+042043Y+012957
X+041043Y+012957
X+034043Y+010957
X+034043Y+009957
X+034043Y+008957
X+034043Y+007957
X+034043Y+006957
X+034043Y+005957
X+034043Y+004957
X+034043Y+003957
X+031043Y+004957
X+031043Y+005957
X+031043Y+006957
X+031043Y+007957
X+031043Y+008957
X+031043Y+009957
X+031043Y+010957
X+038043Y+003957
X+038043Y+002957
X+038043Y+001957
X+039043Y+001957
X+039043Y+002957
X+039043Y+003957
X+029043Y-000043
X+028043Y-000043
X+028043Y-001043
X+027043Y-001043
X+026043Y-001043
X+026043Y-000043
X+025043Y-000043
X+025043Y-001043
X+024043Y-001043
X+023043Y-001043
X+022043Y-001043
X+022043Y-000043
X+021043Y-000043
X+021043Y-001043
X+020043Y-001043
X+020043Y-000043
X+019043Y-001043
X+018043Y-001043
X+018043Y-000043
X+017043Y-000043
X+017043Y-001043
X+016043Y-001043
X+016043Y-000043
X+015043Y-001043
X+014043Y-001043
X+024043Y-000043
X+013043Y+018957
X+012043Y+018957
X+011043Y+018957
X+010043Y+018957
X+009043Y+018957
X+047760Y+041567
X+047760Y+042567
X+047760Y+043567
X+047760Y+044567
X+047697Y-003945
X+047697Y-004945
X+047697Y-005945
X+047697Y-006945
T00
M30
