M48
INCH
T01C0.012
T02C0.0354
T03C0.0433
%
T01
X+011140Y+058968
X+011140Y+058574
X+011140Y+058180
X+011140Y+057787
X+011140Y+057393
X+011534Y+057393
X+011534Y+057787
X+011534Y+058180
X+011534Y+058574
X+011534Y+058968
X+011927Y+058968
X+011927Y+058574
X+012321Y+058574
X+012321Y+058968
X+012715Y+058968
X+012715Y+058574
X+012715Y+058180
X+012715Y+057787
X+012715Y+057393
X+012321Y+057393
X+011927Y+057393
X+012079Y+057997
X+013794Y+059712
X+014423Y+059609
X+013794Y+061224
X+012376Y+061224
X+011923Y+063015
X+012845Y+063015
X+010211Y+063015
X+010368Y+060200
X+010329Y+059767
X+008636Y+058170
X+008636Y+056854
X+010231Y+056401
X+010073Y+055810
X+007278Y+057936
X+007278Y+058409
X+005920Y+058409
X+005053Y+058546
X+004700Y+057976
X+004679Y+059176
X+005053Y+059235
X+005471Y+061763
X+001894Y+060023
X+001884Y+057031
X+004526Y+056291
X+004880Y+056015
X+005175Y+055562
X+005510Y+054578
X+005175Y+050247
X+004880Y+049991
X+004526Y+049755
X+005242Y+046676
X+005234Y+046027
X+004840Y+046027
X+004840Y+045633
X+005234Y+045633
X+005627Y+045633
X+005627Y+046027
X+005242Y+042050
X+010392Y+045881
X+012670Y+046031
X+012670Y+045637
X+013064Y+045637
X+013064Y+046031
X+013458Y+046031
X+013458Y+045637
X+013061Y+046637
X+013833Y+050995
X+013833Y+051728
X+012376Y+052346
X+009191Y+051645
X+009191Y+050779
X+013847Y+056243
X+014423Y+056204
X+017120Y+056181
X+017120Y+057464
X+016786Y+057702
X+017124Y+057936
X+016786Y+058409
X+016786Y+059629
X+017124Y+060464
X+017124Y+062452
X+018975Y+059735
X+020786Y+059735
X+023837Y+060838
X+025451Y+060582
X+027183Y+061566
X+027951Y+062058
X+027951Y+063121
X+029211Y+063121
X+030057Y+064263
X+028325Y+065523
X+028516Y+065798
X+028314Y+066113
X+028488Y+066369
X+027577Y+065109
X+027183Y+064755
X+025648Y+063791
X+024311Y+064755
X+025077Y+065543
X+024836Y+065798
X+025004Y+066113
X+024802Y+066369
X+024427Y+068377
X+023463Y+068436
X+021947Y+068436
X+021770Y+068791
X+021573Y+069381
X+021805Y+069684
X+020746Y+068810
X+020766Y+068436
X+018384Y+068810
X+016849Y+069755
X+018719Y+070720
X+018994Y+073082
X+018719Y+073594
X+019467Y+074499
X+018994Y+075109
X+019467Y+075405
X+019935Y+076102
X+022088Y+076352
X+021628Y+074546
X+019955Y+073050
X+017223Y+077787
X+016947Y+078987
X+015215Y+076113
X+013935Y+076133
X+011573Y+077772
X+011573Y+078984
X+008353Y+077558
X+007824Y+076712
X+009396Y+076121
X+010215Y+074578
X+011179Y+075031
X+011632Y+073987
X+011160Y+073830
X+010471Y+073043
X+009750Y+073050
X+009396Y+073543
X+011160Y+072531
X+010215Y+071015
X+010471Y+070759
X+011612Y+070208
X+011337Y+066743
X+011825Y+066625
X+013620Y+066369
X+014030Y+066113
X+019109Y+065798
X+019467Y+065562
X+023140Y+064755
X+025648Y+068948
X+026140Y+069381
X+025664Y+069684
X+028857Y+069834
X+029782Y+068712
X+029821Y+073574
X+027475Y+073543
X+027357Y+072952
X+025546Y+074566
X+025890Y+076310
X+026451Y+077637
X+027475Y+076062
X+028463Y+076566
X+029211Y+079519
X+029668Y+080011
X+029668Y+080838
X+031337Y+080011
X+035215Y+080838
X+035746Y+078495
X+037589Y+078531
X+037735Y+079519
X+038967Y+076208
X+038967Y+074909
X+037589Y+075716
X+036219Y+075680
X+037301Y+074361
X+040522Y+075735
X+040522Y+076838
X+042334Y+076896
X+042334Y+078176
X+042334Y+080125
X+044900Y+079243
X+045294Y+079243
X+045687Y+079243
X+045687Y+078850
X+045294Y+078850
X+045294Y+078456
X+045294Y+078062
X+045294Y+077669
X+045294Y+077275
X+045687Y+077275
X+045687Y+077669
X+045687Y+078062
X+045687Y+078456
X+046081Y+078456
X+046475Y+078456
X+046475Y+078850
X+046868Y+078850
X+046868Y+079243
X+046475Y+079243
X+046081Y+079243
X+046081Y+078850
X+046081Y+078062
X+046475Y+078062
X+046475Y+077669
X+046475Y+077275
X+046475Y+076881
X+046868Y+076881
X+046868Y+076487
X+046868Y+076094
X+046868Y+075700
X+046475Y+075700
X+046081Y+075700
X+046081Y+075306
X+046475Y+075306
X+046475Y+074913
X+046868Y+074913
X+047262Y+074913
X+047262Y+075306
X+047656Y+075306
X+047656Y+075700
X+047656Y+076094
X+047262Y+076094
X+047262Y+076487
X+047656Y+076487
X+047656Y+076881
X+048049Y+076881
X+048443Y+076881
X+048443Y+077275
X+048443Y+077669
X+048049Y+077669
X+047656Y+077669
X+047262Y+077669
X+047262Y+077275
X+047262Y+076881
X+047656Y+077275
X+048049Y+077275
X+048837Y+077275
X+049231Y+077275
X+049231Y+076881
X+049231Y+076487
X+049231Y+076094
X+048837Y+076094
X+048837Y+075700
X+048837Y+075306
X+049231Y+075306
X+049231Y+074913
X+048837Y+074913
X+048443Y+074913
X+048049Y+074913
X+048049Y+075306
X+048049Y+075700
X+048049Y+076094
X+048443Y+076094
X+048443Y+076487
X+048837Y+076487
X+048837Y+076881
X+048837Y+077669
X+049231Y+077669
X+049231Y+078062
X+049231Y+078456
X+049231Y+078850
X+048837Y+078850
X+048443Y+078850
X+048443Y+078456
X+048049Y+078456
X+047656Y+078456
X+047656Y+078850
X+048049Y+078850
X+048049Y+079243
X+048443Y+079243
X+048837Y+079243
X+049231Y+079243
X+048837Y+078456
X+048837Y+078062
X+048443Y+078062
X+048049Y+078062
X+047656Y+078062
X+047262Y+078062
X+047262Y+078456
X+046868Y+078456
X+046868Y+078062
X+046868Y+077669
X+046868Y+077275
X+046081Y+077275
X+046081Y+076881
X+045687Y+076881
X+045294Y+076881
X+045294Y+076487
X+045294Y+076094
X+045294Y+075700
X+045294Y+075306
X+045294Y+074913
X+044900Y+074913
X+044900Y+075306
X+044900Y+075700
X+044900Y+076094
X+044900Y+076487
X+044900Y+076881
X+044900Y+077275
X+044900Y+077669
X+044900Y+078062
X+044900Y+078456
X+044900Y+078850
X+046081Y+077669
X+046081Y+076487
X+046081Y+076094
X+046475Y+076094
X+046475Y+076487
X+045687Y+076487
X+045687Y+076094
X+045687Y+075700
X+045687Y+075306
X+045687Y+074913
X+046081Y+074913
X+046868Y+075306
X+047262Y+075700
X+047656Y+074913
X+048443Y+075306
X+048443Y+075700
X+049231Y+075700
X+048049Y+076487
X+047262Y+078850
X+047262Y+079243
X+047656Y+079243
X+047557Y+068161
X+047164Y+068161
X+046770Y+068161
X+046770Y+067767
X+046770Y+067373
X+046770Y+066980
X+046770Y+066586
X+047164Y+066586
X+047164Y+066192
X+046770Y+066192
X+046376Y+066192
X+046376Y+065798
X+045983Y+065798
X+045589Y+065798
X+045589Y+066192
X+045589Y+066586
X+045195Y+066586
X+044801Y+066586
X+044801Y+066980
X+044801Y+067373
X+044801Y+067767
X+044801Y+068161
X+045195Y+068161
X+045195Y+067767
X+045589Y+067767
X+045589Y+067373
X+045589Y+066980
X+045983Y+066980
X+045983Y+067373
X+045983Y+067767
X+045983Y+068161
X+045589Y+068161
X+046376Y+068161
X+046376Y+067767
X+046376Y+067373
X+046376Y+066980
X+046376Y+066586
X+045983Y+066586
X+045983Y+066192
X+045983Y+065405
X+045983Y+065011
X+045589Y+065011
X+045589Y+064617
X+045983Y+064617
X+045983Y+064224
X+046376Y+064224
X+046376Y+064617
X+046376Y+065011
X+046376Y+065405
X+046770Y+065405
X+047164Y+065405
X+047164Y+065011
X+047164Y+064617
X+047164Y+064224
X+047164Y+063830
X+046770Y+063830
X+046376Y+063830
X+045983Y+063830
X+045589Y+063830
X+045195Y+063830
X+044801Y+063830
X+044801Y+064224
X+044801Y+064617
X+044801Y+065011
X+044801Y+065405
X+044801Y+065798
X+044801Y+066192
X+045195Y+066192
X+045195Y+065798
X+045195Y+065405
X+045195Y+065011
X+045195Y+064617
X+045195Y+064224
X+045589Y+064224
X+046770Y+064224
X+046770Y+064617
X+046770Y+065011
X+046770Y+065798
X+047164Y+065798
X+047557Y+065798
X+047951Y+065798
X+047951Y+065405
X+047951Y+065011
X+047951Y+064617
X+047951Y+064224
X+047951Y+063830
X+047557Y+063830
X+047557Y+064224
X+047557Y+064617
X+047557Y+065011
X+047557Y+065405
X+047557Y+066192
X+047557Y+066586
X+047557Y+066980
X+047557Y+067373
X+047164Y+067373
X+047164Y+066980
X+047164Y+067767
X+047557Y+067767
X+047951Y+067767
X+048345Y+067767
X+048345Y+068161
X+047951Y+068161
X+047951Y+067373
X+047951Y+066980
X+048345Y+066980
X+048345Y+067373
X+048738Y+067373
X+048738Y+066980
X+049132Y+066980
X+049132Y+067373
X+049132Y+067767
X+048738Y+067767
X+048738Y+068161
X+049132Y+068161
X+049132Y+066586
X+049132Y+066192
X+048738Y+066192
X+048738Y+065798
X+048345Y+065798
X+048345Y+065405
X+048345Y+065011
X+048738Y+065011
X+048738Y+064617
X+048345Y+064617
X+048345Y+064224
X+048345Y+063830
X+048738Y+063830
X+049132Y+063830
X+049132Y+064224
X+049132Y+064617
X+049132Y+065011
X+049132Y+065405
X+049132Y+065798
X+048738Y+065405
X+048345Y+066192
X+048345Y+066586
X+048738Y+066586
X+047951Y+066586
X+047951Y+066192
X+048738Y+064224
X+045589Y+065405
X+045195Y+066980
X+045195Y+067373
X+042232Y+067169
X+042232Y+065914
X+040423Y+065818
X+040423Y+064755
X+038908Y+065228
X+037990Y+064775
X+037971Y+064302
X+038908Y+063987
X+037321Y+065523
X+036849Y+065798
X+037085Y+066113
X+036553Y+066369
X+037628Y+067531
X+037557Y+068712
X+037026Y+069755
X+035235Y+067531
X+035648Y+064775
X+028857Y+060582
X+027951Y+057708
X+027242Y+057688
X+028266Y+056054
X+027951Y+055188
X+027242Y+054558
X+025471Y+053550
X+023837Y+054322
X+022337Y+049991
X+023325Y+049755
X+023325Y+048554
X+023286Y+046546
X+023227Y+046054
X+022833Y+046054
X+022833Y+045661
X+023227Y+045661
X+023620Y+045661
X+023620Y+046054
X+025841Y+045897
X+026337Y+050247
X+029073Y+051625
X+030057Y+053550
X+029782Y+056054
X+035530Y+045759
X+036573Y+045759
X+038601Y+045515
X+038305Y+042326
X+037538Y+041755
X+037538Y+040712
X+038305Y+040495
X+038679Y+039814
X+042301Y+041468
X+042695Y+041468
X+042695Y+041861
X+042695Y+042255
X+042301Y+042255
X+042301Y+042649
X+042301Y+043043
X+042301Y+043436
X+042301Y+043830
X+042301Y+044224
X+042695Y+044224
X+042695Y+044617
X+042695Y+045011
X+042301Y+045011
X+042301Y+044617
X+042695Y+043830
X+042695Y+043436
X+042695Y+043043
X+042695Y+042649
X+042301Y+041861
X+045077Y+041834
X+046416Y+041834
X+046416Y+044393
X+045077Y+044413
X+044683Y+046854
X+042439Y+045582
X+044585Y+039814
X+042310Y+031262
X+042310Y+029314
X+042310Y+028033
X+040497Y+027975
X+040497Y+026873
X+038942Y+027345
X+038942Y+026046
X+037564Y+026853
X+036194Y+026818
X+037277Y+025499
X+037564Y+029668
X+037710Y+030656
X+035722Y+029633
X+035190Y+031975
X+031312Y+031148
X+029644Y+031148
X+029186Y+030656
X+029643Y+031975
X+028438Y+027703
X+027450Y+027199
X+025866Y+027448
X+026427Y+028774
X+025521Y+025703
X+027450Y+024680
X+027332Y+024089
X+029797Y+024711
X+028832Y+020971
X+029757Y+019849
X+028463Y+017507
X+028289Y+017251
X+028491Y+016936
X+028301Y+016660
X+027552Y+016247
X+027159Y+015892
X+027927Y+014259
X+027927Y+013196
X+027159Y+012703
X+028832Y+011719
X+029186Y+014259
X+030033Y+015400
X+025623Y+014928
X+024287Y+015892
X+025052Y+016680
X+024811Y+016936
X+024979Y+017251
X+024777Y+017507
X+024403Y+019514
X+023438Y+019573
X+021923Y+019573
X+021745Y+019928
X+021549Y+020518
X+021781Y+020822
X+020722Y+019948
X+020741Y+019573
X+018360Y+019948
X+016824Y+020892
X+018694Y+021857
X+018970Y+024219
X+018694Y+024731
X+019442Y+025636
X+018970Y+026247
X+019442Y+026542
X+019911Y+027239
X+022063Y+027490
X+021604Y+025684
X+019930Y+024188
X+017198Y+028924
X+016923Y+030125
X+015190Y+027251
X+013911Y+027270
X+011549Y+028910
X+011549Y+030121
X+008328Y+028696
X+007799Y+027849
X+009371Y+027259
X+010190Y+025715
X+011155Y+026168
X+011608Y+025125
X+011135Y+024967
X+010446Y+024180
X+009726Y+024188
X+009371Y+024680
X+011135Y+023668
X+010190Y+022152
X+010446Y+021896
X+011588Y+021345
X+011312Y+017881
X+011801Y+017762
X+013596Y+017507
X+014005Y+017251
X+012820Y+014152
X+011899Y+014152
X+010186Y+014152
X+012352Y+012361
X+013769Y+012361
X+013769Y+010849
X+014399Y+010747
X+012690Y+010105
X+012690Y+009711
X+012690Y+009318
X+012690Y+008924
X+012690Y+008530
X+012297Y+008530
X+011903Y+008530
X+011509Y+008530
X+011115Y+008530
X+011115Y+008924
X+011509Y+008924
X+011509Y+009318
X+011509Y+009711
X+011509Y+010105
X+011115Y+010105
X+011115Y+009711
X+011115Y+009318
X+011903Y+009711
X+012297Y+009711
X+012297Y+010105
X+011903Y+010105
X+012054Y+009135
X+010206Y+007538
X+010049Y+006948
X+008612Y+007991
X+008612Y+009308
X+007253Y+009073
X+007253Y+009546
X+005895Y+009546
X+005029Y+009684
X+004675Y+009113
X+004655Y+010314
X+005029Y+010373
X+005446Y+012900
X+001869Y+011160
X+001860Y+008168
X+004501Y+007428
X+004856Y+007152
X+005151Y+006699
X+005486Y+005715
X+005151Y+001385
X+004856Y+001129
X+004501Y+000892
X+005210Y-002186
X+005209Y-002836
X+004815Y-002836
X+004815Y-003230
X+005209Y-003230
X+005603Y-003230
X+005603Y-002836
X+005230Y-006824
X+010367Y-002982
X+012646Y-002832
X+012646Y-003226
X+013039Y-003226
X+013433Y-003226
X+013433Y-002832
X+013039Y-002832
X+013037Y-002226
X+013808Y+002133
X+013808Y+002865
X+012352Y+003483
X+009167Y+002782
X+009167Y+001916
X+013823Y+007381
X+014399Y+007341
X+017096Y+007318
X+017096Y+008601
X+016761Y+008839
X+017100Y+009073
X+016761Y+009546
X+016761Y+010766
X+017100Y+011601
X+017100Y+013589
X+018950Y+010873
X+020761Y+010873
X+023812Y+011975
X+025427Y+011719
X+027218Y+008825
X+027927Y+008845
X+028241Y+007192
X+027927Y+006325
X+027218Y+005696
X+025446Y+004688
X+023812Y+005459
X+022312Y+001129
X+023301Y+000892
X+023301Y-000308
X+023261Y-002316
X+023202Y-002808
X+022808Y-002808
X+022808Y-003202
X+023202Y-003202
X+023596Y-003202
X+023596Y-002808
X+025816Y-002966
X+026312Y+001385
X+029049Y+002762
X+030033Y+004688
X+029757Y+007192
X+035623Y+015912
X+036824Y+016936
X+037060Y+017251
X+036529Y+017507
X+037297Y+016660
X+037966Y+015912
X+037946Y+015440
X+038883Y+015125
X+038883Y+016365
X+040399Y+015892
X+040399Y+016955
X+042207Y+017051
X+042207Y+018306
X+042210Y+020479
X+044777Y+019298
X+045171Y+019298
X+045171Y+018904
X+045171Y+018510
X+045171Y+018117
X+045171Y+017723
X+044777Y+017723
X+044777Y+018117
X+044777Y+018510
X+044777Y+018904
X+045564Y+018904
X+045564Y+018510
X+045958Y+018510
X+045958Y+018117
X+045958Y+017723
X+046352Y+017723
X+046745Y+017723
X+047139Y+017723
X+047533Y+017723
X+047533Y+017329
X+047533Y+016936
X+047927Y+016936
X+048320Y+016936
X+048320Y+017329
X+048320Y+017723
X+048714Y+017723
X+048714Y+018117
X+048714Y+018510
X+048714Y+018904
X+048714Y+019298
X+049108Y+019298
X+049108Y+018904
X+049108Y+018510
X+049108Y+018117
X+049108Y+017723
X+049108Y+017329
X+048714Y+017329
X+048714Y+016936
X+049108Y+016936
X+049108Y+016542
X+049108Y+016148
X+048714Y+016148
X+048714Y+015755
X+049108Y+015755
X+049108Y+015361
X+048714Y+015361
X+048714Y+014967
X+048320Y+014967
X+047927Y+014967
X+047927Y+015361
X+048320Y+015361
X+048320Y+015755
X+047927Y+015755
X+047927Y+016148
X+047927Y+016542
X+048320Y+016542
X+048714Y+016542
X+048320Y+016148
X+047533Y+016148
X+047533Y+015755
X+047139Y+015755
X+046745Y+015755
X+046352Y+015755
X+046352Y+016148
X+045958Y+016148
X+045958Y+016542
X+045958Y+016936
X+045564Y+016936
X+045171Y+016936
X+045171Y+017329
X+045564Y+017329
X+045564Y+017723
X+045564Y+018117
X+046352Y+018117
X+046352Y+018510
X+046745Y+018510
X+046745Y+018117
X+047139Y+018117
X+047533Y+018117
X+047533Y+018510
X+047139Y+018510
X+047139Y+018904
X+047139Y+019298
X+047533Y+019298
X+047927Y+019298
X+048320Y+019298
X+048320Y+018904
X+048320Y+018510
X+048320Y+018117
X+047927Y+018117
X+047927Y+017723
X+047927Y+017329
X+047139Y+017329
X+047139Y+016936
X+047139Y+016542
X+046745Y+016542
X+046352Y+016542
X+046352Y+016936
X+046352Y+017329
X+045958Y+017329
X+046745Y+017329
X+046745Y+016936
X+046745Y+016148
X+047139Y+016148
X+047533Y+016542
X+047533Y+015361
X+047139Y+015361
X+046745Y+015361
X+046352Y+015361
X+045958Y+015361
X+045958Y+014967
X+046352Y+014967
X+046745Y+014967
X+047139Y+014967
X+047533Y+014967
X+049108Y+014967
X+045958Y+015755
X+045564Y+015755
X+045564Y+016148
X+045171Y+016148
X+044777Y+016148
X+044777Y+016542
X+045171Y+016542
X+045564Y+016542
X+045171Y+015755
X+044777Y+015755
X+044777Y+015361
X+044777Y+014967
X+045171Y+014967
X+045171Y+015361
X+045564Y+015361
X+045564Y+014967
X+044777Y+016936
X+044777Y+017329
X+045958Y+018904
X+045958Y+019298
X+045564Y+019298
X+046352Y+019298
X+046352Y+018904
X+046745Y+018904
X+046745Y+019298
X+047533Y+018904
X+047927Y+018904
X+047927Y+018510
X+048025Y+026050
X+047631Y+026050
X+047631Y+026444
X+047238Y+026444
X+046844Y+026444
X+046450Y+026444
X+046450Y+026837
X+046450Y+027231
X+046056Y+027231
X+046056Y+026837
X+045663Y+026837
X+045663Y+027231
X+045663Y+027625
X+045663Y+028018
X+045269Y+028018
X+045269Y+028412
X+045269Y+028806
X+044875Y+028806
X+044875Y+029199
X+045269Y+029199
X+045269Y+029593
X+044875Y+029593
X+044875Y+029987
X+045269Y+029987
X+045269Y+030381
X+045663Y+030381
X+045663Y+029987
X+045663Y+029593
X+046056Y+029593
X+046056Y+029199
X+046056Y+028806
X+045663Y+028806
X+045663Y+028412
X+046056Y+028412
X+046450Y+028412
X+046450Y+028018
X+046844Y+028018
X+046844Y+027625
X+047238Y+027625
X+047631Y+027625
X+047631Y+028018
X+048025Y+028018
X+048025Y+028412
X+048419Y+028412
X+048419Y+028806
X+048812Y+028806
X+048812Y+028412
X+048812Y+028018
X+048812Y+027625
X+048419Y+027625
X+048419Y+027231
X+048419Y+026837
X+048812Y+026837
X+049206Y+026837
X+049206Y+026444
X+048812Y+026444
X+048812Y+026050
X+048419Y+026050
X+048419Y+026444
X+048025Y+026444
X+048025Y+026837
X+047631Y+026837
X+047631Y+027231
X+047238Y+027231
X+046844Y+027231
X+046844Y+026837
X+047238Y+026837
X+047238Y+026050
X+046844Y+026050
X+046450Y+026050
X+046056Y+026050
X+045663Y+026050
X+045269Y+026050
X+045269Y+026444
X+044875Y+026444
X+044875Y+026837
X+044875Y+027231
X+044875Y+027625
X+045269Y+027625
X+045269Y+027231
X+045269Y+026837
X+045663Y+026444
X+046056Y+026444
X+046056Y+027625
X+046450Y+027625
X+046056Y+028018
X+046844Y+028412
X+047238Y+028412
X+047631Y+028412
X+047631Y+028806
X+048025Y+028806
X+048025Y+029199
X+048419Y+029199
X+048419Y+029593
X+048419Y+029987
X+048419Y+030381
X+048812Y+030381
X+048812Y+029987
X+049206Y+029987
X+049206Y+029593
X+049206Y+029199
X+049206Y+028806
X+049206Y+028412
X+049206Y+028018
X+049206Y+027625
X+049206Y+027231
X+048812Y+027231
X+048025Y+027231
X+048025Y+027625
X+048419Y+028018
X+047238Y+028018
X+047238Y+028806
X+046844Y+028806
X+046844Y+029199
X+047238Y+029199
X+047238Y+029593
X+047238Y+029987
X+047631Y+029987
X+047631Y+030381
X+048025Y+030381
X+048025Y+029987
X+048025Y+029593
X+047631Y+029593
X+047631Y+029199
X+046844Y+029593
X+046450Y+029593
X+046450Y+029987
X+046844Y+029987
X+046844Y+030381
X+046450Y+030381
X+046056Y+030381
X+046056Y+029987
X+045663Y+029199
X+046450Y+029199
X+046450Y+028806
X+044875Y+028412
X+044875Y+028018
X+044875Y+026050
X+049206Y+026050
X+048812Y+029199
X+048812Y+029593
X+049206Y+030381
X+047238Y+030381
X+044875Y+030381
X+037001Y+020892
X+037533Y+019849
X+037604Y+018668
X+035210Y+018668
X+026115Y+020518
X+025639Y+020822
X+025623Y+020085
X+023115Y+015892
X+019442Y+016699
X+019084Y+016936
X+010344Y+011337
X+010304Y+010904
X+017096Y+004593
X+018871Y-004147
X+019659Y-004147
X+023222Y-007297
X+030702Y-007297
X+030997Y-006962
X+031312Y-007375
X+030997Y-008714
X+031312Y-009009
X+030722Y-009777
X+032864Y-006549
X+035505Y-003104
X+036549Y-003104
X+038576Y-003348
X+038281Y-006537
X+037513Y-007108
X+037513Y-008151
X+038281Y-008367
X+038655Y-009049
X+042277Y-007395
X+042277Y-007001
X+042671Y-007001
X+042671Y-006608
X+042671Y-006214
X+042671Y-005820
X+042671Y-005427
X+042671Y-005033
X+042277Y-005033
X+042277Y-004639
X+042671Y-004639
X+042671Y-004245
X+042671Y-003852
X+042277Y-003852
X+042277Y-004245
X+042415Y-003281
X+042277Y-005427
X+042277Y-005820
X+042277Y-006214
X+042277Y-006608
X+042671Y-007395
X+045052Y-007029
X+046391Y-007029
X+046391Y-004470
X+045052Y-004450
X+044659Y-002009
X+044560Y-009049
X+013064Y-007159
X+007848Y+020636
X+007639Y+020999
X+006442Y+022259
X+004993Y+020636
X+003978Y+020999
X+003045Y+023274
X+002501Y+024770
X+003801Y+025664
X+003045Y+029042
X+002552Y+030125
X+007596Y+025688
X+013089Y+041704
X+018896Y+044716
X+019683Y+044716
X+023246Y+041566
X+030727Y+041566
X+031022Y+041901
X+031337Y+041487
X+031022Y+040149
X+031337Y+039854
X+030746Y+039086
X+032888Y+042314
X+017120Y+053456
X+007872Y+069499
X+007664Y+069861
X+006467Y+071121
X+005018Y+069499
X+004002Y+069861
X+003069Y+072137
X+002526Y+073633
X+003825Y+074527
X+003069Y+077893
X+002577Y+078987
X+007620Y+074550
X+042235Y+069342
T02
X+024719Y+079389
X+023719Y+079389
X+022719Y+079389
X+006935Y+079468
X+005935Y+079468
X+004935Y+079468
X+004911Y+030605
X+005911Y+030605
X+006911Y+030605
X+022694Y+030526
X+023694Y+030526
X+024694Y+030526
T03
X+028337Y+048550
X+029337Y+048550
X+028337Y+047550
X+027337Y+047550
X+026337Y+047550
X+026337Y+048550
X+025337Y+048550
X+024337Y+048550
X+024337Y+047550
X+023337Y+047550
X+022337Y+047550
X+022337Y+048550
X+021337Y+048550
X+020337Y+048550
X+020337Y+047550
X+019337Y+047550
X+018337Y+047550
X+017337Y+047550
X+016337Y+047550
X+015337Y+047550
X+014337Y+047550
X+016337Y+048550
X+017337Y+048550
X+018337Y+048550
X+021337Y+047550
X+025337Y+047550
X+031337Y+053550
X+031337Y+054550
X+031337Y+055550
X+031337Y+056550
X+031337Y+057550
X+031337Y+058550
X+031337Y+059550
X+034337Y+059550
X+034337Y+058550
X+034337Y+057550
X+034337Y+056550
X+034337Y+055550
X+034337Y+054550
X+034337Y+053550
X+034337Y+052550
X+038337Y+052550
X+038337Y+053550
X+038337Y+054550
X+038337Y+055550
X+038337Y+056550
X+038337Y+057550
X+039337Y+057550
X+039337Y+056550
X+039337Y+055550
X+039337Y+054550
X+039337Y+053550
X+039337Y+052550
X+039337Y+051550
X+039337Y+050550
X+038337Y+050550
X+038337Y+051550
X+041337Y+051550
X+041337Y+050550
X+042337Y+050550
X+042337Y+051550
X+042337Y+052550
X+041337Y+052550
X+041337Y+053550
X+042337Y+053550
X+042337Y+054550
X+041337Y+054550
X+041337Y+057550
X+042337Y+057550
X+042337Y+058550
X+042337Y+059550
X+042337Y+060550
X+042337Y+061550
X+041337Y+061550
X+041337Y+060550
X+041337Y+059550
X+041337Y+058550
X+039337Y+058550
X+039337Y+059550
X+038337Y+059550
X+038337Y+058550
X+038337Y+060550
X+038337Y+061550
X+039337Y+061550
X+039337Y+060550
X+034337Y+071550
X+034337Y+072550
X+034337Y+073550
X+034337Y+074550
X+034337Y+075550
X+034337Y+076550
X+034337Y+077550
X+034337Y+078550
X+031337Y+077550
X+031337Y+076550
X+031337Y+075550
X+031337Y+074550
X+031337Y+073550
X+031337Y+072550
X+031337Y+071550
X+013337Y+067550
X+012337Y+067550
X+011337Y+067550
X+010337Y+067550
X+009337Y+067550
X+031312Y+028688
X+031312Y+027688
X+031312Y+026688
X+031312Y+025688
X+031312Y+024688
X+031312Y+023688
X+031312Y+022688
X+034312Y+022688
X+034312Y+023688
X+034312Y+024688
X+034312Y+025688
X+034312Y+026688
X+034312Y+027688
X+034312Y+028688
X+034312Y+029688
X+038312Y+012688
X+039312Y+012688
X+039312Y+011688
X+039312Y+010688
X+038312Y+010688
X+038312Y+011688
X+038312Y+009688
X+038312Y+008688
X+039312Y+008688
X+039312Y+009688
X+039312Y+007688
X+038312Y+007688
X+038312Y+006688
X+038312Y+005688
X+038312Y+004688
X+039312Y+004688
X+039312Y+005688
X+039312Y+006688
X+041312Y+005688
X+041312Y+004688
X+041312Y+003688
X+041312Y+002688
X+041312Y+001688
X+042312Y+001688
X+042312Y+002688
X+042312Y+003688
X+042312Y+004688
X+042312Y+005688
X+042312Y+008688
X+041312Y+008688
X+041312Y+009688
X+042312Y+009688
X+042312Y+010688
X+041312Y+010688
X+041312Y+011688
X+042312Y+011688
X+042312Y+012688
X+041312Y+012688
X+034312Y+010688
X+034312Y+009688
X+034312Y+008688
X+034312Y+007688
X+034312Y+006688
X+034312Y+005688
X+034312Y+004688
X+034312Y+003688
X+031312Y+004688
X+031312Y+005688
X+031312Y+006688
X+031312Y+007688
X+031312Y+008688
X+031312Y+009688
X+031312Y+010688
X+038312Y+003688
X+038312Y+002688
X+038312Y+001688
X+039312Y+001688
X+039312Y+002688
X+039312Y+003688
X+029312Y-000312
X+028312Y-000312
X+028312Y-001312
X+027312Y-001312
X+026312Y-001312
X+026312Y-000312
X+025312Y-000312
X+025312Y-001312
X+024312Y-001312
X+023312Y-001312
X+022312Y-001312
X+022312Y-000312
X+021312Y-000312
X+021312Y-001312
X+020312Y-001312
X+020312Y-000312
X+019312Y-001312
X+018312Y-001312
X+018312Y-000312
X+017312Y-000312
X+017312Y-001312
X+016312Y-001312
X+016312Y-000312
X+015312Y-001312
X+014312Y-001312
X+024312Y-000312
X+013312Y+018688
X+012312Y+018688
X+011312Y+018688
X+010312Y+018688
X+009312Y+018688
X+047966Y-004214
X+047966Y-005214
X+047966Y-006214
X+047966Y-007214
X+047990Y+041649
X+047990Y+042649
X+047990Y+043649
X+047990Y+044649
T00
M30
