M48
INCH
T01C0.012
T02C0.0354
T03C0.0433
%
T01
X+010846Y+070984
X+010846Y+070591
X+010846Y+070197
X+010846Y+069803
X+010846Y+069409
X+011240Y+069409
X+011240Y+069803
X+011240Y+070197
X+011240Y+070591
X+011240Y+070984
X+011634Y+070984
X+011634Y+070591
X+012028Y+070591
X+012028Y+070984
X+012421Y+070984
X+012421Y+070591
X+012421Y+070197
X+012421Y+069803
X+012421Y+069409
X+012028Y+069409
X+011634Y+069409
X+011785Y+070014
X+013500Y+071728
X+014130Y+071626
X+013500Y+073240
X+012083Y+073240
X+011630Y+075031
X+012551Y+075031
X+009917Y+075031
X+007933Y+073937
X+007539Y+073937
X+007539Y+073543
X+007933Y+073543
X+010075Y+072217
X+010035Y+071783
X+008343Y+070187
X+008343Y+068870
X+009937Y+068417
X+009780Y+067827
X+007933Y+066260
X+007539Y+066260
X+007539Y+065866
X+007933Y+065866
X+008898Y+063661
X+008898Y+062795
X+012083Y+064362
X+013539Y+063744
X+013539Y+063012
X+015807Y+065866
X+016201Y+065866
X+016201Y+066260
X+015807Y+066260
X+016827Y+065472
X+016827Y+068198
X+016827Y+069480
X+016492Y+069719
X+016831Y+069953
X+016492Y+070425
X+016492Y+071646
X+016831Y+072480
X+016201Y+073543
X+015807Y+073543
X+015807Y+073937
X+016201Y+073937
X+016831Y+074469
X+018681Y+071752
X+020492Y+071752
X+023543Y+072854
X+025157Y+072598
X+026890Y+073583
X+027657Y+074075
X+027657Y+075138
X+028917Y+075138
X+029764Y+076280
X+028031Y+077539
X+028222Y+077815
X+028020Y+078130
X+028194Y+078386
X+027283Y+077126
X+026890Y+076772
X+025354Y+075807
X+024018Y+076772
X+024783Y+077559
X+024542Y+077815
X+024710Y+078130
X+024508Y+078386
X+024134Y+080394
X+023169Y+080453
X+021654Y+080453
X+021476Y+080807
X+021280Y+081398
X+021512Y+081701
X+020453Y+080827
X+020472Y+080453
X+018091Y+080827
X+016555Y+081772
X+018425Y+082736
X+018701Y+085098
X+018425Y+085610
X+019173Y+086516
X+018701Y+087126
X+019173Y+087421
X+019642Y+088118
X+021794Y+088369
X+021335Y+086563
X+019661Y+085067
X+016929Y+089803
X+016654Y+091004
X+016791Y+094213
X+016398Y+094213
X+016004Y+094213
X+015610Y+094213
X+015217Y+094213
X+014823Y+094213
X+014429Y+094213
X+014035Y+094213
X+013642Y+094213
X+013248Y+094213
X+012854Y+094213
X+012461Y+094213
X+012067Y+094213
X+011673Y+094213
X+011280Y+094213
X+010886Y+094213
X+010492Y+094213
X+010098Y+094213
X+009705Y+094213
X+009311Y+094213
X+008917Y+094213
X+008524Y+094213
X+008130Y+094213
X+007736Y+094213
X+007343Y+094213
X+006949Y+094213
X+006555Y+094213
X+006161Y+094213
X+005768Y+094213
X+005374Y+094213
X+004980Y+094213
X+004587Y+094213
X+004193Y+094213
X+003799Y+094213
X+003406Y+094213
X+003012Y+094213
X+002618Y+094213
X+002224Y+094213
X+001831Y+094213
X+001831Y+093819
X+001831Y+093425
X+001831Y+093031
X+001831Y+092638
X+001831Y+092244
X+001831Y+091850
X+001831Y+091457
X+001831Y+091063
X+001831Y+090669
X+001831Y+090276
X+001831Y+089882
X+001831Y+089488
X+001831Y+089094
X+001831Y+088701
X+001831Y+088307
X+001831Y+087913
X+001831Y+087520
X+001831Y+087126
X+001831Y+086732
X+001831Y+086339
X+001831Y+085945
X+001831Y+085551
X+001831Y+085157
X+001831Y+084764
X+001831Y+084370
X+001831Y+083976
X+001831Y+083583
X+001831Y+083189
X+001831Y+082795
X+001831Y+082402
X+001831Y+082008
X+001831Y+081614
X+001831Y+081220
X+001831Y+080827
X+001831Y+080433
X+001831Y+080039
X+001831Y+079646
X+001831Y+079252
X+001831Y+078858
X+001831Y+078465
X+001831Y+078071
X+001831Y+077677
X+001831Y+077283
X+001831Y+076890
X+001831Y+076496
X+001831Y+076102
X+001831Y+075709
X+001831Y+075315
X+001831Y+074921
X+001831Y+074528
X+001831Y+074134
X+001831Y+073740
X+001831Y+073346
X+001600Y+072039
X+004386Y+071193
X+004760Y+071280
X+004760Y+070563
X+004406Y+069992
X+005626Y+070425
X+006984Y+070425
X+006984Y+069953
X+004587Y+068031
X+004232Y+068307
X+004882Y+067579
X+005217Y+066594
X+001831Y+066457
X+001831Y+066850
X+001831Y+067244
X+001831Y+067638
X+001831Y+068031
X+001591Y+069047
X+001831Y+066063
X+001831Y+065669
X+001831Y+065276
X+001831Y+064882
X+001831Y+064488
X+001831Y+064094
X+001831Y+063701
X+001831Y+063307
X+001831Y+062913
X+001831Y+062520
X+001831Y+062126
X+001831Y+061732
X+001831Y+061339
X+001831Y+060945
X+001831Y+060551
X+001831Y+060157
X+001831Y+059764
X+001831Y+059370
X+004232Y+061772
X+004587Y+062008
X+004882Y+062264
X+004937Y+057634
X+004928Y+056984
X+004535Y+056984
X+004535Y+056590
X+004928Y+056590
X+005322Y+056590
X+005322Y+056984
X+004937Y+053008
X+010098Y+056839
X+012365Y+056988
X+012365Y+056594
X+012759Y+056594
X+012759Y+056988
X+013152Y+056988
X+013152Y+056594
X+012756Y+057594
X+012783Y+052661
X+018646Y+055909
X+019433Y+055909
X+022583Y+056854
X+022583Y+057248
X+022976Y+057248
X+022976Y+056854
X+023370Y+056854
X+023370Y+057248
X+023035Y+057740
X+025591Y+057091
X+023031Y+060571
X+023031Y+061772
X+022043Y+062008
X+026043Y+062264
X+028839Y+063465
X+029764Y+065567
X+029488Y+068071
X+027972Y+068071
X+027657Y+067205
X+026949Y+066575
X+025177Y+065567
X+023543Y+066339
X+026949Y+069705
X+027657Y+069724
X+028563Y+072598
X+022846Y+076772
X+019173Y+077579
X+018815Y+077815
X+013736Y+078130
X+013327Y+078386
X+011531Y+078642
X+011043Y+078760
X+011319Y+082224
X+010177Y+082776
X+009921Y+083031
X+010866Y+084547
X+010177Y+085059
X+009457Y+085067
X+009102Y+085559
X+009921Y+086594
X+010886Y+087047
X+011339Y+086004
X+010866Y+085846
X+009102Y+088138
X+007530Y+088728
X+008059Y+089575
X+007327Y+086567
X+006173Y+083138
X+007370Y+081878
X+007579Y+081516
X+004724Y+081516
X+003709Y+081878
X+002776Y+084154
X+002232Y+085650
X+003531Y+086543
X+002776Y+089909
X+002283Y+091004
X+011280Y+091000
X+011280Y+089789
X+013642Y+088150
X+014921Y+088130
X+017185Y+094213
X+017579Y+094213
X+017972Y+094213
X+018366Y+094213
X+018760Y+094213
X+019154Y+094213
X+019547Y+094213
X+019941Y+094213
X+020335Y+094213
X+020728Y+094213
X+021122Y+094213
X+021516Y+094213
X+021909Y+094213
X+022303Y+094213
X+022697Y+094213
X+023091Y+094213
X+023484Y+094213
X+023878Y+094213
X+024272Y+094213
X+024665Y+094213
X+025059Y+094213
X+025453Y+094213
X+025846Y+094213
X+026240Y+094213
X+026634Y+094213
X+027028Y+094213
X+027421Y+094213
X+027815Y+094213
X+028209Y+094213
X+028602Y+094213
X+028996Y+094213
X+029390Y+094213
X+029783Y+094213
X+030177Y+094213
X+030571Y+094213
X+030965Y+094213
X+031358Y+094213
X+031752Y+094213
X+032146Y+094213
X+032539Y+094213
X+032933Y+094213
X+033327Y+094213
X+033720Y+094213
X+034114Y+094213
X+034508Y+094213
X+034902Y+094213
X+035295Y+094213
X+035689Y+094213
X+036083Y+094213
X+036476Y+094213
X+036870Y+094213
X+037264Y+094213
X+037657Y+094213
X+038051Y+094213
X+038445Y+094213
X+038839Y+094213
X+039232Y+094213
X+039626Y+094213
X+040020Y+094213
X+040413Y+094213
X+040807Y+094213
X+041201Y+094213
X+041594Y+094213
X+041988Y+094213
X+042382Y+094213
X+042776Y+094213
X+043169Y+094213
X+043563Y+094213
X+043957Y+094213
X+044350Y+094213
X+044744Y+094213
X+045138Y+094213
X+045531Y+094213
X+045925Y+094213
X+046319Y+094213
X+046713Y+094213
X+047106Y+094213
X+047500Y+094213
X+047894Y+094213
X+048287Y+094213
X+048681Y+094213
X+049075Y+094213
X+049469Y+094213
X+049862Y+094213
X+049862Y+093819
X+049862Y+093425
X+049862Y+093031
X+049862Y+092638
X+049862Y+092244
X+049862Y+091850
X+049862Y+091457
X+049862Y+091063
X+049862Y+090669
X+049862Y+090276
X+049862Y+089882
X+049862Y+089488
X+049862Y+089094
X+049862Y+088701
X+049862Y+088307
X+049862Y+087913
X+049862Y+087520
X+049862Y+087126
X+049862Y+086732
X+049862Y+086339
X+049862Y+085945
X+049862Y+085551
X+049862Y+085157
X+049862Y+084764
X+049862Y+084370
X+049862Y+083976
X+049862Y+083583
X+049862Y+083189
X+049862Y+082795
X+049862Y+082402
X+049862Y+082008
X+049862Y+081614
X+049862Y+081220
X+049862Y+080827
X+049862Y+080433
X+049862Y+080039
X+049862Y+079646
X+049862Y+079252
X+049862Y+078858
X+049862Y+078465
X+049862Y+078071
X+049862Y+077677
X+049862Y+077283
X+049862Y+076890
X+049862Y+076496
X+049862Y+076102
X+049862Y+075709
X+049862Y+075315
X+049862Y+074921
X+049862Y+074528
X+049862Y+074134
X+049862Y+073740
X+049862Y+073346
X+049862Y+072953
X+049862Y+072559
X+049862Y+072165
X+049862Y+071772
X+049862Y+071378
X+049862Y+070984
X+049862Y+070591
X+049862Y+070197
X+049862Y+069803
X+049862Y+069409
X+049862Y+069016
X+049862Y+068622
X+049862Y+068228
X+049862Y+067835
X+049862Y+067441
X+049862Y+067047
X+049862Y+066654
X+049862Y+066260
X+049862Y+065866
X+049862Y+065472
X+049862Y+065079
X+049862Y+064685
X+049862Y+064291
X+049862Y+063898
X+049862Y+063504
X+049862Y+063110
X+049862Y+062717
X+049862Y+062323
X+049862Y+061929
X+049862Y+061535
X+049862Y+061142
X+049862Y+060748
X+049862Y+060354
X+049862Y+059961
X+049862Y+059567
X+049862Y+059173
X+049862Y+058780
X+049862Y+058386
X+049862Y+057992
X+049862Y+057598
X+049862Y+057205
X+049862Y+056811
X+049862Y+056417
X+049862Y+056024
X+049862Y+055630
X+049862Y+055236
X+049862Y+054843
X+049862Y+054449
X+049862Y+054055
X+049862Y+053661
X+049862Y+053268
X+049862Y+052874
X+049862Y+052480
X+049862Y+052087
X+049862Y+051693
X+049862Y+051299
X+048878Y+052480
X+048484Y+052480
X+048091Y+052480
X+047697Y+052480
X+047303Y+052480
X+046909Y+052480
X+046516Y+052480
X+046122Y+052480
X+045728Y+052480
X+045335Y+052480
X+044154Y+052480
X+044783Y+053850
X+046122Y+053850
X+046122Y+056409
X+046122Y+057598
X+045728Y+057598
X+045335Y+057598
X+046516Y+057598
X+046909Y+057598
X+047303Y+057598
X+047697Y+057598
X+048091Y+057598
X+048484Y+057598
X+048878Y+057598
X+044783Y+056429
X+042402Y+056240
X+042402Y+056634
X+042402Y+057028
X+042008Y+057028
X+042008Y+056634
X+042008Y+056240
X+042008Y+055846
X+042402Y+055846
X+042402Y+055453
X+042402Y+055059
X+042008Y+055059
X+042008Y+054665
X+042008Y+054272
X+042008Y+053878
X+042402Y+053878
X+042402Y+053484
X+042008Y+053484
X+042402Y+054272
X+042402Y+054665
X+042008Y+055453
X+042146Y+057598
X+044390Y+058870
X+038307Y+057531
X+036280Y+057776
X+035236Y+057776
X+032595Y+054331
X+031043Y+053504
X+030728Y+053917
X+030433Y+053583
X+030728Y+051673
X+031043Y+051339
X+030453Y+050846
X+030571Y+045807
X+030177Y+045807
X+029783Y+045807
X+029390Y+045807
X+028996Y+045807
X+028602Y+045807
X+028209Y+045807
X+027815Y+045807
X+027421Y+045807
X+027028Y+045807
X+026634Y+045807
X+026240Y+045807
X+025846Y+045807
X+025453Y+045807
X+025059Y+045807
X+024665Y+045807
X+024272Y+045807
X+023878Y+045807
X+023484Y+045807
X+023091Y+045807
X+022697Y+045807
X+022303Y+045807
X+021909Y+045807
X+021516Y+045807
X+021122Y+045807
X+020728Y+045807
X+020335Y+045807
X+019941Y+045807
X+019547Y+045807
X+019154Y+045807
X+018760Y+045807
X+018366Y+045807
X+017972Y+045807
X+017579Y+045807
X+017185Y+045807
X+016791Y+045807
X+016398Y+045807
X+016004Y+045807
X+015610Y+045807
X+015217Y+045807
X+014823Y+045807
X+014429Y+045807
X+014035Y+045807
X+013642Y+045807
X+013248Y+045807
X+012854Y+045807
X+012461Y+045807
X+012067Y+045807
X+011673Y+045807
X+011280Y+045807
X+010886Y+045807
X+010492Y+045807
X+010098Y+045807
X+009705Y+045807
X+009311Y+045807
X+008917Y+045807
X+008524Y+045807
X+008130Y+045807
X+007736Y+045807
X+007343Y+045807
X+006949Y+045807
X+006555Y+045807
X+006161Y+045807
X+005768Y+045807
X+005374Y+045807
X+004980Y+045807
X+004587Y+045807
X+004193Y+045807
X+003799Y+045807
X+003406Y+045807
X+003012Y+045807
X+002618Y+045807
X+002224Y+045807
X+001831Y+045807
X+001831Y+045413
X+001831Y+045020
X+001831Y+044626
X+001831Y+044232
X+001831Y+043839
X+001831Y+043445
X+001831Y+043051
X+001831Y+042657
X+001831Y+042264
X+001831Y+041870
X+001831Y+041476
X+001831Y+041083
X+001831Y+040689
X+001831Y+040295
X+001831Y+039902
X+001831Y+039508
X+001831Y+039114
X+001831Y+038720
X+001831Y+038327
X+001831Y+037933
X+001831Y+037539
X+001831Y+037146
X+001831Y+036752
X+001831Y+036358
X+001831Y+035965
X+001831Y+035571
X+001831Y+035177
X+001831Y+034783
X+001831Y+034390
X+001831Y+033996
X+001831Y+033602
X+001831Y+033209
X+001831Y+032815
X+001831Y+032421
X+001831Y+032028
X+001831Y+031634
X+001831Y+031240
X+001831Y+030846
X+001831Y+030453
X+001831Y+030059
X+001831Y+029665
X+001831Y+029272
X+001831Y+028878
X+001831Y+028484
X+001831Y+028091
X+001831Y+027697
X+001831Y+027303
X+001831Y+026909
X+001831Y+026516
X+001831Y+026122
X+001831Y+025728
X+001831Y+025335
X+001831Y+024941
X+001600Y+023634
X+004386Y+022787
X+004760Y+022874
X+004760Y+022157
X+004406Y+021587
X+005626Y+022020
X+006984Y+022020
X+006984Y+021547
X+008343Y+021781
X+008343Y+020465
X+009937Y+020012
X+009780Y+019421
X+010846Y+021004
X+011240Y+021004
X+011240Y+021398
X+011240Y+021791
X+010846Y+021791
X+010846Y+022185
X+010846Y+022579
X+011240Y+022579
X+011634Y+022579
X+011634Y+022185
X+011240Y+022185
X+012028Y+022185
X+012421Y+022185
X+012421Y+022579
X+012028Y+022579
X+012421Y+021791
X+012421Y+021398
X+012421Y+021004
X+012028Y+021004
X+011634Y+021004
X+011785Y+021608
X+010846Y+021398
X+010035Y+023378
X+010075Y+023811
X+012083Y+024835
X+013500Y+024835
X+013500Y+023323
X+014130Y+023220
X+016492Y+023240
X+016831Y+024075
X+016201Y+025138
X+015807Y+025138
X+015807Y+025531
X+016201Y+025531
X+016831Y+026063
X+018681Y+023346
X+020492Y+023346
X+023543Y+024449
X+025157Y+024193
X+026890Y+025177
X+027657Y+025669
X+027657Y+026732
X+028917Y+026732
X+029764Y+027874
X+028031Y+029134
X+028222Y+029409
X+028020Y+029724
X+028194Y+029980
X+027283Y+028720
X+026890Y+028366
X+025354Y+027402
X+024018Y+028366
X+024783Y+029154
X+024542Y+029409
X+024710Y+029724
X+024508Y+029980
X+024134Y+031988
X+023169Y+032047
X+021654Y+032047
X+021476Y+032402
X+021280Y+032992
X+021512Y+033295
X+020453Y+032421
X+020472Y+032047
X+018091Y+032421
X+016555Y+033366
X+018425Y+034331
X+018701Y+036693
X+018425Y+037205
X+019173Y+038110
X+018701Y+038720
X+019173Y+039016
X+019642Y+039713
X+021794Y+039963
X+021335Y+038157
X+019661Y+036661
X+016929Y+041398
X+016654Y+042598
X+014921Y+039724
X+013642Y+039744
X+011280Y+041383
X+011280Y+042595
X+008059Y+041169
X+007530Y+040323
X+009102Y+039732
X+009921Y+038189
X+010886Y+038642
X+011339Y+037598
X+010866Y+037441
X+010177Y+036654
X+009457Y+036661
X+009102Y+037154
X+010866Y+036142
X+009921Y+034626
X+010177Y+034370
X+011319Y+033819
X+011043Y+030354
X+011531Y+030236
X+013327Y+029980
X+013736Y+029724
X+012551Y+026626
X+011630Y+026626
X+009917Y+026626
X+007933Y+025531
X+007539Y+025531
X+007539Y+025138
X+007933Y+025138
X+005177Y+025374
X+004232Y+019902
X+004587Y+019626
X+004882Y+019173
X+005217Y+018189
X+007539Y+017854
X+007539Y+017461
X+007933Y+017461
X+007933Y+017854
X+008898Y+015256
X+008898Y+014390
X+012083Y+015957
X+013539Y+015339
X+013539Y+014606
X+015807Y+017461
X+015807Y+017854
X+016201Y+017854
X+016201Y+017461
X+016827Y+017067
X+016827Y+019792
X+016827Y+021075
X+016492Y+021313
X+016831Y+021547
X+016492Y+022020
X+014130Y+019815
X+013554Y+019854
X+023543Y+017933
X+025177Y+017161
X+026949Y+018169
X+027657Y+018799
X+027972Y+019665
X+029488Y+019665
X+027657Y+021319
X+026949Y+021299
X+028563Y+024193
X+022846Y+028366
X+019173Y+029173
X+018815Y+029409
X+025354Y+032559
X+025846Y+032992
X+025370Y+033295
X+028563Y+033445
X+029488Y+032323
X+029528Y+037185
X+027181Y+037154
X+027063Y+036563
X+025252Y+038177
X+025597Y+039921
X+026157Y+041248
X+027181Y+039673
X+028169Y+040177
X+028917Y+043130
X+029375Y+043622
X+029374Y+044449
X+031043Y+043622
X+030965Y+045807
X+031358Y+045807
X+031752Y+045807
X+032146Y+045807
X+032539Y+045807
X+032933Y+045807
X+033327Y+045807
X+033720Y+045807
X+034114Y+045807
X+034508Y+045807
X+034902Y+045807
X+035295Y+045807
X+035689Y+045807
X+036083Y+045807
X+036476Y+045807
X+036870Y+045807
X+037264Y+045807
X+037657Y+045807
X+038051Y+045807
X+038445Y+045807
X+038839Y+045807
X+039232Y+045807
X+039626Y+045807
X+040020Y+045807
X+040413Y+045807
X+040807Y+045807
X+041201Y+045807
X+041594Y+045807
X+041988Y+045807
X+042382Y+045807
X+042776Y+045807
X+043169Y+045807
X+043563Y+045807
X+043957Y+045807
X+044350Y+045807
X+044744Y+045807
X+045138Y+045807
X+045531Y+045807
X+045925Y+045807
X+046319Y+045807
X+046713Y+045807
X+047106Y+045807
X+047500Y+045807
X+047894Y+045807
X+048287Y+045807
X+048681Y+045807
X+049075Y+045807
X+049469Y+045807
X+049862Y+045807
X+049862Y+045413
X+049862Y+045020
X+049862Y+044626
X+049862Y+044232
X+049862Y+043839
X+049862Y+043445
X+049862Y+043051
X+049862Y+042657
X+049862Y+042264
X+049862Y+041870
X+049862Y+041476
X+049862Y+041083
X+049862Y+040689
X+049862Y+040295
X+049862Y+039902
X+049862Y+039508
X+049862Y+039114
X+049862Y+038720
X+049862Y+038327
X+049862Y+037933
X+049862Y+037539
X+049862Y+037146
X+049862Y+036752
X+049862Y+036358
X+049862Y+035965
X+049862Y+035571
X+049862Y+035177
X+049862Y+034783
X+049862Y+034390
X+049862Y+033996
X+049862Y+033602
X+049862Y+033209
X+049862Y+032815
X+049862Y+032421
X+049862Y+032028
X+049862Y+031634
X+049862Y+031240
X+049862Y+030846
X+049862Y+030453
X+049862Y+030059
X+049862Y+029665
X+049862Y+029272
X+049862Y+028878
X+049862Y+028484
X+049862Y+028091
X+049862Y+027697
X+049862Y+027303
X+049862Y+026909
X+049862Y+026516
X+049862Y+026122
X+049862Y+025728
X+049862Y+025335
X+049862Y+024941
X+049862Y+024547
X+049862Y+024154
X+049862Y+023760
X+049862Y+023366
X+049862Y+022972
X+049862Y+022579
X+049862Y+022185
X+049862Y+021791
X+049862Y+021398
X+049862Y+021004
X+049862Y+020610
X+049862Y+020217
X+049862Y+019823
X+049862Y+019429
X+049862Y+019035
X+049862Y+018642
X+049862Y+018248
X+049862Y+017854
X+049862Y+017461
X+049862Y+017067
X+049862Y+016673
X+049862Y+016280
X+049862Y+015886
X+049862Y+015492
X+049862Y+015098
X+049862Y+014705
X+049862Y+014311
X+049862Y+013917
X+049862Y+013524
X+049862Y+013130
X+049862Y+012736
X+049862Y+012343
X+049862Y+011949
X+049862Y+011555
X+049862Y+011161
X+049862Y+010768
X+049862Y+010374
X+049862Y+009980
X+049862Y+009587
X+049862Y+009193
X+049862Y+008799
X+049862Y+008406
X+049862Y+008012
X+049862Y+007618
X+049862Y+007224
X+049862Y+006831
X+049862Y+006437
X+049862Y+006043
X+049862Y+005650
X+049862Y+005256
X+049862Y+004862
X+049862Y+004469
X+049862Y+004075
X+049862Y+003681
X+049862Y+003287
X+049862Y+002894
X+048878Y+004075
X+048484Y+004075
X+048091Y+004075
X+047697Y+004075
X+047303Y+004075
X+046909Y+004075
X+046516Y+004075
X+046122Y+004075
X+045728Y+004075
X+045335Y+004075
X+044154Y+004075
X+044783Y+005445
X+046122Y+005445
X+046122Y+008004
X+046122Y+009193
X+045728Y+009193
X+045335Y+009193
X+046516Y+009193
X+046909Y+009193
X+047303Y+009193
X+047697Y+009193
X+048091Y+009193
X+048484Y+009193
X+048878Y+009193
X+044783Y+008024
X+042402Y+007835
X+042402Y+008228
X+042008Y+008228
X+042008Y+007835
X+042008Y+007441
X+042008Y+007047
X+042402Y+007047
X+042402Y+006654
X+042402Y+006260
X+042008Y+006260
X+042008Y+005866
X+042008Y+005472
X+042402Y+005472
X+042402Y+005079
X+042008Y+005079
X+042402Y+005866
X+042008Y+006654
X+042402Y+007441
X+042402Y+008622
X+042008Y+008622
X+042146Y+009193
X+044390Y+010465
X+038307Y+009126
X+036280Y+009370
X+035236Y+009370
X+032595Y+005925
X+031043Y+005098
X+030728Y+005512
X+030433Y+005177
X+030728Y+003268
X+031043Y+002933
X+030453Y+002441
X+037244Y+004323
X+038012Y+004106
X+038504Y+002913
X+037244Y+005366
X+038012Y+005937
X+025591Y+008685
X+023370Y+008843
X+022976Y+008843
X+022583Y+008843
X+022583Y+008449
X+022976Y+008449
X+023370Y+008449
X+023035Y+009335
X+023031Y+012165
X+023031Y+013366
X+022043Y+013602
X+026043Y+013858
X+028839Y+015059
X+029764Y+017161
X+035354Y+028386
X+036555Y+029409
X+036791Y+029724
X+036260Y+029980
X+037028Y+029134
X+037697Y+028386
X+037677Y+027913
X+038614Y+027598
X+038614Y+028839
X+040130Y+028366
X+040130Y+029429
X+041938Y+029525
X+041938Y+030780
X+041941Y+032953
X+044508Y+031772
X+044508Y+031378
X+044508Y+030984
X+044508Y+030591
X+044508Y+030197
X+044508Y+029803
X+044508Y+029409
X+044508Y+029016
X+044902Y+029016
X+044902Y+029409
X+044902Y+029803
X+044902Y+030197
X+044902Y+030591
X+044902Y+030984
X+044902Y+031378
X+044902Y+031772
X+045295Y+031772
X+045295Y+031378
X+045295Y+030984
X+045295Y+030591
X+045295Y+030197
X+045295Y+029803
X+045295Y+029409
X+045295Y+029016
X+045689Y+029016
X+045689Y+029409
X+045689Y+029803
X+045689Y+030197
X+045689Y+030591
X+045689Y+030984
X+045689Y+031378
X+045689Y+031772
X+046083Y+031772
X+046083Y+031378
X+046083Y+030984
X+046083Y+030591
X+046083Y+030197
X+046083Y+029803
X+046083Y+029409
X+046083Y+029016
X+046476Y+029016
X+046476Y+029409
X+046476Y+029803
X+046476Y+030197
X+046476Y+030591
X+046476Y+030984
X+046476Y+031378
X+046476Y+031772
X+046870Y+031772
X+046870Y+031378
X+046870Y+030984
X+046870Y+030591
X+046870Y+030197
X+046870Y+029803
X+046870Y+029409
X+046870Y+029016
X+047264Y+029016
X+047264Y+029409
X+047264Y+029803
X+047264Y+030197
X+047264Y+030591
X+047264Y+030984
X+047264Y+031378
X+047264Y+031772
X+047657Y+031772
X+047657Y+031378
X+047657Y+030984
X+047657Y+030591
X+047657Y+030197
X+047657Y+029803
X+047657Y+029409
X+047657Y+029016
X+048051Y+029016
X+048051Y+029409
X+048051Y+029803
X+048051Y+030197
X+048051Y+030591
X+048051Y+030984
X+048051Y+031378
X+048051Y+031772
X+048445Y+031772
X+048445Y+031378
X+048445Y+030984
X+048445Y+030591
X+048445Y+030197
X+048445Y+029803
X+048445Y+029409
X+048445Y+029016
X+048839Y+029016
X+048839Y+029409
X+048839Y+029803
X+048839Y+030197
X+048839Y+030591
X+048839Y+030984
X+048839Y+031378
X+048839Y+031772
X+048839Y+028622
X+048445Y+028622
X+048051Y+028622
X+047657Y+028622
X+047264Y+028622
X+046870Y+028622
X+046476Y+028622
X+046476Y+028228
X+046870Y+028228
X+047264Y+028228
X+047657Y+028228
X+048051Y+028228
X+048445Y+028228
X+048839Y+028228
X+048839Y+027835
X+048445Y+027835
X+048051Y+027835
X+047657Y+027835
X+047264Y+027835
X+046870Y+027835
X+046870Y+027441
X+047264Y+027441
X+047657Y+027441
X+048051Y+027441
X+048445Y+027441
X+048839Y+027441
X+046476Y+027441
X+046083Y+027441
X+046083Y+027835
X+045689Y+027835
X+045295Y+027835
X+044902Y+027835
X+044508Y+027835
X+044508Y+027441
X+044902Y+027441
X+045295Y+027441
X+045689Y+027441
X+045689Y+028228
X+045295Y+028228
X+045295Y+028622
X+044902Y+028622
X+044902Y+028228
X+044508Y+028228
X+044508Y+028622
X+045689Y+028622
X+046083Y+028622
X+046083Y+028228
X+046476Y+027835
X+037335Y+031142
X+037264Y+032323
X+036732Y+033366
X+034941Y+031142
X+037008Y+037972
X+037295Y+039327
X+035925Y+039291
X+038673Y+039819
X+038673Y+038520
X+040228Y+039346
X+040228Y+040449
X+042041Y+040507
X+042041Y+041787
X+042041Y+043736
X+044606Y+042854
X+045000Y+042854
X+045000Y+042461
X+045394Y+042461
X+045394Y+042854
X+045787Y+042854
X+045787Y+042461
X+045787Y+042067
X+046181Y+042067
X+046181Y+042461
X+046575Y+042461
X+046575Y+042854
X+046969Y+042854
X+046969Y+042461
X+046969Y+042067
X+046969Y+041673
X+046969Y+041280
X+047362Y+041280
X+047362Y+041673
X+047362Y+042067
X+047756Y+042067
X+047756Y+042461
X+048150Y+042461
X+048150Y+042854
X+047756Y+042854
X+047362Y+042854
X+047362Y+042461
X+047756Y+041673
X+047756Y+041280
X+047756Y+040886
X+047756Y+040492
X+048150Y+040492
X+048150Y+040098
X+048150Y+039705
X+047756Y+039705
X+047362Y+039705
X+046969Y+039705
X+046969Y+040098
X+046575Y+040098
X+046181Y+040098
X+045787Y+040098
X+045787Y+039705
X+045787Y+039311
X+045394Y+039311
X+045000Y+039311
X+045000Y+039705
X+045000Y+040098
X+044606Y+040098
X+044606Y+040492
X+044606Y+040886
X+045000Y+040886
X+045000Y+041280
X+045394Y+041280
X+045394Y+041673
X+045000Y+041673
X+045000Y+042067
X+044606Y+042067
X+044606Y+041673
X+044606Y+041280
X+045000Y+040492
X+045394Y+040492
X+045394Y+040886
X+045787Y+040886
X+046181Y+040886
X+046181Y+041280
X+046575Y+041280
X+046575Y+040886
X+046969Y+040886
X+046969Y+040492
X+047362Y+040492
X+047362Y+040886
X+047362Y+040098
X+047756Y+040098
X+048543Y+040098
X+048937Y+040098
X+048937Y+039705
X+048937Y+039311
X+048937Y+038917
X+048937Y+038524
X+048543Y+038524
X+048150Y+038524
X+047756Y+038524
X+047362Y+038524
X+047362Y+038917
X+047756Y+038917
X+048150Y+038917
X+048543Y+038917
X+048543Y+039311
X+048543Y+039705
X+048150Y+039311
X+047756Y+039311
X+047362Y+039311
X+046969Y+039311
X+046575Y+039311
X+046181Y+039311
X+046181Y+038917
X+046181Y+038524
X+045787Y+038524
X+045394Y+038524
X+045000Y+038524
X+044606Y+038524
X+044606Y+038917
X+044606Y+039311
X+044606Y+039705
X+045394Y+039705
X+045394Y+040098
X+045787Y+040492
X+046181Y+040492
X+046575Y+040492
X+046575Y+039705
X+046181Y+039705
X+045787Y+038917
X+045394Y+038917
X+045000Y+038917
X+046575Y+038917
X+046575Y+038524
X+046969Y+038524
X+046969Y+038917
X+048543Y+040492
X+048937Y+040492
X+048937Y+040886
X+048937Y+041280
X+048543Y+041280
X+048543Y+040886
X+048150Y+040886
X+048150Y+041280
X+048150Y+041673
X+048543Y+041673
X+048543Y+042067
X+048543Y+042461
X+048937Y+042461
X+048937Y+042067
X+048937Y+041673
X+048150Y+042067
X+048543Y+042854
X+048937Y+042854
X+046575Y+042067
X+046575Y+041673
X+046181Y+041673
X+045787Y+041673
X+045787Y+041280
X+045394Y+042067
X+044606Y+042461
X+046181Y+042854
X+037441Y+043130
X+037295Y+042142
X+035453Y+042106
X+034921Y+044449
X+038504Y+051319
X+038012Y+052512
X+037244Y+052728
X+037244Y+053772
X+038012Y+054343
X+022996Y+052760
X+014130Y+068220
X+013554Y+068260
X+005177Y+073780
X+025354Y+080965
X+025846Y+081398
X+025370Y+081701
X+028563Y+081850
X+029488Y+080728
X+029528Y+085591
X+027181Y+085559
X+027063Y+084969
X+025252Y+086583
X+025597Y+088327
X+026157Y+089654
X+027181Y+088079
X+028169Y+088583
X+028917Y+091535
X+029375Y+092028
X+029374Y+092854
X+031043Y+092028
X+034921Y+092854
X+035453Y+090512
X+037295Y+090547
X+037441Y+091535
X+038673Y+088224
X+038673Y+086925
X+037295Y+087732
X+035925Y+087697
X+037008Y+086378
X+040228Y+087752
X+040228Y+088854
X+042041Y+088912
X+042041Y+090193
X+042041Y+092142
X+044606Y+091260
X+045000Y+091260
X+045000Y+090866
X+045000Y+090472
X+045394Y+090472
X+045394Y+090866
X+045394Y+091260
X+045787Y+091260
X+045787Y+090866
X+046181Y+090866
X+046575Y+090866
X+046575Y+091260
X+046969Y+091260
X+047362Y+091260
X+047756Y+091260
X+047756Y+090866
X+047756Y+090472
X+048150Y+090472
X+048150Y+090079
X+047756Y+090079
X+047362Y+090079
X+047362Y+089685
X+047362Y+089291
X+047756Y+089291
X+047756Y+088898
X+047362Y+088898
X+047362Y+088504
X+047362Y+088110
X+047756Y+088110
X+047756Y+087717
X+047362Y+087717
X+047362Y+087323
X+047362Y+086929
X+046969Y+086929
X+046575Y+086929
X+046181Y+086929
X+046181Y+087323
X+046181Y+087717
X+045787Y+087717
X+045394Y+087717
X+045000Y+087717
X+045000Y+088110
X+045000Y+088504
X+045394Y+088504
X+045394Y+088898
X+045394Y+089291
X+045787Y+089291
X+045787Y+088898
X+046181Y+088898
X+046181Y+088504
X+045787Y+088504
X+045787Y+088110
X+046181Y+088110
X+046575Y+088110
X+046969Y+088110
X+046969Y+087717
X+046969Y+087323
X+046575Y+087323
X+046575Y+087717
X+046575Y+088504
X+046575Y+088898
X+046969Y+088898
X+046969Y+089291
X+046969Y+089685
X+046575Y+089685
X+046181Y+089685
X+046181Y+090079
X+045787Y+090079
X+045787Y+090472
X+046181Y+090472
X+046575Y+090472
X+046575Y+090079
X+046969Y+090079
X+046969Y+090472
X+047362Y+090472
X+047362Y+090866
X+046969Y+090866
X+046181Y+091260
X+045394Y+090079
X+045000Y+090079
X+045000Y+089685
X+044606Y+089685
X+044606Y+089291
X+044606Y+088898
X+045000Y+088898
X+045000Y+089291
X+045394Y+089685
X+045787Y+089685
X+046181Y+089291
X+046575Y+089291
X+046969Y+088504
X+047756Y+088504
X+048150Y+088504
X+048150Y+088110
X+048543Y+088110
X+048543Y+088504
X+048543Y+088898
X+048543Y+089291
X+048937Y+089291
X+048937Y+088898
X+048937Y+088504
X+048937Y+088110
X+048937Y+087717
X+048543Y+087717
X+048543Y+087323
X+048543Y+086929
X+048937Y+086929
X+048937Y+087323
X+048150Y+087323
X+048150Y+086929
X+047756Y+086929
X+047756Y+087323
X+048150Y+087717
X+048150Y+088898
X+048150Y+089291
X+048150Y+089685
X+048543Y+089685
X+048937Y+089685
X+048937Y+090079
X+048937Y+090472
X+048937Y+090866
X+048937Y+091260
X+048543Y+091260
X+048543Y+090866
X+048543Y+090472
X+048543Y+090079
X+048150Y+090866
X+048150Y+091260
X+047756Y+089685
X+045394Y+088110
X+044606Y+088110
X+044606Y+087717
X+044606Y+087323
X+044606Y+086929
X+045000Y+086929
X+045000Y+087323
X+045394Y+087323
X+045394Y+086929
X+045787Y+086929
X+045787Y+087323
X+044606Y+088504
X+044606Y+090079
X+044606Y+090472
X+044606Y+090866
X+041941Y+081358
X+041938Y+079185
X+041938Y+077930
X+040130Y+077835
X+040130Y+076772
X+038614Y+077244
X+037697Y+076791
X+037677Y+076319
X+038614Y+076004
X+037028Y+077539
X+036555Y+077815
X+036791Y+078130
X+036260Y+078386
X+037335Y+079547
X+037264Y+080728
X+036732Y+081772
X+034941Y+079547
X+035354Y+076791
X+044508Y+076634
X+044508Y+077028
X+044902Y+077028
X+045295Y+077028
X+045689Y+077028
X+045689Y+077421
X+046083Y+077421
X+046476Y+077421
X+046476Y+077028
X+046476Y+076634
X+046870Y+076634
X+046870Y+076240
X+046870Y+075846
X+046476Y+075846
X+046476Y+076240
X+046083Y+076240
X+045689Y+076240
X+045689Y+076634
X+045295Y+076634
X+044902Y+076634
X+044902Y+076240
X+044902Y+075846
X+045295Y+075846
X+045689Y+075846
X+046083Y+075846
X+046083Y+076634
X+046083Y+077028
X+046083Y+077815
X+046476Y+077815
X+046476Y+078209
X+046476Y+078602
X+046083Y+078602
X+045689Y+078602
X+045689Y+078996
X+045295Y+078996
X+044902Y+078996
X+044508Y+078996
X+044508Y+079390
X+044508Y+079783
X+044508Y+080177
X+044902Y+080177
X+045295Y+080177
X+045689Y+080177
X+045689Y+079783
X+046083Y+079783
X+046476Y+079783
X+046476Y+080177
X+046870Y+080177
X+047264Y+080177
X+047657Y+080177
X+047657Y+079783
X+048051Y+079783
X+048051Y+079390
X+047657Y+079390
X+047657Y+078996
X+047264Y+078996
X+047264Y+078602
X+047657Y+078602
X+048051Y+078602
X+048051Y+078209
X+048445Y+078209
X+048445Y+077815
X+048051Y+077815
X+048051Y+077421
X+048445Y+077421
X+048839Y+077421
X+048839Y+077028
X+048839Y+076634
X+048839Y+076240
X+048839Y+075846
X+048445Y+075846
X+048445Y+076240
X+048051Y+076240
X+047657Y+076240
X+047657Y+076634
X+047657Y+077028
X+047264Y+077028
X+046870Y+077028
X+046870Y+077421
X+046870Y+077815
X+046870Y+078209
X+046870Y+078602
X+046870Y+078996
X+046870Y+079390
X+046476Y+079390
X+046476Y+078996
X+046083Y+078996
X+046083Y+079390
X+045689Y+079390
X+045295Y+079390
X+044902Y+079390
X+044902Y+079783
X+045295Y+079783
X+046083Y+080177
X+046870Y+079783
X+047264Y+079783
X+047264Y+079390
X+048051Y+078996
X+048445Y+078996
X+048839Y+078996
X+048839Y+078602
X+048839Y+078209
X+048839Y+077815
X+048445Y+078602
X+048445Y+079390
X+048445Y+079783
X+048445Y+080177
X+048051Y+080177
X+048839Y+080177
X+048839Y+079783
X+048839Y+079390
X+047657Y+078209
X+047657Y+077815
X+047657Y+077421
X+047264Y+077421
X+047264Y+077815
X+047264Y+078209
X+046083Y+078209
X+045689Y+078209
X+045295Y+078209
X+045295Y+078602
X+044902Y+078602
X+044508Y+078602
X+044508Y+078209
X+044902Y+078209
X+044902Y+077815
X+044902Y+077421
X+045295Y+077421
X+045295Y+077815
X+045689Y+077815
X+044508Y+077815
X+044508Y+077421
X+044508Y+076240
X+044508Y+075846
X+045295Y+076240
X+047264Y+076240
X+047264Y+075846
X+047657Y+075846
X+048051Y+075846
X+048051Y+076634
X+048051Y+077028
X+048445Y+077028
X+048445Y+076634
X+047264Y+076634
X+007327Y+038161
X+006173Y+034732
X+007370Y+033472
X+007579Y+033110
X+004724Y+033110
X+003709Y+033472
X+002776Y+035748
X+002232Y+037244
X+003531Y+038138
X+002776Y+041504
X+002283Y+042598
X+001591Y+020642
X+001831Y+019626
X+001831Y+019232
X+001831Y+018839
X+001831Y+018445
X+001831Y+018051
X+001831Y+017657
X+001831Y+017264
X+001831Y+016870
X+001831Y+016476
X+001831Y+016083
X+001831Y+015689
X+001831Y+015295
X+001831Y+014902
X+001831Y+014508
X+001831Y+014114
X+001831Y+013720
X+001831Y+013327
X+001831Y+012933
X+001831Y+012539
X+001831Y+012146
X+001831Y+011752
X+001831Y+011358
X+001831Y+010965
X+004232Y+013366
X+004587Y+013602
X+004882Y+013858
X+004937Y+009228
X+004928Y+008579
X+004535Y+008579
X+004535Y+008185
X+004928Y+008185
X+005322Y+008185
X+005322Y+008579
X+004937Y+004602
X+010098Y+008433
X+012365Y+008583
X+012365Y+008189
X+012759Y+008189
X+012759Y+008583
X+013152Y+008583
X+013152Y+008189
X+012756Y+009189
X+012783Y+004256
X+018646Y+007504
X+019433Y+007504
X+022996Y+004354
T02
X+024425Y+091406
X+023425Y+091406
X+022425Y+091406
X+006642Y+091484
X+005642Y+091484
X+004642Y+091484
X+004642Y+043079
X+005642Y+043079
X+006642Y+043079
X+022425Y+043000
X+023425Y+043000
X+024425Y+043000
T03
X+028043Y+060567
X+029043Y+060567
X+028043Y+059567
X+027043Y+059567
X+026043Y+059567
X+026043Y+060567
X+025043Y+060567
X+024043Y+060567
X+024043Y+059567
X+023043Y+059567
X+022043Y+059567
X+022043Y+060567
X+021043Y+060567
X+020043Y+060567
X+020043Y+059567
X+019043Y+059567
X+018043Y+059567
X+017043Y+059567
X+016043Y+059567
X+015043Y+059567
X+014043Y+059567
X+016043Y+060567
X+017043Y+060567
X+018043Y+060567
X+021043Y+059567
X+025043Y+059567
X+031043Y+065567
X+031043Y+066567
X+031043Y+067567
X+031043Y+068567
X+031043Y+069567
X+031043Y+070567
X+031043Y+071567
X+034043Y+071567
X+034043Y+070567
X+034043Y+069567
X+034043Y+068567
X+034043Y+067567
X+034043Y+066567
X+034043Y+065567
X+034043Y+064567
X+038043Y+064567
X+038043Y+065567
X+038043Y+066567
X+038043Y+067567
X+038043Y+068567
X+038043Y+069567
X+039043Y+069567
X+039043Y+068567
X+039043Y+067567
X+039043Y+066567
X+039043Y+065567
X+039043Y+064567
X+039043Y+063567
X+039043Y+062567
X+038043Y+062567
X+038043Y+063567
X+041043Y+063567
X+041043Y+062567
X+042043Y+062567
X+042043Y+063567
X+042043Y+064567
X+041043Y+064567
X+041043Y+065567
X+042043Y+065567
X+042043Y+066567
X+041043Y+066567
X+041043Y+069567
X+042043Y+069567
X+042043Y+070567
X+042043Y+071567
X+042043Y+072567
X+042043Y+073567
X+041043Y+073567
X+041043Y+072567
X+041043Y+071567
X+041043Y+070567
X+039043Y+070567
X+039043Y+071567
X+038043Y+071567
X+038043Y+070567
X+038043Y+072567
X+038043Y+073567
X+039043Y+073567
X+039043Y+072567
X+034043Y+083567
X+034043Y+084567
X+034043Y+085567
X+034043Y+086567
X+034043Y+087567
X+034043Y+088567
X+034043Y+089567
X+034043Y+090567
X+031043Y+089567
X+031043Y+088567
X+031043Y+087567
X+031043Y+086567
X+031043Y+085567
X+031043Y+084567
X+031043Y+083567
X+013043Y+079567
X+012043Y+079567
X+011043Y+079567
X+010043Y+079567
X+009043Y+079567
X+031043Y+041161
X+031043Y+040161
X+031043Y+039161
X+031043Y+038161
X+031043Y+037161
X+031043Y+036161
X+031043Y+035161
X+034043Y+035161
X+034043Y+036161
X+034043Y+037161
X+034043Y+038161
X+034043Y+039161
X+034043Y+040161
X+034043Y+041161
X+034043Y+042161
X+038043Y+025161
X+038043Y+024161
X+039043Y+024161
X+039043Y+025161
X+039043Y+023161
X+038043Y+023161
X+038043Y+022161
X+039043Y+022161
X+039043Y+021161
X+039043Y+020161
X+038043Y+020161
X+038043Y+021161
X+038043Y+019161
X+038043Y+018161
X+038043Y+017161
X+039043Y+017161
X+039043Y+018161
X+039043Y+019161
X+041043Y+018161
X+041043Y+017161
X+041043Y+016161
X+041043Y+015161
X+041043Y+014161
X+042043Y+014161
X+042043Y+015161
X+042043Y+016161
X+042043Y+017161
X+042043Y+018161
X+042043Y+021161
X+041043Y+021161
X+041043Y+022161
X+041043Y+023161
X+041043Y+024161
X+042043Y+024161
X+042043Y+023161
X+042043Y+022161
X+042043Y+025161
X+041043Y+025161
X+034043Y+023161
X+034043Y+022161
X+034043Y+021161
X+034043Y+020161
X+034043Y+019161
X+034043Y+018161
X+034043Y+017161
X+034043Y+016161
X+031043Y+017161
X+031043Y+018161
X+031043Y+019161
X+031043Y+020161
X+031043Y+021161
X+031043Y+022161
X+031043Y+023161
X+038043Y+016161
X+038043Y+015161
X+038043Y+014161
X+039043Y+014161
X+039043Y+015161
X+039043Y+016161
X+029043Y+012161
X+028043Y+012161
X+028043Y+011161
X+027043Y+011161
X+026043Y+011161
X+026043Y+012161
X+025043Y+012161
X+025043Y+011161
X+024043Y+011161
X+023043Y+011161
X+022043Y+011161
X+022043Y+012161
X+021043Y+012161
X+021043Y+011161
X+020043Y+011161
X+020043Y+012161
X+019043Y+011161
X+018043Y+011161
X+018043Y+012161
X+017043Y+012161
X+017043Y+011161
X+016043Y+011161
X+016043Y+012161
X+015043Y+011161
X+014043Y+011161
X+024043Y+012161
X+013043Y+031161
X+012043Y+031161
X+011043Y+031161
X+010043Y+031161
X+009043Y+031161
X+047697Y+053665
X+047697Y+054665
X+047697Y+055665
X+047697Y+056665
X+047697Y+008260
X+047697Y+007260
X+047697Y+006260
X+047697Y+005260
T00
M30
