G04 DipTrace 2.4.0.2*
%INTopMask.gbr*%
%MOIN*%
%ADD38R,0.025X0.025*%
%ADD56R,0.1065X0.1734*%
%ADD58R,0.0789X0.0238*%
%ADD60R,0.4135X0.4214*%
%ADD62R,0.1261X0.0317*%
%ADD64R,0.0868X0.0317*%
%ADD66R,0.2324X0.2324*%
%ADD68O,0.0415X0.0159*%
%ADD70O,0.0159X0.0415*%
%ADD72R,0.136X0.0927*%
%ADD74R,0.0454X0.0927*%
%ADD76R,0.033X0.033*%
%ADD78R,0.071X0.0789*%
%ADD80C,0.0671*%
%ADD82R,0.0671X0.0671*%
%ADD84R,0.0336X0.0494*%
%ADD86R,0.0828X0.0789*%
%ADD88R,0.0592X0.0986*%
%ADD90R,0.0631X0.071*%
%ADD92R,0.0612X0.0238*%
%ADD94C,0.075*%
%ADD96R,0.075X0.075*%
%ADD98R,0.0395X0.0395*%
%ADD100R,0.071X0.0395*%
%ADD102R,0.0317X0.0317*%
%ADD104R,0.0513X0.0474*%
%ADD106R,0.0435X0.0356*%
%ADD108R,0.0356X0.0435*%
%ADD110R,0.0474X0.0513*%
%FSLAX44Y44*%
G04*
G70*
G90*
G75*
G01*
%LNTopMask*%
%LPD*%
D110*
X24969Y54760D3*
Y55429D3*
D108*
X21209Y54898D3*
Y55409D3*
D106*
X23067Y83748D3*
X23579D3*
X5244Y83709D3*
X5756D3*
X23067Y75591D3*
X23579D3*
X23071Y68531D3*
X23583D3*
X14067Y88532D3*
X14579D3*
D110*
X24969Y57063D3*
Y56394D3*
D106*
X26220Y75130D3*
X25709D3*
X20134Y87075D3*
X20646D3*
X14563Y71646D3*
X15075D3*
X20114Y88669D3*
X20626D3*
D110*
X14880Y54508D3*
Y55177D3*
D106*
X26669Y87094D3*
X26157D3*
D104*
X41449Y88854D3*
X40780D3*
D110*
X14860Y56791D3*
Y56122D3*
D106*
X15547Y70425D3*
X16059D3*
D108*
X11634Y72697D3*
Y73209D3*
D106*
X14563Y69953D3*
X15075D3*
D108*
X10864Y54508D3*
Y55020D3*
D104*
X41449Y87752D3*
X40780D3*
D106*
X14563Y69480D3*
X15075D3*
X26240Y70976D3*
X25728D3*
X26669Y88591D3*
X26157D3*
X14583Y68594D3*
X15094D3*
X11291Y88236D3*
X11803D3*
D108*
X9921Y72685D3*
Y73197D3*
D106*
X14583Y68220D3*
X15094D3*
D108*
X13579Y67394D3*
Y66882D3*
D106*
X2252Y87075D3*
X2764D3*
X26299Y68079D3*
X25787D3*
D108*
X13165Y67394D3*
Y66882D3*
X13047Y64795D3*
Y64283D3*
D106*
X9130Y70425D3*
X8618D3*
D110*
X6896Y54528D3*
Y55197D3*
D106*
X2272Y88630D3*
X2783D3*
D108*
X12083Y67413D3*
Y66902D3*
D106*
X9130Y69953D3*
X8618D3*
D110*
X6896Y56791D3*
Y56122D3*
D108*
X11531Y67413D3*
Y66902D3*
X2959Y54508D3*
Y55020D3*
X11591Y65740D3*
Y65228D3*
D106*
X8650Y87075D3*
X8138D3*
D108*
X10390Y65740D3*
Y65228D3*
X9445Y64717D3*
Y64205D3*
D106*
X9130Y68870D3*
X8618D3*
D104*
X41291Y77835D3*
X40622D3*
X41291Y76791D3*
X40622D3*
D108*
X10114Y67787D3*
Y67276D3*
D106*
X26319Y64024D3*
X25807D3*
X8591Y88728D3*
X8079D3*
X33524Y57776D3*
X33012D3*
X16059Y69953D3*
X15547D3*
X7535Y70425D3*
X8047D3*
D108*
X12083Y65858D3*
Y66370D3*
D106*
X7535Y69953D3*
X8047D3*
X16059Y69480D3*
X15547D3*
X11843Y85579D3*
X11331D3*
X17669Y87075D3*
X17157D3*
X17650Y85008D3*
X17138D3*
X4031Y69992D3*
X3520D3*
X45197Y56429D3*
X45709D3*
X45197Y53850D3*
X45709D3*
D110*
X43917Y58870D3*
Y58201D3*
X43209Y58870D3*
Y58201D3*
X42480Y58870D3*
Y58201D3*
X41752Y58870D3*
Y58201D3*
D108*
X40079Y56154D3*
Y56665D3*
D106*
X41083Y57157D3*
X40571D3*
X37244Y57531D3*
X37756D3*
D102*
X24114Y53346D3*
X23248D3*
D100*
X21492Y83512D3*
Y82173D3*
D102*
X14467Y53248D3*
X15333D3*
X13620D3*
X12754D3*
D100*
X25370Y83531D3*
Y82193D3*
X3709Y83630D3*
Y82291D3*
D102*
X6915Y53465D3*
X7782D3*
X5971Y53445D3*
X5104D3*
D100*
X7370Y83689D3*
Y82350D3*
D98*
X31772Y60157D3*
X32362D3*
D102*
X17846Y87724D3*
X16980D3*
X17866Y84398D3*
X17000D3*
X5606Y69992D3*
X4740D3*
D98*
X38976Y56469D3*
X38386D3*
D96*
X28043Y60567D3*
D94*
X29043D3*
D96*
X34043Y90567D3*
D94*
Y89567D3*
Y88567D3*
Y87567D3*
Y86567D3*
Y85567D3*
Y84567D3*
Y83567D3*
D96*
X31043Y89567D3*
D94*
Y88567D3*
Y87567D3*
Y86567D3*
Y85567D3*
Y84567D3*
Y83567D3*
D96*
X13043Y79567D3*
D94*
X12043D3*
X11043D3*
X10043D3*
X9043D3*
D92*
X2654Y71075D3*
Y70819D3*
Y70563D3*
Y70307D3*
Y70051D3*
D90*
X2565Y71823D3*
Y69303D3*
D88*
X1600Y72039D3*
Y69087D3*
D86*
Y71016D3*
Y70110D3*
D96*
X34043Y71567D3*
D94*
Y70567D3*
Y69567D3*
Y68567D3*
Y67567D3*
Y66567D3*
Y65567D3*
Y64567D3*
D96*
X31043Y71567D3*
D94*
Y70567D3*
Y69567D3*
Y68567D3*
Y67567D3*
Y66567D3*
Y65567D3*
D96*
X39043Y73567D3*
D94*
X38043D3*
X39043Y72567D3*
X38043D3*
X39043Y71567D3*
X38043D3*
X39043Y70567D3*
X38043D3*
X39043Y69567D3*
X38043D3*
X39043Y68567D3*
X38043D3*
X39043Y67567D3*
X38043D3*
X39043Y66567D3*
X38043D3*
X39043Y65567D3*
X38043D3*
X39043Y64567D3*
X38043D3*
X39043Y63567D3*
X38043D3*
X39043Y62567D3*
X38043D3*
D96*
X20043Y60567D3*
D94*
X21043D3*
X22043D3*
D96*
X42043Y69567D3*
D94*
X41043D3*
X42043Y70567D3*
X41043D3*
X42043Y71567D3*
X41043D3*
X42043Y72567D3*
X41043D3*
X42043Y73567D3*
X41043D3*
D96*
X24043Y60567D3*
D94*
X25043D3*
X26043D3*
D96*
X42043Y62567D3*
D94*
X41043D3*
X42043Y63567D3*
X41043D3*
X42043Y64567D3*
X41043D3*
X42043Y65567D3*
X41043D3*
X42043Y66567D3*
X41043D3*
D96*
X14043Y59567D3*
D94*
X15043D3*
X16043D3*
X17043D3*
X18043D3*
X19043D3*
X20043D3*
X21043D3*
X22043D3*
X23043D3*
X24043D3*
X25043D3*
X26043D3*
X27043D3*
X28043D3*
D96*
X16043Y60567D3*
D94*
X17043D3*
X18043D3*
D96*
X47697Y56665D3*
D94*
Y55665D3*
Y54665D3*
Y53665D3*
D84*
X31437Y58445D3*
X32185D3*
X31811Y59350D3*
D108*
X25669Y54823D3*
Y55335D3*
D106*
X25394Y53346D3*
X24882D3*
D108*
X20598Y55409D3*
Y54898D3*
D106*
X23579Y83197D3*
X23067D3*
X5776Y83138D3*
X5264D3*
X23559Y76161D3*
X23047D3*
X23563Y69063D3*
X23051D3*
X14579Y89043D3*
X14067D3*
X22272Y53343D3*
X22783D3*
X41232Y92161D3*
X41744D3*
X26220Y74087D3*
X25709D3*
Y74598D3*
X26220D3*
X20646Y86563D3*
X20134D3*
D108*
X13736Y74618D3*
Y74106D3*
D106*
X41222Y91547D3*
X41734D3*
X17709Y73193D3*
X18220D3*
X16396Y53268D3*
X15884D3*
D108*
X13343Y74618D3*
Y74106D3*
X12752D3*
Y74618D3*
D106*
X39461Y91531D3*
X39972D3*
X41232Y91059D3*
X41744D3*
X20626Y88118D3*
X20114D3*
X20154Y85067D3*
X20665D3*
X26240Y73555D3*
X25728D3*
X17713Y72709D3*
X18224D3*
X40091Y90567D3*
X40602D3*
X41232D3*
X41744D3*
X20094Y89220D3*
X20606D3*
D108*
X12358Y74106D3*
Y74618D3*
D106*
X26240Y73043D3*
X25728D3*
D82*
X24425Y91406D3*
D80*
X23425D3*
X22425D3*
D106*
X26669Y84969D3*
X26157D3*
D108*
X21354Y89220D3*
Y88709D3*
D106*
X25728Y72079D3*
X26240D3*
D108*
X10254Y55000D3*
Y54488D3*
X11630Y74618D3*
Y74106D3*
D106*
X14563Y70425D3*
X15075D3*
X39258Y88244D3*
X39770D3*
X26157Y86543D3*
X26669D3*
X25728Y71547D3*
X26240D3*
X11770Y53248D3*
X12282D3*
X26157Y89142D3*
X26669D3*
D108*
X39205Y89366D3*
Y88854D3*
D106*
X26157Y88059D3*
X26669D3*
Y85559D3*
X26157D3*
X40937Y81358D3*
X41449D3*
X11311Y87055D3*
X11823D3*
Y87685D3*
X11311D3*
X8884Y53465D3*
X8372D3*
X2764Y86524D3*
X2252D3*
X26299Y67094D3*
X25787D3*
Y67587D3*
X26299D3*
D108*
X13547Y64787D3*
Y65299D3*
D106*
X8583Y71280D3*
X8071D3*
X9654Y56815D3*
X9142D3*
X8583Y70925D3*
X8071D3*
X40937Y80768D3*
X41449D3*
D108*
X12516Y64795D3*
Y65307D3*
D106*
X2783Y88118D3*
X2272D3*
Y85087D3*
X2783D3*
X39028Y80748D3*
X39539D3*
X40937Y80197D3*
X41449D3*
X2311Y89181D3*
X2823D3*
X26299Y66563D3*
X25787D3*
D108*
X2368Y55039D3*
Y54528D3*
D106*
X39756Y79567D3*
X40268D3*
X40957D3*
X41469D3*
X26299Y66031D3*
X25787D3*
X4022Y53465D3*
X4534D3*
D82*
X6642Y91484D3*
D80*
X5642D3*
X4642D3*
D106*
X8669Y85067D3*
X8157D3*
D108*
X3453Y89122D3*
Y88610D3*
D106*
X25768Y65067D3*
X26280D3*
D108*
X9957Y64717D3*
Y65228D3*
D106*
X8059Y89240D3*
X8571D3*
X8138Y86563D3*
X8650D3*
X39146Y77264D3*
X39657D3*
D108*
X8933Y64717D3*
Y65228D3*
D106*
X25787Y64555D3*
X26299D3*
X8079Y88118D3*
X8591D3*
X8669Y85559D3*
X8157D3*
D108*
X39126Y78602D3*
Y78091D3*
X9917Y74618D3*
Y74106D3*
D106*
X33524Y58425D3*
X33012D3*
D108*
X12083Y64795D3*
Y65307D3*
D106*
X5961Y70425D3*
X6472D3*
X33484Y59331D3*
X32972D3*
X33465Y60157D3*
X32953D3*
X11823Y84575D3*
X11311D3*
Y85067D3*
X11823D3*
X31634Y57756D3*
X32146D3*
X17650Y88315D3*
X17138D3*
X17650Y86543D3*
X17138D3*
Y88807D3*
X17650D3*
Y83728D3*
X17138D3*
X17650Y85618D3*
X17138D3*
Y83098D3*
X17650D3*
X4012Y71193D3*
X3500D3*
X4031Y69205D3*
X3520D3*
X38504Y54835D3*
X39016D3*
X38504Y53772D3*
X39016D3*
X43937Y57217D3*
X43425D3*
X37756Y55780D3*
X37244D3*
X37736Y55209D3*
X37224D3*
X37736Y53378D3*
X37224D3*
X38484Y54343D3*
X38996D3*
X37244Y56488D3*
X37756D3*
X36713Y58209D3*
X37224D3*
X38976Y58858D3*
X39488D3*
D78*
X45335Y55819D3*
X46437D3*
X45335Y54500D3*
X46437D3*
D106*
X39980Y52906D3*
X40492D3*
X41575D3*
X41063D3*
D38*
X20114Y87606D3*
D76*
Y86051D3*
D38*
X20685Y84575D3*
D76*
X13736Y76449D3*
X40602Y91531D3*
X18815Y73181D3*
X13343Y76449D3*
X12929D3*
X18815Y72709D3*
X12378Y76449D3*
D38*
X18047Y72197D3*
X23421Y89614D3*
D76*
X18047Y71744D3*
Y71252D3*
X11965Y76449D3*
D38*
X18047Y70780D3*
X26689Y87567D3*
D76*
X18047Y70307D3*
X26689Y86071D3*
D38*
Y84417D3*
D76*
X11531Y76449D3*
X11098D3*
X10626D3*
X18071Y68740D3*
D38*
X10173Y76449D3*
D76*
X18071Y69252D3*
D38*
X9701Y76449D3*
X18067Y68024D3*
X9228Y76449D3*
D76*
X6453Y73024D3*
D38*
X2232Y87547D3*
D76*
X6453Y72571D3*
D38*
Y72138D3*
X14031Y65346D3*
D76*
X2232Y86012D3*
D38*
X6453Y71685D3*
X2843Y84555D3*
D76*
X13539Y64244D3*
D38*
X13055Y65343D3*
D76*
X40248Y80768D3*
D38*
X5677Y89122D3*
D76*
X6492Y69559D3*
Y69067D3*
D38*
Y68555D3*
X8630Y87567D3*
X6492Y68063D3*
D76*
X8709Y86091D3*
D38*
X8118Y84575D3*
X9461Y65264D3*
X6492Y67571D3*
D76*
X8933Y64165D3*
D38*
X6492Y67079D3*
X8402Y65268D3*
D76*
X6492Y66606D3*
X11280Y89272D3*
D74*
X22087Y54744D3*
X22992D3*
X23898D3*
D72*
X22992Y57028D3*
D70*
X13043Y71567D3*
X12886D3*
X12728D3*
X12571D3*
X12413D3*
X12256D3*
X12098D3*
X11941D3*
X11783D3*
X11626D3*
X11469D3*
X11311D3*
X11154D3*
X10996D3*
X10839D3*
X10681D3*
X10524D3*
D68*
X10250Y71289D3*
Y71132D3*
Y70974D3*
Y70817D3*
Y70659D3*
Y70502D3*
Y70344D3*
Y70187D3*
Y70030D3*
Y69872D3*
Y69715D3*
Y69557D3*
Y69400D3*
Y69242D3*
Y69085D3*
Y68927D3*
Y68770D3*
D70*
X10528Y68496D3*
X10685D3*
X10843D3*
X11000D3*
X11157D3*
X11315D3*
X11472D3*
X11630D3*
X11787D3*
X11945D3*
X12102D3*
X12260D3*
X12417D3*
X12575D3*
X12732D3*
X12890D3*
X13047D3*
D68*
X13321Y68774D3*
Y68931D3*
Y69089D3*
Y69246D3*
Y69404D3*
Y69561D3*
Y69719D3*
Y69876D3*
Y70033D3*
Y70191D3*
Y70348D3*
Y70506D3*
Y70663D3*
Y70821D3*
Y70978D3*
Y71136D3*
Y71293D3*
D66*
X11785Y70031D3*
D64*
X22280Y87567D3*
Y87067D3*
Y86567D3*
Y86067D3*
Y85567D3*
Y85067D3*
Y84567D3*
X24406D3*
Y85067D3*
Y85567D3*
Y86067D3*
Y86567D3*
Y87067D3*
Y87567D3*
X22240Y74567D3*
Y74067D3*
Y73567D3*
Y73067D3*
Y72567D3*
Y72067D3*
Y71567D3*
X24366D3*
Y72067D3*
Y72567D3*
Y73067D3*
Y73567D3*
Y74067D3*
Y74567D3*
D62*
X43043Y90567D3*
Y90185D3*
Y89803D3*
Y89421D3*
Y89039D3*
Y88657D3*
Y88276D3*
Y87894D3*
Y87512D3*
D60*
X46370Y89039D3*
D74*
X11850Y54508D3*
X12756D3*
X13661D3*
D72*
X12756Y56791D3*
D64*
X13280Y87567D3*
Y87067D3*
Y86567D3*
Y86067D3*
Y85567D3*
Y85067D3*
Y84567D3*
X15406D3*
Y85067D3*
Y85567D3*
Y86067D3*
Y86567D3*
Y87067D3*
Y87567D3*
X4398D3*
Y87067D3*
Y86567D3*
Y86067D3*
Y85567D3*
Y85067D3*
Y84567D3*
X6524D3*
Y85067D3*
Y85567D3*
Y86067D3*
Y86567D3*
Y87067D3*
Y87567D3*
D74*
X4031Y54508D3*
X4937D3*
X5843D3*
D72*
X4937Y56791D3*
D64*
X22240Y67567D3*
Y67067D3*
Y66567D3*
Y66067D3*
Y65567D3*
Y65067D3*
Y64567D3*
X24366D3*
Y65067D3*
Y65567D3*
Y66067D3*
Y66567D3*
Y67067D3*
Y67567D3*
D62*
X43043Y79567D3*
Y79185D3*
Y78803D3*
Y78421D3*
Y78039D3*
Y77657D3*
Y77276D3*
Y76894D3*
Y76512D3*
D60*
X46370Y78039D3*
D58*
X41043Y56567D3*
Y56311D3*
Y56055D3*
Y55799D3*
Y55543D3*
Y55287D3*
Y55031D3*
Y54776D3*
Y54520D3*
Y54264D3*
Y54008D3*
Y53752D3*
X43327D3*
Y54008D3*
Y54264D3*
Y54520D3*
Y54776D3*
Y55031D3*
Y55287D3*
Y55543D3*
Y55799D3*
Y56055D3*
Y56311D3*
Y56567D3*
D56*
X42185Y55159D3*
D106*
X38465Y53051D3*
X38976D3*
X37756Y50846D3*
X37244D3*
X37756Y51339D3*
X37244D3*
X7362Y68858D3*
X7874D3*
X7362Y68327D3*
X7874D3*
D110*
X24969Y6354D3*
Y7024D3*
D108*
X21209Y6492D3*
Y7004D3*
D106*
X23067Y35343D3*
X23579D3*
X5244Y35303D3*
X5756D3*
X23067Y27185D3*
X23579D3*
X23071Y20126D3*
X23583D3*
X14067Y40126D3*
X14579D3*
D110*
X24969Y8657D3*
Y7988D3*
D106*
X26220Y26724D3*
X25709D3*
X20134Y38669D3*
X20646D3*
X14563Y23240D3*
X15075D3*
X20114Y40264D3*
X20626D3*
D110*
X14880Y6102D3*
Y6772D3*
D106*
X26669Y38689D3*
X26157D3*
D104*
X41449Y40449D3*
X40780D3*
D110*
X14860Y8386D3*
Y7717D3*
D106*
X15547Y22020D3*
X16059D3*
D108*
X11634Y24291D3*
Y24803D3*
D106*
X14563Y21547D3*
X15075D3*
D108*
X10864Y6102D3*
Y6614D3*
D104*
X41449Y39346D3*
X40780D3*
D106*
X14563Y21075D3*
X15075D3*
X26240Y22571D3*
X25728D3*
X26669Y40185D3*
X26157D3*
X14583Y20189D3*
X15094D3*
X11291Y39831D3*
X11803D3*
D108*
X9921Y24280D3*
Y24791D3*
D106*
X14583Y19815D3*
X15094D3*
D108*
X13579Y18988D3*
Y18476D3*
D106*
X2252Y38669D3*
X2764D3*
X26299Y19673D3*
X25787D3*
D108*
X13165Y18988D3*
Y18476D3*
X13047Y16390D3*
Y15878D3*
D106*
X9130Y22020D3*
X8618D3*
D110*
X6896Y6122D3*
Y6791D3*
D106*
X2272Y40224D3*
X2783D3*
D108*
X12083Y19008D3*
Y18496D3*
D106*
X9130Y21547D3*
X8618D3*
D110*
X6896Y8386D3*
Y7717D3*
D108*
X11531Y19008D3*
Y18496D3*
X2959Y6102D3*
Y6614D3*
X11591Y17335D3*
Y16823D3*
D106*
X8650Y38669D3*
X8138D3*
D108*
X10390Y17335D3*
Y16823D3*
X9445Y16311D3*
Y15799D3*
D106*
X9130Y20465D3*
X8618D3*
D104*
X41291Y29429D3*
X40622D3*
X41291Y28386D3*
X40622D3*
D108*
X10114Y19382D3*
Y18870D3*
D106*
X26319Y15618D3*
X25807D3*
X8591Y40323D3*
X8079D3*
X33524Y9370D3*
X33012D3*
X16059Y21547D3*
X15547D3*
X7535Y22020D3*
X8047D3*
D108*
X12083Y17453D3*
Y17965D3*
D106*
X7535Y21547D3*
X8047D3*
X16059Y21075D3*
X15547D3*
X11843Y37173D3*
X11331D3*
X17669Y38669D3*
X17157D3*
X17650Y36602D3*
X17138D3*
X4031Y21587D3*
X3520D3*
X45197Y8024D3*
X45709D3*
X45197Y5445D3*
X45709D3*
D110*
X43917Y10465D3*
Y9795D3*
X43209Y10465D3*
Y9795D3*
X42480Y10465D3*
Y9795D3*
X41752Y10465D3*
Y9795D3*
D108*
X40079Y7748D3*
Y8260D3*
D106*
X41083Y8752D3*
X40571D3*
X37244Y9126D3*
X37756D3*
D102*
X24114Y4941D3*
X23248D3*
D100*
X21492Y35106D3*
Y33768D3*
D102*
X14467Y4843D3*
X15333D3*
X13620D3*
X12754D3*
D100*
X25370Y35126D3*
Y33787D3*
X3709Y35224D3*
Y33886D3*
D102*
X6915Y5059D3*
X7782D3*
X5971Y5039D3*
X5104D3*
D100*
X7370Y35283D3*
Y33945D3*
D98*
X31772Y11752D3*
X32362D3*
D102*
X17846Y39319D3*
X16980D3*
X17866Y35992D3*
X17000D3*
X5606Y21587D3*
X4740D3*
D98*
X38976Y8063D3*
X38386D3*
D96*
X28043Y12161D3*
D94*
X29043D3*
D96*
X34043Y42161D3*
D94*
Y41161D3*
Y40161D3*
Y39161D3*
Y38161D3*
Y37161D3*
Y36161D3*
Y35161D3*
D96*
X31043Y41161D3*
D94*
Y40161D3*
Y39161D3*
Y38161D3*
Y37161D3*
Y36161D3*
Y35161D3*
D96*
X13043Y31161D3*
D94*
X12043D3*
X11043D3*
X10043D3*
X9043D3*
D92*
X2654Y22669D3*
Y22413D3*
Y22157D3*
Y21902D3*
Y21646D3*
D90*
X2565Y23417D3*
Y20898D3*
D88*
X1600Y23634D3*
Y20681D3*
D86*
Y22610D3*
Y21705D3*
D96*
X34043Y23161D3*
D94*
Y22161D3*
Y21161D3*
Y20161D3*
Y19161D3*
Y18161D3*
Y17161D3*
Y16161D3*
D96*
X31043Y23161D3*
D94*
Y22161D3*
Y21161D3*
Y20161D3*
Y19161D3*
Y18161D3*
Y17161D3*
D96*
X39043Y25161D3*
D94*
X38043D3*
X39043Y24161D3*
X38043D3*
X39043Y23161D3*
X38043D3*
X39043Y22161D3*
X38043D3*
X39043Y21161D3*
X38043D3*
X39043Y20161D3*
X38043D3*
X39043Y19161D3*
X38043D3*
X39043Y18161D3*
X38043D3*
X39043Y17161D3*
X38043D3*
X39043Y16161D3*
X38043D3*
X39043Y15161D3*
X38043D3*
X39043Y14161D3*
X38043D3*
D96*
X20043Y12161D3*
D94*
X21043D3*
X22043D3*
D96*
X42043Y21161D3*
D94*
X41043D3*
X42043Y22161D3*
X41043D3*
X42043Y23161D3*
X41043D3*
X42043Y24161D3*
X41043D3*
X42043Y25161D3*
X41043D3*
D96*
X24043Y12161D3*
D94*
X25043D3*
X26043D3*
D96*
X42043Y14161D3*
D94*
X41043D3*
X42043Y15161D3*
X41043D3*
X42043Y16161D3*
X41043D3*
X42043Y17161D3*
X41043D3*
X42043Y18161D3*
X41043D3*
D96*
X14043Y11161D3*
D94*
X15043D3*
X16043D3*
X17043D3*
X18043D3*
X19043D3*
X20043D3*
X21043D3*
X22043D3*
X23043D3*
X24043D3*
X25043D3*
X26043D3*
X27043D3*
X28043D3*
D96*
X16043Y12161D3*
D94*
X17043D3*
X18043D3*
D96*
X47697Y8260D3*
D94*
Y7260D3*
Y6260D3*
Y5260D3*
D84*
X31437Y10039D3*
X32185D3*
X31811Y10945D3*
D108*
X25669Y6417D3*
Y6929D3*
D106*
X25394Y4941D3*
X24882D3*
D108*
X20598Y7004D3*
Y6492D3*
D106*
X23579Y34791D3*
X23067D3*
X5776Y34732D3*
X5264D3*
X23559Y27756D3*
X23047D3*
X23563Y20657D3*
X23051D3*
X14579Y40638D3*
X14067D3*
X22272Y4937D3*
X22783D3*
X41232Y43756D3*
X41744D3*
X26220Y25681D3*
X25709D3*
Y26193D3*
X26220D3*
X20646Y38157D3*
X20134D3*
D108*
X13736Y26213D3*
Y25701D3*
D106*
X41222Y43142D3*
X41734D3*
X17709Y24787D3*
X18220D3*
X16396Y4862D3*
X15884D3*
D108*
X13343Y26213D3*
Y25701D3*
X12752D3*
Y26213D3*
D106*
X39461Y43126D3*
X39972D3*
X41232Y42654D3*
X41744D3*
X20626Y39713D3*
X20114D3*
X20154Y36661D3*
X20665D3*
X26240Y25150D3*
X25728D3*
X17713Y24303D3*
X18224D3*
X40091Y42161D3*
X40602D3*
X41232D3*
X41744D3*
X20094Y40815D3*
X20606D3*
D108*
X12358Y25701D3*
Y26213D3*
D106*
X26240Y24638D3*
X25728D3*
D82*
X24425Y43000D3*
D80*
X23425D3*
X22425D3*
D106*
X26669Y36563D3*
X26157D3*
D108*
X21354Y40815D3*
Y40303D3*
D106*
X25728Y23673D3*
X26240D3*
D108*
X10254Y6594D3*
Y6083D3*
X11630Y26213D3*
Y25701D3*
D106*
X14563Y22020D3*
X15075D3*
X39258Y39839D3*
X39770D3*
X26157Y38138D3*
X26669D3*
X25728Y23142D3*
X26240D3*
X11770Y4843D3*
X12282D3*
X26157Y40736D3*
X26669D3*
D108*
X39205Y40961D3*
Y40449D3*
D106*
X26157Y39654D3*
X26669D3*
Y37154D3*
X26157D3*
X40937Y32953D3*
X41449D3*
X11311Y38650D3*
X11823D3*
Y39280D3*
X11311D3*
X8884Y5059D3*
X8372D3*
X2764Y38118D3*
X2252D3*
X26299Y18689D3*
X25787D3*
Y19181D3*
X26299D3*
D108*
X13547Y16382D3*
Y16894D3*
D106*
X8583Y22874D3*
X8071D3*
X9654Y8409D3*
X9142D3*
X8583Y22520D3*
X8071D3*
X40937Y32362D3*
X41449D3*
D108*
X12516Y16390D3*
Y16902D3*
D106*
X2783Y39713D3*
X2272D3*
Y36681D3*
X2783D3*
X39028Y32343D3*
X39539D3*
X40937Y31791D3*
X41449D3*
X2311Y40776D3*
X2823D3*
X26299Y18157D3*
X25787D3*
D108*
X2368Y6634D3*
Y6122D3*
D106*
X39756Y31161D3*
X40268D3*
X40957D3*
X41469D3*
X26299Y17626D3*
X25787D3*
X4022Y5059D3*
X4534D3*
D82*
X6642Y43079D3*
D80*
X5642D3*
X4642D3*
D106*
X8669Y36661D3*
X8157D3*
D108*
X3453Y40717D3*
Y40205D3*
D106*
X25768Y16661D3*
X26280D3*
D108*
X9957Y16311D3*
Y16823D3*
D106*
X8059Y40835D3*
X8571D3*
X8138Y38157D3*
X8650D3*
X39146Y28858D3*
X39657D3*
D108*
X8933Y16311D3*
Y16823D3*
D106*
X25787Y16150D3*
X26299D3*
X8079Y39713D3*
X8591D3*
X8669Y37154D3*
X8157D3*
D108*
X39126Y30197D3*
Y29685D3*
X9917Y26213D3*
Y25701D3*
D106*
X33524Y10020D3*
X33012D3*
D108*
X12083Y16390D3*
Y16902D3*
D106*
X5961Y22020D3*
X6472D3*
X33484Y10925D3*
X32972D3*
X33465Y11752D3*
X32953D3*
X11823Y36169D3*
X11311D3*
Y36661D3*
X11823D3*
X31634Y9350D3*
X32146D3*
X17650Y39909D3*
X17138D3*
X17650Y38138D3*
X17138D3*
Y40402D3*
X17650D3*
Y35323D3*
X17138D3*
X17650Y37213D3*
X17138D3*
Y34693D3*
X17650D3*
X4012Y22787D3*
X3500D3*
X4031Y20799D3*
X3520D3*
X38504Y6429D3*
X39016D3*
X38504Y5366D3*
X39016D3*
X43937Y8811D3*
X43425D3*
X37756Y7374D3*
X37244D3*
X37736Y6803D3*
X37224D3*
X37736Y4972D3*
X37224D3*
X38484Y5937D3*
X38996D3*
X37244Y8083D3*
X37756D3*
X36713Y9803D3*
X37224D3*
X38976Y10453D3*
X39488D3*
D78*
X45335Y7413D3*
X46437D3*
X45335Y6094D3*
X46437D3*
D106*
X39980Y4500D3*
X40492D3*
X41575D3*
X41063D3*
D38*
X20114Y39201D3*
D76*
Y37646D3*
D38*
X20685Y36169D3*
D76*
X13736Y28043D3*
X40602Y43126D3*
X18815Y24776D3*
X13343Y28043D3*
X12929D3*
X18815Y24303D3*
X12378Y28043D3*
D38*
X18047Y23791D3*
X23421Y41209D3*
D76*
X18047Y23339D3*
Y22846D3*
X11965Y28043D3*
D38*
X18047Y22374D3*
X26689Y39161D3*
D76*
X18047Y21902D3*
X26689Y37665D3*
D38*
Y36012D3*
D76*
X11531Y28043D3*
X11098D3*
X10626D3*
X18071Y20335D3*
D38*
X10173Y28043D3*
D76*
X18071Y20846D3*
D38*
X9701Y28043D3*
X18067Y19618D3*
X9228Y28043D3*
D76*
X6453Y24618D3*
D38*
X2232Y39142D3*
D76*
X6453Y24165D3*
D38*
Y23732D3*
X14031Y16941D3*
D76*
X2232Y37606D3*
D38*
X6453Y23280D3*
X2843Y36150D3*
D76*
X13539Y15839D3*
D38*
X13055Y16937D3*
D76*
X40248Y32362D3*
D38*
X5677Y40717D3*
D76*
X6492Y21154D3*
Y20661D3*
D38*
Y20150D3*
X8630Y39161D3*
X6492Y19657D3*
D76*
X8709Y37685D3*
D38*
X8118Y36169D3*
X9461Y16858D3*
X6492Y19165D3*
D76*
X8933Y15760D3*
D38*
X6492Y18673D3*
X8402Y16862D3*
D76*
X6492Y18201D3*
X11280Y40866D3*
D74*
X22087Y6339D3*
X22992D3*
X23898D3*
D72*
X22992Y8622D3*
D70*
X13043Y23161D3*
X12886D3*
X12728D3*
X12571D3*
X12413D3*
X12256D3*
X12098D3*
X11941D3*
X11783D3*
X11626D3*
X11469D3*
X11311D3*
X11154D3*
X10996D3*
X10839D3*
X10681D3*
X10524D3*
D68*
X10250Y22884D3*
Y22726D3*
Y22569D3*
Y22411D3*
Y22254D3*
Y22096D3*
Y21939D3*
Y21781D3*
Y21624D3*
Y21467D3*
Y21309D3*
Y21152D3*
Y20994D3*
Y20837D3*
Y20679D3*
Y20522D3*
Y20364D3*
D70*
X10528Y20091D3*
X10685D3*
X10843D3*
X11000D3*
X11157D3*
X11315D3*
X11472D3*
X11630D3*
X11787D3*
X11945D3*
X12102D3*
X12260D3*
X12417D3*
X12575D3*
X12732D3*
X12890D3*
X13047D3*
D68*
X13321Y20368D3*
Y20526D3*
Y20683D3*
Y20841D3*
Y20998D3*
Y21156D3*
Y21313D3*
Y21470D3*
Y21628D3*
Y21785D3*
Y21943D3*
Y22100D3*
Y22258D3*
Y22415D3*
Y22573D3*
Y22730D3*
Y22888D3*
D66*
X11785Y21626D3*
D64*
X22280Y39161D3*
Y38661D3*
Y38161D3*
Y37661D3*
Y37161D3*
Y36661D3*
Y36161D3*
X24406D3*
Y36661D3*
Y37161D3*
Y37661D3*
Y38161D3*
Y38661D3*
Y39161D3*
X22240Y26161D3*
Y25661D3*
Y25161D3*
Y24661D3*
Y24161D3*
Y23661D3*
Y23161D3*
X24366D3*
Y23661D3*
Y24161D3*
Y24661D3*
Y25161D3*
Y25661D3*
Y26161D3*
D62*
X43043Y42161D3*
Y41780D3*
Y41398D3*
Y41016D3*
Y40634D3*
Y40252D3*
Y39870D3*
Y39488D3*
Y39106D3*
D60*
X46370Y40634D3*
D74*
X11850Y6102D3*
X12756D3*
X13661D3*
D72*
X12756Y8386D3*
D64*
X13280Y39161D3*
Y38661D3*
Y38161D3*
Y37661D3*
Y37161D3*
Y36661D3*
Y36161D3*
X15406D3*
Y36661D3*
Y37161D3*
Y37661D3*
Y38161D3*
Y38661D3*
Y39161D3*
X4398D3*
Y38661D3*
Y38161D3*
Y37661D3*
Y37161D3*
Y36661D3*
Y36161D3*
X6524D3*
Y36661D3*
Y37161D3*
Y37661D3*
Y38161D3*
Y38661D3*
Y39161D3*
D74*
X4031Y6102D3*
X4937D3*
X5843D3*
D72*
X4937Y8386D3*
D64*
X22240Y19161D3*
Y18661D3*
Y18161D3*
Y17661D3*
Y17161D3*
Y16661D3*
Y16161D3*
X24366D3*
Y16661D3*
Y17161D3*
Y17661D3*
Y18161D3*
Y18661D3*
Y19161D3*
D62*
X43043Y31161D3*
Y30780D3*
Y30398D3*
Y30016D3*
Y29634D3*
Y29252D3*
Y28870D3*
Y28488D3*
Y28106D3*
D60*
X46370Y29634D3*
D58*
X41043Y8161D3*
Y7906D3*
Y7650D3*
Y7394D3*
Y7138D3*
Y6882D3*
Y6626D3*
Y6370D3*
Y6114D3*
Y5858D3*
Y5602D3*
Y5346D3*
X43327D3*
Y5602D3*
Y5858D3*
Y6114D3*
Y6370D3*
Y6626D3*
Y6882D3*
Y7138D3*
Y7394D3*
Y7650D3*
Y7906D3*
Y8161D3*
D56*
X42185Y6754D3*
D106*
X38465Y4646D3*
X38976D3*
X37756Y2441D3*
X37244D3*
X37756Y2933D3*
X37244D3*
X7362Y20453D3*
X7874D3*
X7362Y19921D3*
X7874D3*
M02*
