G04 DipTrace 2.4.0.2*
%INTopMask.gbr*%
%MOMM*%
%ADD39R,0.635X0.635*%
%ADD57R,2.704X4.404*%
%ADD59R,2.004X0.604*%
%ADD61R,10.504X10.704*%
%ADD63R,3.204X0.804*%
%ADD65R,2.204X0.804*%
%ADD67R,5.904X5.904*%
%ADD69O,1.054X0.404*%
%ADD71O,0.404X1.054*%
%ADD73R,3.454X2.354*%
%ADD75R,1.154X2.354*%
%ADD77R,0.839X0.839*%
%ADD79R,1.804X2.004*%
%ADD81C,1.704*%
%ADD83R,1.704X1.704*%
%ADD85R,0.854X1.254*%
%ADD87R,2.104X2.004*%
%ADD89R,1.504X2.504*%
%ADD91R,1.604X1.804*%
%ADD93R,1.554X0.604*%
%ADD95C,1.904*%
%ADD97R,1.904X1.904*%
%ADD99R,1.004X1.004*%
%ADD101R,1.804X1.004*%
%ADD103R,0.804X0.804*%
%ADD105R,1.304X1.204*%
%ADD107R,1.104X0.904*%
%ADD109R,0.904X1.104*%
%ADD111R,1.204X1.304*%
%FSLAX53Y53*%
G04*
G71*
G90*
G75*
G01*
%LNTopMask*%
%LPD*%
D111*
X64056Y110658D3*
Y112358D3*
D109*
X54506Y111008D3*
Y112308D3*
D107*
X59336Y182198D3*
X60636D3*
X14066Y182098D3*
X15366D3*
X59336Y161478D3*
X60636D3*
X59346Y143548D3*
X60646D3*
X36476Y194348D3*
X37776D3*
D111*
X64056Y116508D3*
Y114808D3*
D107*
X67346Y160308D3*
X66046D3*
X51886Y190648D3*
X53186D3*
X37736Y151458D3*
X39036D3*
X51836Y194698D3*
X53136D3*
D111*
X38571Y110618D3*
Y112318D3*
D107*
X68486Y190698D3*
X67186D3*
D105*
X106026Y195168D3*
X104326D3*
D111*
X38521Y116418D3*
Y114718D3*
D107*
X40236Y148358D3*
X41536D3*
D109*
X30296Y154128D3*
Y155428D3*
D107*
X37736Y147158D3*
X39036D3*
D109*
X28371Y110618D3*
Y111918D3*
D105*
X106026Y192368D3*
X104326D3*
D107*
X37736Y145958D3*
X39036D3*
X67396Y149758D3*
X66096D3*
X68486Y194498D3*
X67186D3*
X37786Y143708D3*
X39086D3*
X29426Y193598D3*
X30726D3*
D109*
X25946Y154098D3*
Y155398D3*
D107*
X37786Y142758D3*
X39086D3*
D109*
X35236Y140658D3*
Y139358D3*
D107*
X6466Y190648D3*
X7766D3*
X67546Y142398D3*
X66246D3*
D109*
X34186Y140658D3*
Y139358D3*
X33886Y134058D3*
Y132758D3*
D107*
X23936Y148358D3*
X22636D3*
D111*
X18291Y110668D3*
Y112368D3*
D107*
X6516Y194598D3*
X7816D3*
D109*
X31436Y140708D3*
Y139408D3*
D107*
X23936Y147158D3*
X22636D3*
D111*
X18291Y116418D3*
Y114718D3*
D109*
X30036Y140708D3*
Y139408D3*
X8291Y110618D3*
Y111918D3*
X30186Y136458D3*
Y135158D3*
D107*
X22716Y190648D3*
X21416D3*
D109*
X27136Y136458D3*
Y135158D3*
X24736Y133858D3*
Y132558D3*
D107*
X23936Y144408D3*
X22636D3*
D105*
X105626Y167178D3*
X103926D3*
X105626Y164528D3*
X103926D3*
D109*
X26436Y141658D3*
Y140358D3*
D107*
X67596Y132098D3*
X66296D3*
X22566Y194848D3*
X21266D3*
X85896Y116228D3*
X84596D3*
X41536Y147158D3*
X40236D3*
X19886Y148358D3*
X21186D3*
D109*
X31436Y136758D3*
Y138058D3*
D107*
X19886Y147158D3*
X21186D3*
X41536Y145958D3*
X40236D3*
X30826Y186848D3*
X29526D3*
X45626Y190648D3*
X44326D3*
X45576Y185398D3*
X44276D3*
X10986Y147258D3*
X9686D3*
X115546Y112808D3*
X116846D3*
X115546Y106258D3*
X116846D3*
D111*
X112296Y119008D3*
Y117308D3*
X110496Y119008D3*
Y117308D3*
X108646Y119008D3*
Y117308D3*
X106796Y119008D3*
Y117308D3*
D109*
X102546Y112108D3*
Y113408D3*
D107*
X105096Y114658D3*
X103796D3*
X95346Y115608D3*
X96646D3*
D103*
X61886Y107068D3*
X59686D3*
D101*
X55336Y181598D3*
Y178198D3*
D103*
X37521Y107418D3*
X39721D3*
X35371D3*
X33171D3*
D101*
X65186Y181648D3*
Y178248D3*
X10166Y181898D3*
Y178498D3*
D103*
X18341Y107968D3*
X20541D3*
X15941Y107918D3*
X13741D3*
D101*
X19466Y182048D3*
Y178648D3*
D99*
X81446Y122278D3*
X82946D3*
D103*
X46076Y192298D3*
X43876D3*
X46126Y183848D3*
X43926D3*
X14986Y147258D3*
X12786D3*
D99*
X99746Y112908D3*
X98246D3*
D97*
X71976Y123318D3*
D95*
X74516D3*
D97*
X87216Y199518D3*
D95*
Y196978D3*
Y194438D3*
Y191898D3*
Y189358D3*
Y186818D3*
Y184278D3*
Y181738D3*
D97*
X79596Y196978D3*
D95*
Y194438D3*
Y191898D3*
Y189358D3*
Y186818D3*
Y184278D3*
Y181738D3*
D97*
X33876Y171578D3*
D95*
X31336D3*
X28796D3*
X26256D3*
X23716D3*
D93*
X7486Y150008D3*
Y149358D3*
Y148708D3*
Y148058D3*
Y147408D3*
D91*
X7261Y151908D3*
Y145508D3*
D89*
X4811Y152458D3*
Y144958D3*
D87*
Y149858D3*
Y147558D3*
D97*
X87216Y151258D3*
D95*
Y148718D3*
Y146178D3*
Y143638D3*
Y141098D3*
Y138558D3*
Y136018D3*
Y133478D3*
D97*
X79596Y151258D3*
D95*
Y148718D3*
Y146178D3*
Y143638D3*
Y141098D3*
Y138558D3*
Y136018D3*
D97*
X99916Y156338D3*
D95*
X97376D3*
X99916Y153798D3*
X97376D3*
X99916Y151258D3*
X97376D3*
X99916Y148718D3*
X97376D3*
X99916Y146178D3*
X97376D3*
X99916Y143638D3*
X97376D3*
X99916Y141098D3*
X97376D3*
X99916Y138558D3*
X97376D3*
X99916Y136018D3*
X97376D3*
X99916Y133478D3*
X97376D3*
X99916Y130938D3*
X97376D3*
X99916Y128398D3*
X97376D3*
D97*
X51656Y123318D3*
D95*
X54196D3*
X56736D3*
D97*
X107536Y146178D3*
D95*
X104996D3*
X107536Y148718D3*
X104996D3*
X107536Y151258D3*
X104996D3*
X107536Y153798D3*
X104996D3*
X107536Y156338D3*
X104996D3*
D97*
X61816Y123318D3*
D95*
X64356D3*
X66896D3*
D97*
X107536Y128398D3*
D95*
X104996D3*
X107536Y130938D3*
X104996D3*
X107536Y133478D3*
X104996D3*
X107536Y136018D3*
X104996D3*
X107536Y138558D3*
X104996D3*
D97*
X36416Y120778D3*
D95*
X38956D3*
X41496D3*
X44036D3*
X46576D3*
X49116D3*
X51656D3*
X54196D3*
X56736D3*
X59276D3*
X61816D3*
X64356D3*
X66896D3*
X69436D3*
X71976D3*
D97*
X41496Y123318D3*
D95*
X44036D3*
X46576D3*
D97*
X121896Y113408D3*
D95*
Y110868D3*
Y108328D3*
Y105788D3*
D85*
X80596Y117928D3*
X82496D3*
X81546Y120228D3*
D109*
X65836Y110818D3*
Y112118D3*
D107*
X65136Y107068D3*
X63836D3*
D109*
X52956Y112308D3*
Y111008D3*
D107*
X60636Y180798D3*
X59336D3*
X15416Y180648D3*
X14116D3*
X60586Y162928D3*
X59286D3*
X60596Y144898D3*
X59296D3*
X37776Y195648D3*
X36476D3*
X57206Y107058D3*
X58506D3*
X105476Y203568D3*
X106776D3*
X67346Y157658D3*
X66046D3*
Y158958D3*
X67346D3*
X53186Y189348D3*
X51886D3*
D109*
X35636Y159008D3*
Y157708D3*
D107*
X105451Y202008D3*
X106751D3*
X45726Y155388D3*
X47026D3*
X42421Y107468D3*
X41121D3*
D109*
X34636Y159008D3*
Y157708D3*
X33136D3*
Y159008D3*
D107*
X100976Y201968D3*
X102276D3*
X105476Y200768D3*
X106776D3*
X53136Y193298D3*
X51836D3*
X51936Y185548D3*
X53236D3*
X67396Y156308D3*
X66096D3*
X45736Y154158D3*
X47036D3*
X102576Y199518D3*
X103876D3*
X105476D3*
X106776D3*
X51786Y196098D3*
X53086D3*
D109*
X32136Y157708D3*
Y159008D3*
D107*
X67396Y155008D3*
X66096D3*
D83*
X62786Y201648D3*
D81*
X60246D3*
X57706D3*
D107*
X68486Y185298D3*
X67186D3*
D109*
X54986Y196098D3*
Y194798D3*
D107*
X66096Y152558D3*
X67396D3*
D109*
X26821Y111868D3*
Y110568D3*
X30286Y159008D3*
Y157708D3*
D107*
X37736Y148358D3*
X39036D3*
X100461Y193618D3*
X101761D3*
X67186Y189298D3*
X68486D3*
X66096Y151208D3*
X67396D3*
X30671Y107418D3*
X31971D3*
X67186Y195898D3*
X68486D3*
D109*
X100326Y196468D3*
Y195168D3*
D107*
X67186Y193148D3*
X68486D3*
Y186798D3*
X67186D3*
X104726Y176128D3*
X106026D3*
X29476Y190598D3*
X30776D3*
Y192198D3*
X29476D3*
X23341Y107968D3*
X22041D3*
X7766Y189248D3*
X6466D3*
X67546Y139898D3*
X66246D3*
Y141148D3*
X67546D3*
D109*
X35156Y134038D3*
Y135338D3*
D107*
X23936Y150458D3*
X22636D3*
X22096Y116528D3*
X20796D3*
X23936Y149558D3*
X22636D3*
X104726Y174628D3*
X106026D3*
D109*
X32536Y134058D3*
Y135358D3*
D107*
X7816Y193298D3*
X6516D3*
Y185598D3*
X7816D3*
X99876Y174578D3*
X101176D3*
X104726Y173178D3*
X106026D3*
X6616Y195998D3*
X7916D3*
X67546Y138548D3*
X66246D3*
D109*
X6791Y111968D3*
Y110668D3*
D107*
X101726Y171578D3*
X103026D3*
X104776D3*
X106076D3*
X67546Y137198D3*
X66246D3*
X10991Y107968D3*
X12291D3*
D83*
X17616Y201848D3*
D81*
X15076D3*
X12536D3*
D107*
X22766Y185548D3*
X21466D3*
D109*
X9516Y195848D3*
Y194548D3*
D107*
X66196Y134748D3*
X67496D3*
D109*
X26036Y133858D3*
Y135158D3*
D107*
X21216Y196148D3*
X22516D3*
X21416Y189348D3*
X22716D3*
X100176Y165728D3*
X101476D3*
D109*
X23436Y133858D3*
Y135158D3*
D107*
X66246Y133448D3*
X67546D3*
X21266Y193298D3*
X22566D3*
X22766Y186798D3*
X21466D3*
D109*
X100126Y169128D3*
Y167828D3*
X25936Y159008D3*
Y157708D3*
D107*
X85896Y117878D3*
X84596D3*
D109*
X31436Y134058D3*
Y135358D3*
D107*
X15886Y148358D3*
X17186D3*
X85796Y120178D3*
X84496D3*
X85746Y122278D3*
X84446D3*
X30776Y184298D3*
X29476D3*
Y185548D3*
X30776D3*
X81096Y116178D3*
X82396D3*
X45576Y193798D3*
X44276D3*
X45576Y189298D3*
X44276D3*
Y195048D3*
X45576D3*
Y182148D3*
X44276D3*
X45576Y186948D3*
X44276D3*
Y180548D3*
X45576D3*
X10936Y150308D3*
X9636D3*
X10986Y145258D3*
X9686D3*
X98546Y108758D3*
X99846D3*
X98546Y106058D3*
X99846D3*
X112346Y114808D3*
X111046D3*
X96646Y111158D3*
X95346D3*
X96596Y109708D3*
X95296D3*
X96596Y105058D3*
X95296D3*
X98496Y107508D3*
X99796D3*
X95346Y112958D3*
X96646D3*
X93996Y117328D3*
X95296D3*
X99746Y118978D3*
X101046D3*
D79*
X115896Y111258D3*
X118696D3*
X115896Y107908D3*
X118696D3*
D107*
X102296Y103858D3*
X103596D3*
X106346D3*
X105046D3*
D39*
X51836Y191998D3*
D77*
Y188048D3*
D39*
X53286Y184298D3*
D77*
X35636Y163658D3*
X103876Y201968D3*
X48536Y155358D3*
X34636Y163658D3*
X33586D3*
X48536Y154158D3*
X32186Y163658D3*
D39*
X46586Y152858D3*
X60236Y197098D3*
D77*
X46586Y151708D3*
Y150458D3*
X31136Y163658D3*
D39*
X46586Y149258D3*
X68536Y191898D3*
D77*
X46586Y148058D3*
X68536Y188098D3*
D39*
Y183898D3*
D77*
X30036Y163658D3*
X28936D3*
X27736D3*
X46646Y144078D3*
D39*
X26586Y163658D3*
D77*
X46646Y145378D3*
D39*
X25386Y163658D3*
X46636Y142258D3*
X24186Y163658D3*
D77*
X17136Y154958D3*
D39*
X6416Y191848D3*
D77*
X17136Y153808D3*
D39*
Y152708D3*
X36386Y135458D3*
D77*
X6416Y187948D3*
D39*
X17136Y151558D3*
X7966Y184248D3*
D77*
X35136Y132658D3*
D39*
X33906Y135448D3*
D77*
X102976Y174628D3*
D39*
X15166Y195848D3*
D77*
X17236Y146158D3*
Y144908D3*
D39*
Y143608D3*
X22666Y191898D3*
X17236Y142358D3*
D77*
X22866Y188148D3*
D39*
X21366Y184298D3*
X24776Y135248D3*
X17236Y141108D3*
D77*
X23436Y132458D3*
D39*
X17236Y139858D3*
X22086Y135258D3*
D77*
X17236Y138658D3*
X29396Y196228D3*
D75*
X56736Y110618D3*
X59036D3*
X61336D3*
D73*
X59036Y116418D3*
D71*
X33876Y151258D3*
X33476D3*
X33076D3*
X32676D3*
X32276D3*
X31876D3*
X31476D3*
X31076D3*
X30676D3*
X30276D3*
X29876D3*
X29476D3*
X29076D3*
X28676D3*
X28276D3*
X27876D3*
X27476D3*
D69*
X26781Y150553D3*
Y150153D3*
Y149753D3*
Y149353D3*
Y148953D3*
Y148553D3*
Y148153D3*
Y147753D3*
Y147353D3*
Y146953D3*
Y146553D3*
Y146153D3*
Y145753D3*
Y145353D3*
Y144953D3*
Y144553D3*
Y144153D3*
D71*
X27486Y143458D3*
X27886D3*
X28286D3*
X28686D3*
X29086D3*
X29486D3*
X29886D3*
X30286D3*
X30686D3*
X31086D3*
X31486D3*
X31886D3*
X32286D3*
X32686D3*
X33086D3*
X33486D3*
X33886D3*
D69*
X34581Y144163D3*
Y144563D3*
Y144963D3*
Y145363D3*
Y145763D3*
Y146163D3*
Y146563D3*
Y146963D3*
Y147363D3*
Y147763D3*
Y148163D3*
Y148563D3*
Y148963D3*
Y149363D3*
Y149763D3*
Y150163D3*
Y150563D3*
D67*
X30681Y147358D3*
D65*
X57336Y191898D3*
Y190628D3*
Y189358D3*
Y188088D3*
Y186818D3*
Y185548D3*
Y184278D3*
X62736D3*
Y185548D3*
Y186818D3*
Y188088D3*
Y189358D3*
Y190628D3*
Y191898D3*
X57236Y158878D3*
Y157608D3*
Y156338D3*
Y155068D3*
Y153798D3*
Y152528D3*
Y151258D3*
X62636D3*
Y152528D3*
Y153798D3*
Y155068D3*
Y156338D3*
Y157608D3*
Y158878D3*
D63*
X110076Y199518D3*
Y198548D3*
Y197578D3*
Y196608D3*
Y195638D3*
Y194668D3*
Y193698D3*
Y192728D3*
Y191758D3*
D61*
X118526Y195638D3*
D75*
X30876Y110618D3*
X33176D3*
X35476D3*
D73*
X33176Y116418D3*
D65*
X34476Y191898D3*
Y190628D3*
Y189358D3*
Y188088D3*
Y186818D3*
Y185548D3*
Y184278D3*
X39876D3*
Y185548D3*
Y186818D3*
Y188088D3*
Y189358D3*
Y190628D3*
Y191898D3*
X11916D3*
Y190628D3*
Y189358D3*
Y188088D3*
Y186818D3*
Y185548D3*
Y184278D3*
X17316D3*
Y185548D3*
Y186818D3*
Y188088D3*
Y189358D3*
Y190628D3*
Y191898D3*
D75*
X11016Y110618D3*
X13316D3*
X15616D3*
D73*
X13316Y116418D3*
D65*
X57236Y141098D3*
Y139828D3*
Y138558D3*
Y137288D3*
Y136018D3*
Y134748D3*
Y133478D3*
X62636D3*
Y134748D3*
Y136018D3*
Y137288D3*
Y138558D3*
Y139828D3*
Y141098D3*
D63*
X110076Y171578D3*
Y170608D3*
Y169638D3*
Y168668D3*
Y167698D3*
Y166728D3*
Y165758D3*
Y164788D3*
Y163818D3*
D61*
X118526Y167698D3*
D59*
X104996Y113158D3*
Y112508D3*
Y111858D3*
Y111208D3*
Y110558D3*
Y109908D3*
Y109258D3*
Y108608D3*
Y107958D3*
Y107308D3*
Y106658D3*
Y106008D3*
X110796D3*
Y106658D3*
Y107308D3*
Y107958D3*
Y108608D3*
Y109258D3*
Y109908D3*
Y110558D3*
Y111208D3*
Y111858D3*
Y112508D3*
Y113158D3*
D57*
X107896Y109583D3*
D107*
X98446Y104228D3*
X99746D3*
X96846Y99378D3*
X95546D3*
X96846Y101228D3*
X95546D3*
X19446Y144378D3*
X20746D3*
X19446Y143028D3*
X20746D3*
D111*
X63993Y-13453D3*
Y-11753D3*
D109*
X54443Y-13103D3*
Y-11803D3*
D107*
X59273Y58087D3*
X60573D3*
X14003Y57987D3*
X15303D3*
X59273Y37367D3*
X60573D3*
X59283Y19437D3*
X60583D3*
X36413Y70237D3*
X37713D3*
D111*
X63993Y-7603D3*
Y-9303D3*
D107*
X67283Y36197D3*
X65983D3*
X51823Y66537D3*
X53123D3*
X37673Y27347D3*
X38973D3*
X51773Y70587D3*
X53073D3*
D111*
X38509Y-13493D3*
Y-11793D3*
D107*
X68423Y66587D3*
X67123D3*
D105*
X105963Y71057D3*
X104263D3*
D111*
X38459Y-7693D3*
Y-9393D3*
D107*
X40173Y24247D3*
X41473D3*
D109*
X30233Y30017D3*
Y31317D3*
D107*
X37673Y23047D3*
X38973D3*
D109*
X28309Y-13493D3*
Y-12193D3*
D105*
X105963Y68257D3*
X104263D3*
D107*
X37673Y21847D3*
X38973D3*
X67333Y25647D3*
X66033D3*
X68423Y70387D3*
X67123D3*
X37723Y19597D3*
X39023D3*
X29363Y69487D3*
X30663D3*
D109*
X25883Y29987D3*
Y31287D3*
D107*
X37723Y18647D3*
X39023D3*
D109*
X35173Y16547D3*
Y15247D3*
D107*
X6403Y66537D3*
X7703D3*
X67483Y18287D3*
X66183D3*
D109*
X34123Y16547D3*
Y15247D3*
X33823Y9947D3*
Y8647D3*
D107*
X23873Y24247D3*
X22573D3*
D111*
X18229Y-13443D3*
Y-11743D3*
D107*
X6453Y70487D3*
X7753D3*
D109*
X31373Y16597D3*
Y15297D3*
D107*
X23873Y23047D3*
X22573D3*
D111*
X18229Y-7693D3*
Y-9393D3*
D109*
X29973Y16597D3*
Y15297D3*
X8229Y-13493D3*
Y-12193D3*
X30123Y12347D3*
Y11047D3*
D107*
X22653Y66537D3*
X21353D3*
D109*
X27073Y12347D3*
Y11047D3*
X24673Y9747D3*
Y8447D3*
D107*
X23873Y20297D3*
X22573D3*
D105*
X105563Y43067D3*
X103863D3*
X105563Y40417D3*
X103863D3*
D109*
X26373Y17547D3*
Y16247D3*
D107*
X67533Y7987D3*
X66233D3*
X22503Y70737D3*
X21203D3*
X85833Y-7883D3*
X84533D3*
X41473Y23047D3*
X40173D3*
X19823Y24247D3*
X21123D3*
D109*
X31373Y12647D3*
Y13947D3*
D107*
X19823Y23047D3*
X21123D3*
X41473Y21847D3*
X40173D3*
X30763Y62737D3*
X29463D3*
X45563Y66537D3*
X44263D3*
X45513Y61287D3*
X44213D3*
X10923Y23147D3*
X9623D3*
X115483Y-11303D3*
X116783D3*
X115483Y-17853D3*
X116783D3*
D111*
X112233Y-5103D3*
Y-6803D3*
X110433Y-5103D3*
Y-6803D3*
X108583Y-5103D3*
Y-6803D3*
X106733Y-5103D3*
Y-6803D3*
D109*
X102483Y-12003D3*
Y-10703D3*
D107*
X105033Y-9453D3*
X103733D3*
X95283Y-8503D3*
X96583D3*
D103*
X61823Y-17043D3*
X59623D3*
D101*
X55273Y57487D3*
Y54087D3*
D103*
X37459Y-16693D3*
X39659D3*
X35309D3*
X33109D3*
D101*
X65123Y57537D3*
Y54137D3*
X10103Y57787D3*
Y54387D3*
D103*
X18279Y-16143D3*
X20479D3*
X15879Y-16193D3*
X13679D3*
D101*
X19403Y57937D3*
Y54537D3*
D99*
X81383Y-1833D3*
X82883D3*
D103*
X46013Y68187D3*
X43813D3*
X46063Y59737D3*
X43863D3*
X14923Y23147D3*
X12723D3*
D99*
X99683Y-11203D3*
X98183D3*
D97*
X71913Y-793D3*
D95*
X74453D3*
D97*
X87153Y75407D3*
D95*
Y72867D3*
Y70327D3*
Y67787D3*
Y65247D3*
Y62707D3*
Y60167D3*
Y57627D3*
D97*
X79533Y72867D3*
D95*
Y70327D3*
Y67787D3*
Y65247D3*
Y62707D3*
Y60167D3*
Y57627D3*
D97*
X33813Y47467D3*
D95*
X31273D3*
X28733D3*
X26193D3*
X23653D3*
D93*
X7423Y25897D3*
Y25247D3*
Y24597D3*
Y23947D3*
Y23297D3*
D91*
X7198Y27797D3*
Y21397D3*
D89*
X4748Y28347D3*
Y20847D3*
D87*
Y25747D3*
Y23447D3*
D97*
X87153Y27147D3*
D95*
Y24607D3*
Y22067D3*
Y19527D3*
Y16987D3*
Y14447D3*
Y11907D3*
Y9367D3*
D97*
X79533Y27147D3*
D95*
Y24607D3*
Y22067D3*
Y19527D3*
Y16987D3*
Y14447D3*
Y11907D3*
D97*
X99853Y32227D3*
D95*
X97313D3*
X99853Y29687D3*
X97313D3*
X99853Y27147D3*
X97313D3*
X99853Y24607D3*
X97313D3*
X99853Y22067D3*
X97313D3*
X99853Y19527D3*
X97313D3*
X99853Y16987D3*
X97313D3*
X99853Y14447D3*
X97313D3*
X99853Y11907D3*
X97313D3*
X99853Y9367D3*
X97313D3*
X99853Y6827D3*
X97313D3*
X99853Y4287D3*
X97313D3*
D97*
X51593Y-793D3*
D95*
X54133D3*
X56673D3*
D97*
X107473Y22067D3*
D95*
X104933D3*
X107473Y24607D3*
X104933D3*
X107473Y27147D3*
X104933D3*
X107473Y29687D3*
X104933D3*
X107473Y32227D3*
X104933D3*
D97*
X61753Y-793D3*
D95*
X64293D3*
X66833D3*
D97*
X107473Y4287D3*
D95*
X104933D3*
X107473Y6827D3*
X104933D3*
X107473Y9367D3*
X104933D3*
X107473Y11907D3*
X104933D3*
X107473Y14447D3*
X104933D3*
D97*
X36353Y-3333D3*
D95*
X38893D3*
X41433D3*
X43973D3*
X46513D3*
X49053D3*
X51593D3*
X54133D3*
X56673D3*
X59213D3*
X61753D3*
X64293D3*
X66833D3*
X69373D3*
X71913D3*
D97*
X41433Y-793D3*
D95*
X43973D3*
X46513D3*
D97*
X121833Y-10703D3*
D95*
Y-13243D3*
Y-15783D3*
Y-18323D3*
D85*
X80533Y-6183D3*
X82433D3*
X81483Y-3883D3*
D109*
X65773Y-13293D3*
Y-11993D3*
D107*
X65073Y-17043D3*
X63773D3*
D109*
X52893Y-11803D3*
Y-13103D3*
D107*
X60573Y56687D3*
X59273D3*
X15353Y56537D3*
X14053D3*
X60523Y38817D3*
X59223D3*
X60533Y20787D3*
X59233D3*
X37713Y71537D3*
X36413D3*
X57143Y-17053D3*
X58443D3*
X105413Y79457D3*
X106713D3*
X67283Y33547D3*
X65983D3*
Y34847D3*
X67283D3*
X53123Y65237D3*
X51823D3*
D109*
X35573Y34897D3*
Y33597D3*
D107*
X105388Y77897D3*
X106688D3*
X45663Y31277D3*
X46963D3*
X42359Y-16643D3*
X41059D3*
D109*
X34573Y34897D3*
Y33597D3*
X33073D3*
Y34897D3*
D107*
X100913Y77857D3*
X102213D3*
X105413Y76657D3*
X106713D3*
X53073Y69187D3*
X51773D3*
X51873Y61437D3*
X53173D3*
X67333Y32197D3*
X66033D3*
X45673Y30047D3*
X46973D3*
X102513Y75407D3*
X103813D3*
X105413D3*
X106713D3*
X51723Y71987D3*
X53023D3*
D109*
X32073Y33597D3*
Y34897D3*
D107*
X67333Y30897D3*
X66033D3*
D83*
X62723Y77537D3*
D81*
X60183D3*
X57643D3*
D107*
X68423Y61187D3*
X67123D3*
D109*
X54923Y71987D3*
Y70687D3*
D107*
X66033Y28447D3*
X67333D3*
D109*
X26759Y-12243D3*
Y-13543D3*
X30223Y34897D3*
Y33597D3*
D107*
X37673Y24247D3*
X38973D3*
X100398Y69507D3*
X101698D3*
X67123Y65187D3*
X68423D3*
X66033Y27097D3*
X67333D3*
X30609Y-16693D3*
X31909D3*
X67123Y71787D3*
X68423D3*
D109*
X100263Y72357D3*
Y71057D3*
D107*
X67123Y69037D3*
X68423D3*
Y62687D3*
X67123D3*
X104663Y52017D3*
X105963D3*
X29413Y66487D3*
X30713D3*
Y68087D3*
X29413D3*
X23279Y-16143D3*
X21979D3*
X7703Y65137D3*
X6403D3*
X67483Y15787D3*
X66183D3*
Y17037D3*
X67483D3*
D109*
X35093Y9927D3*
Y11227D3*
D107*
X23873Y26347D3*
X22573D3*
X22033Y-7583D3*
X20733D3*
X23873Y25447D3*
X22573D3*
X104663Y50517D3*
X105963D3*
D109*
X32473Y9947D3*
Y11247D3*
D107*
X7753Y69187D3*
X6453D3*
Y61487D3*
X7753D3*
X99813Y50467D3*
X101113D3*
X104663Y49067D3*
X105963D3*
X6553Y71887D3*
X7853D3*
X67483Y14437D3*
X66183D3*
D109*
X6729Y-12143D3*
Y-13443D3*
D107*
X101663Y47467D3*
X102963D3*
X104713D3*
X106013D3*
X67483Y13087D3*
X66183D3*
X10929Y-16143D3*
X12229D3*
D83*
X17553Y77737D3*
D81*
X15013D3*
X12473D3*
D107*
X22703Y61437D3*
X21403D3*
D109*
X9453Y71737D3*
Y70437D3*
D107*
X66133Y10637D3*
X67433D3*
D109*
X25973Y9747D3*
Y11047D3*
D107*
X21153Y72037D3*
X22453D3*
X21353Y65237D3*
X22653D3*
X100113Y41617D3*
X101413D3*
D109*
X23373Y9747D3*
Y11047D3*
D107*
X66183Y9337D3*
X67483D3*
X21203Y69187D3*
X22503D3*
X22703Y62687D3*
X21403D3*
D109*
X100063Y45017D3*
Y43717D3*
X25873Y34897D3*
Y33597D3*
D107*
X85833Y-6233D3*
X84533D3*
D109*
X31373Y9947D3*
Y11247D3*
D107*
X15823Y24247D3*
X17123D3*
X85733Y-3933D3*
X84433D3*
X85683Y-1833D3*
X84383D3*
X30713Y60187D3*
X29413D3*
Y61437D3*
X30713D3*
X81033Y-7933D3*
X82333D3*
X45513Y69687D3*
X44213D3*
X45513Y65187D3*
X44213D3*
Y70937D3*
X45513D3*
Y58037D3*
X44213D3*
X45513Y62837D3*
X44213D3*
Y56437D3*
X45513D3*
X10873Y26197D3*
X9573D3*
X10923Y21147D3*
X9623D3*
X98483Y-15353D3*
X99783D3*
X98483Y-18053D3*
X99783D3*
X112283Y-9303D3*
X110983D3*
X96583Y-12953D3*
X95283D3*
X96533Y-14403D3*
X95233D3*
X96533Y-19053D3*
X95233D3*
X98433Y-16603D3*
X99733D3*
X95283Y-11153D3*
X96583D3*
X93933Y-6783D3*
X95233D3*
X99683Y-5133D3*
X100983D3*
D79*
X115833Y-12853D3*
X118633D3*
X115833Y-16203D3*
X118633D3*
D107*
X102233Y-20253D3*
X103533D3*
X106283D3*
X104983D3*
D39*
X51773Y67887D3*
D77*
Y63937D3*
D39*
X53223Y60187D3*
D77*
X35573Y39547D3*
X103813Y77857D3*
X48473Y31247D3*
X34573Y39547D3*
X33523D3*
X48473Y30047D3*
X32123Y39547D3*
D39*
X46523Y28747D3*
X60173Y72987D3*
D77*
X46523Y27597D3*
Y26347D3*
X31073Y39547D3*
D39*
X46523Y25147D3*
X68473Y67787D3*
D77*
X46523Y23947D3*
X68473Y63987D3*
D39*
Y59787D3*
D77*
X29973Y39547D3*
X28873D3*
X27673D3*
X46583Y19967D3*
D39*
X26523Y39547D3*
D77*
X46583Y21267D3*
D39*
X25323Y39547D3*
X46573Y18147D3*
X24123Y39547D3*
D77*
X17073Y30847D3*
D39*
X6353Y67737D3*
D77*
X17073Y29697D3*
D39*
Y28597D3*
X36323Y11347D3*
D77*
X6353Y63837D3*
D39*
X17073Y27447D3*
X7903Y60137D3*
D77*
X35073Y8547D3*
D39*
X33843Y11337D3*
D77*
X102913Y50517D3*
D39*
X15103Y71737D3*
D77*
X17173Y22047D3*
Y20797D3*
D39*
Y19497D3*
X22603Y67787D3*
X17173Y18247D3*
D77*
X22803Y64037D3*
D39*
X21303Y60187D3*
X24713Y11137D3*
X17173Y16997D3*
D77*
X23373Y8347D3*
D39*
X17173Y15747D3*
X22023Y11147D3*
D77*
X17173Y14547D3*
X29333Y72117D3*
D75*
X56673Y-13493D3*
X58973D3*
X61273D3*
D73*
X58973Y-7693D3*
D71*
X33813Y27147D3*
X33413D3*
X33013D3*
X32613D3*
X32213D3*
X31813D3*
X31413D3*
X31013D3*
X30613D3*
X30213D3*
X29813D3*
X29413D3*
X29013D3*
X28613D3*
X28213D3*
X27813D3*
X27413D3*
D69*
X26718Y26442D3*
Y26042D3*
Y25642D3*
Y25242D3*
Y24842D3*
Y24442D3*
Y24042D3*
Y23642D3*
Y23242D3*
Y22842D3*
Y22442D3*
Y22042D3*
Y21642D3*
Y21242D3*
Y20842D3*
Y20442D3*
Y20042D3*
D71*
X27423Y19347D3*
X27823D3*
X28223D3*
X28623D3*
X29023D3*
X29423D3*
X29823D3*
X30223D3*
X30623D3*
X31023D3*
X31423D3*
X31823D3*
X32223D3*
X32623D3*
X33023D3*
X33423D3*
X33823D3*
D69*
X34518Y20052D3*
Y20452D3*
Y20852D3*
Y21252D3*
Y21652D3*
Y22052D3*
Y22452D3*
Y22852D3*
Y23252D3*
Y23652D3*
Y24052D3*
Y24452D3*
Y24852D3*
Y25252D3*
Y25652D3*
Y26052D3*
Y26452D3*
D67*
X30618Y23247D3*
D65*
X57273Y67787D3*
Y66517D3*
Y65247D3*
Y63977D3*
Y62707D3*
Y61437D3*
Y60167D3*
X62673D3*
Y61437D3*
Y62707D3*
Y63977D3*
Y65247D3*
Y66517D3*
Y67787D3*
X57173Y34767D3*
Y33497D3*
Y32227D3*
Y30957D3*
Y29687D3*
Y28417D3*
Y27147D3*
X62573D3*
Y28417D3*
Y29687D3*
Y30957D3*
Y32227D3*
Y33497D3*
Y34767D3*
D63*
X110013Y75407D3*
Y74437D3*
Y73467D3*
Y72497D3*
Y71527D3*
Y70557D3*
Y69587D3*
Y68617D3*
Y67647D3*
D61*
X118463Y71527D3*
D75*
X30813Y-13493D3*
X33113D3*
X35413D3*
D73*
X33113Y-7693D3*
D65*
X34413Y67787D3*
Y66517D3*
Y65247D3*
Y63977D3*
Y62707D3*
Y61437D3*
Y60167D3*
X39813D3*
Y61437D3*
Y62707D3*
Y63977D3*
Y65247D3*
Y66517D3*
Y67787D3*
X11853D3*
Y66517D3*
Y65247D3*
Y63977D3*
Y62707D3*
Y61437D3*
Y60167D3*
X17253D3*
Y61437D3*
Y62707D3*
Y63977D3*
Y65247D3*
Y66517D3*
Y67787D3*
D75*
X10953Y-13493D3*
X13253D3*
X15553D3*
D73*
X13253Y-7693D3*
D65*
X57173Y16987D3*
Y15717D3*
Y14447D3*
Y13177D3*
Y11907D3*
Y10637D3*
Y9367D3*
X62573D3*
Y10637D3*
Y11907D3*
Y13177D3*
Y14447D3*
Y15717D3*
Y16987D3*
D63*
X110013Y47467D3*
Y46497D3*
Y45527D3*
Y44557D3*
Y43587D3*
Y42617D3*
Y41647D3*
Y40677D3*
Y39707D3*
D61*
X118463Y43587D3*
D59*
X104933Y-10953D3*
Y-11603D3*
Y-12253D3*
Y-12903D3*
Y-13553D3*
Y-14203D3*
Y-14853D3*
Y-15503D3*
Y-16153D3*
Y-16803D3*
Y-17453D3*
Y-18103D3*
X110734D3*
X110733Y-17453D3*
Y-16803D3*
Y-16153D3*
Y-15503D3*
Y-14853D3*
Y-14203D3*
Y-13553D3*
Y-12903D3*
Y-12253D3*
Y-11603D3*
Y-10953D3*
D57*
X107833Y-14528D3*
D107*
X98383Y-19883D3*
X99683D3*
X96783Y-24733D3*
X95483D3*
X96783Y-22883D3*
X95483D3*
X19383Y20267D3*
X20683D3*
X19383Y18917D3*
X20683D3*
M02*
