G04 DipTrace 2.4.0.2*
%INBottomAssy.gbr*%
%MOMM*%
%ADD10C,0.25*%
%ADD12C,0.076*%
%FSLAX53Y53*%
G04*
G71*
G90*
G75*
G01*
%LNBotAssy*%
%LPD*%
X31040Y-1520D2*
D10*
X70560D1*
X95407Y37574D2*
D12*
Y37185D1*
X95431Y37112D1*
X95456Y37088D1*
X95504Y37064D1*
X95553D1*
X95601Y37088D1*
X95626Y37112D1*
X95650Y37185D1*
Y37234D1*
X95250Y37476D2*
X95201Y37501D1*
X95128Y37573D1*
Y37064D1*
X94972Y37476D2*
X94923Y37501D1*
X94850Y37573D1*
Y37064D1*
X32854Y2114D2*
Y1725D1*
X32878Y1652D1*
X32903Y1628D1*
X32951Y1604D1*
X33000D1*
X33048Y1628D1*
X33072Y1652D1*
X33097Y1725D1*
Y1774D1*
X32697Y2016D2*
X32648Y2041D1*
X32575Y2113D1*
Y1604D1*
X32127Y2041D2*
X32151Y2089D1*
X32224Y2113D1*
X32272D1*
X32345Y2089D1*
X32394Y2016D1*
X32418Y1895D1*
Y1774D1*
X32394Y1677D1*
X32345Y1628D1*
X32272Y1604D1*
X32248D1*
X32176Y1628D1*
X32127Y1677D1*
X32103Y1750D1*
Y1774D1*
X32127Y1847D1*
X32176Y1895D1*
X32248Y1919D1*
X32272D1*
X32345Y1895D1*
X32394Y1847D1*
X32418Y1774D1*
X48273Y-2493D2*
Y-1982D1*
X48492D1*
X48565Y-2007D1*
X48589Y-2031D1*
X48613Y-2079D1*
Y-2152D1*
X48589Y-2201D1*
X48565Y-2225D1*
X48492Y-2250D1*
X48565Y-2274D1*
X48589Y-2298D1*
X48613Y-2347D1*
Y-2396D1*
X48589Y-2444D1*
X48565Y-2469D1*
X48492Y-2493D1*
X48273D1*
Y-2250D2*
X48492D1*
X48916Y-2493D2*
X48867Y-2469D1*
X48819Y-2420D1*
X48794Y-2371D1*
X48770Y-2298D1*
Y-2177D1*
X48794Y-2104D1*
X48819Y-2055D1*
X48867Y-2007D1*
X48916Y-1982D1*
X49013D1*
X49061Y-2007D1*
X49110Y-2055D1*
X49134Y-2104D1*
X49158Y-2177D1*
Y-2298D1*
X49134Y-2371D1*
X49110Y-2420D1*
X49061Y-2469D1*
X49013Y-2493D1*
X48916D1*
X49704Y-1982D2*
X49509Y-2493D1*
X49315Y-1982D1*
X49388Y-2152D2*
X49631D1*
X49861Y-2250D2*
X50080D1*
X50153Y-2274D1*
X50177Y-2298D1*
X50201Y-2347D1*
Y-2396D1*
X50177Y-2444D1*
X50153Y-2469D1*
X50080Y-2493D1*
X49861D1*
Y-1982D1*
X50031Y-2250D2*
X50201Y-1982D1*
X50358Y-2493D2*
Y-1982D1*
X50528D1*
X50601Y-2007D1*
X50650Y-2055D1*
X50674Y-2104D1*
X50699Y-2177D1*
Y-2298D1*
X50674Y-2371D1*
X50650Y-2420D1*
X50601Y-2469D1*
X50528Y-2493D1*
X50358D1*
X51665D2*
X51349D1*
Y-1982D1*
X51665D1*
X51349Y-2250D2*
X51544D1*
X51822Y-2493D2*
Y-1982D1*
X51992D1*
X52065Y-2007D1*
X52114Y-2055D1*
X52138Y-2104D1*
X52162Y-2177D1*
Y-2298D1*
X52138Y-2371D1*
X52114Y-2420D1*
X52065Y-2469D1*
X51992Y-2493D1*
X51822D1*
X52683Y-2371D2*
X52659Y-2420D1*
X52610Y-2469D1*
X52562Y-2493D1*
X52465D1*
X52416Y-2469D1*
X52368Y-2420D1*
X52343Y-2371D1*
X52319Y-2298D1*
Y-2177D1*
X52343Y-2104D1*
X52368Y-2055D1*
X52416Y-2007D1*
X52465Y-1982D1*
X52562D1*
X52610Y-2007D1*
X52659Y-2055D1*
X52683Y-2104D1*
Y-2177D1*
X52562D1*
X53156Y-2493D2*
X52840D1*
Y-1982D1*
X53156D1*
X52840Y-2250D2*
X53034D1*
X31040Y125320D2*
D10*
X70560D1*
X95407Y164414D2*
D12*
Y164025D1*
X95431Y163952D1*
X95456Y163928D1*
X95504Y163904D1*
X95553D1*
X95601Y163928D1*
X95626Y163952D1*
X95650Y164025D1*
Y164074D1*
X95250Y164316D2*
X95201Y164341D1*
X95128Y164413D1*
Y163904D1*
X94972Y164316D2*
X94923Y164341D1*
X94850Y164413D1*
Y163904D1*
X32854Y128954D2*
Y128565D1*
X32878Y128492D1*
X32903Y128468D1*
X32951Y128444D1*
X33000D1*
X33048Y128468D1*
X33072Y128492D1*
X33097Y128565D1*
Y128614D1*
X32697Y128856D2*
X32648Y128881D1*
X32575Y128953D1*
Y128444D1*
X32127Y128881D2*
X32151Y128929D1*
X32224Y128953D1*
X32272D1*
X32345Y128929D1*
X32394Y128856D1*
X32418Y128735D1*
Y128614D1*
X32394Y128517D1*
X32345Y128468D1*
X32272Y128444D1*
X32248D1*
X32176Y128468D1*
X32127Y128517D1*
X32103Y128590D1*
Y128614D1*
X32127Y128687D1*
X32176Y128735D1*
X32248Y128759D1*
X32272D1*
X32345Y128735D1*
X32394Y128687D1*
X32418Y128614D1*
X48273Y124347D2*
Y124858D1*
X48492D1*
X48565Y124833D1*
X48589Y124809D1*
X48613Y124761D1*
Y124688D1*
X48589Y124639D1*
X48565Y124615D1*
X48492Y124590D1*
X48565Y124566D1*
X48589Y124542D1*
X48613Y124493D1*
Y124444D1*
X48589Y124396D1*
X48565Y124371D1*
X48492Y124347D1*
X48273D1*
Y124590D2*
X48492D1*
X48916Y124347D2*
X48867Y124371D1*
X48819Y124420D1*
X48794Y124469D1*
X48770Y124542D1*
Y124663D1*
X48794Y124736D1*
X48819Y124785D1*
X48867Y124833D1*
X48916Y124858D1*
X49013D1*
X49061Y124833D1*
X49110Y124785D1*
X49134Y124736D1*
X49158Y124663D1*
Y124542D1*
X49134Y124469D1*
X49110Y124420D1*
X49061Y124371D1*
X49013Y124347D1*
X48916D1*
X49704Y124858D2*
X49509Y124347D1*
X49315Y124858D1*
X49388Y124688D2*
X49631D1*
X49861Y124590D2*
X50080D1*
X50153Y124566D1*
X50177Y124542D1*
X50201Y124493D1*
Y124444D1*
X50177Y124396D1*
X50153Y124371D1*
X50080Y124347D1*
X49861D1*
Y124858D1*
X50031Y124590D2*
X50201Y124858D1*
X50358Y124347D2*
Y124858D1*
X50528D1*
X50601Y124833D1*
X50650Y124785D1*
X50674Y124736D1*
X50699Y124663D1*
Y124542D1*
X50674Y124469D1*
X50650Y124420D1*
X50601Y124371D1*
X50528Y124347D1*
X50358D1*
X51665D2*
X51349D1*
Y124858D1*
X51665D1*
X51349Y124590D2*
X51544D1*
X51822Y124347D2*
Y124858D1*
X51992D1*
X52065Y124833D1*
X52114Y124785D1*
X52138Y124736D1*
X52162Y124663D1*
Y124542D1*
X52138Y124469D1*
X52114Y124420D1*
X52065Y124371D1*
X51992Y124347D1*
X51822D1*
X52683Y124469D2*
X52659Y124420D1*
X52610Y124371D1*
X52562Y124347D1*
X52465D1*
X52416Y124371D1*
X52368Y124420D1*
X52343Y124469D1*
X52319Y124542D1*
Y124663D1*
X52343Y124736D1*
X52368Y124785D1*
X52416Y124833D1*
X52465Y124858D1*
X52562D1*
X52610Y124833D1*
X52659Y124785D1*
X52683Y124736D1*
Y124663D1*
X52562D1*
X53156Y124347D2*
X52840D1*
Y124858D1*
X53156D1*
X52840Y124590D2*
X53034D1*
M02*
