G04 DipTrace 2.4.0.2*
%INBottomSilk.gbr*%
%MOMM*%
%ADD10C,0.25*%
%ADD12C,0.076*%
%FSLAX53Y53*%
G04*
G71*
G90*
G75*
G01*
%LNBotSilk*%
%LPD*%
X92710Y36830D2*
D10*
X97790D1*
Y6350D1*
X92710D1*
Y36830D1*
X31751Y-1270D2*
X69849D1*
Y1270D1*
X31751D1*
Y-1270D1*
X95407Y37574D2*
D12*
Y37185D1*
X95431Y37112D1*
X95456Y37088D1*
X95504Y37064D1*
X95553D1*
X95601Y37088D1*
X95626Y37112D1*
X95650Y37185D1*
Y37234D1*
X95250Y37476D2*
X95201Y37501D1*
X95128Y37573D1*
Y37064D1*
X94972Y37476D2*
X94923Y37501D1*
X94850Y37573D1*
Y37064D1*
X32854Y2114D2*
Y1725D1*
X32878Y1652D1*
X32903Y1628D1*
X32951Y1604D1*
X33000D1*
X33048Y1628D1*
X33072Y1652D1*
X33097Y1725D1*
Y1774D1*
X32697Y2016D2*
X32648Y2041D1*
X32575Y2113D1*
Y1604D1*
X32127Y2041D2*
X32151Y2089D1*
X32224Y2113D1*
X32272D1*
X32345Y2089D1*
X32394Y2016D1*
X32418Y1895D1*
Y1774D1*
X32394Y1677D1*
X32345Y1628D1*
X32272Y1604D1*
X32248D1*
X32176Y1628D1*
X32127Y1677D1*
X32103Y1750D1*
Y1774D1*
X32127Y1847D1*
X32176Y1895D1*
X32248Y1919D1*
X32272D1*
X32345Y1895D1*
X32394Y1847D1*
X32418Y1774D1*
X92710Y163670D2*
D10*
X97790D1*
Y133190D1*
X92710D1*
Y163670D1*
X31751Y125570D2*
X69849D1*
Y128110D1*
X31751D1*
Y125570D1*
X95407Y164414D2*
D12*
Y164025D1*
X95431Y163952D1*
X95456Y163928D1*
X95504Y163904D1*
X95553D1*
X95601Y163928D1*
X95626Y163952D1*
X95650Y164025D1*
Y164074D1*
X95250Y164316D2*
X95201Y164341D1*
X95128Y164413D1*
Y163904D1*
X94972Y164316D2*
X94923Y164341D1*
X94850Y164413D1*
Y163904D1*
X32854Y128954D2*
Y128565D1*
X32878Y128492D1*
X32903Y128468D1*
X32951Y128444D1*
X33000D1*
X33048Y128468D1*
X33072Y128492D1*
X33097Y128565D1*
Y128614D1*
X32697Y128856D2*
X32648Y128881D1*
X32575Y128953D1*
Y128444D1*
X32127Y128881D2*
X32151Y128929D1*
X32224Y128953D1*
X32272D1*
X32345Y128929D1*
X32394Y128856D1*
X32418Y128735D1*
Y128614D1*
X32394Y128517D1*
X32345Y128468D1*
X32272Y128444D1*
X32248D1*
X32176Y128468D1*
X32127Y128517D1*
X32103Y128590D1*
Y128614D1*
X32127Y128687D1*
X32176Y128735D1*
X32248Y128759D1*
X32272D1*
X32345Y128735D1*
X32394Y128687D1*
X32418Y128614D1*
M02*
