G04 DipTrace 2.4.0.2*
%INBottomMask.gbr*%
%MOMM*%
%ADD80C,1.704*%
%ADD82R,1.704X1.704*%
%ADD94C,1.904*%
%ADD96R,1.904X1.904*%
%FSLAX53Y53*%
G04*
G71*
G90*
G75*
G01*
%LNBotMask*%
%LPD*%
D96*
X68580Y2540D3*
D94*
X71120D3*
D96*
X83820Y78740D3*
D94*
Y76200D3*
Y73660D3*
Y71120D3*
Y68580D3*
Y66040D3*
Y63500D3*
Y60960D3*
D96*
X76200Y76200D3*
D94*
Y73660D3*
Y71120D3*
Y68580D3*
Y66040D3*
Y63500D3*
Y60960D3*
D96*
X30480Y50800D3*
D94*
X27940D3*
X25400D3*
X22860D3*
X20320D3*
D96*
X83820Y30480D3*
D94*
Y27940D3*
Y25400D3*
Y22860D3*
Y20320D3*
Y17780D3*
Y15240D3*
Y12700D3*
D96*
X76200Y30480D3*
D94*
Y27940D3*
Y25400D3*
Y22860D3*
Y20320D3*
Y17780D3*
Y15240D3*
D96*
X96520Y35560D3*
D94*
X93980D3*
X96520Y33020D3*
X93980D3*
X96520Y30480D3*
X93980D3*
X96520Y27940D3*
X93980D3*
X96520Y25400D3*
X93980D3*
X96520Y22860D3*
X93980D3*
X96520Y20320D3*
X93980D3*
X96520Y17780D3*
X93980D3*
X96520Y15240D3*
X93980D3*
X96520Y12700D3*
X93980D3*
X96520Y10160D3*
X93980D3*
X96520Y7620D3*
X93980D3*
D96*
X48260Y2540D3*
D94*
X50800D3*
X53340D3*
D96*
X104140Y25400D3*
D94*
X101600D3*
X104140Y27940D3*
X101600D3*
X104140Y30480D3*
X101600D3*
X104140Y33020D3*
X101600D3*
X104140Y35560D3*
X101600D3*
D96*
X58420Y2540D3*
D94*
X60960D3*
X63500D3*
D96*
X104140Y7620D3*
D94*
X101600D3*
X104140Y10160D3*
X101600D3*
X104140Y12700D3*
X101600D3*
X104140Y15240D3*
X101600D3*
X104140Y17780D3*
X101600D3*
D96*
X33020Y0D3*
D94*
X35560D3*
X38100D3*
X40640D3*
X43180D3*
X45720D3*
X48260D3*
X50800D3*
X53340D3*
X55880D3*
X58420D3*
X60960D3*
X63500D3*
X66040D3*
X68580D3*
D96*
X38100Y2540D3*
D94*
X40640D3*
X43180D3*
D96*
X118500Y-7370D3*
D94*
Y-9910D3*
Y-12450D3*
Y-14990D3*
D82*
X59390Y80870D3*
D80*
X56850D3*
X54310D3*
D82*
X14220Y81070D3*
D80*
X11680D3*
X9140D3*
D96*
X68580Y129380D3*
D94*
X71120D3*
D96*
X83820Y205580D3*
D94*
Y203040D3*
Y200500D3*
Y197960D3*
Y195420D3*
Y192880D3*
Y190340D3*
Y187800D3*
D96*
X76200Y203040D3*
D94*
Y200500D3*
Y197960D3*
Y195420D3*
Y192880D3*
Y190340D3*
Y187800D3*
D96*
X30480Y177640D3*
D94*
X27940D3*
X25400D3*
X22860D3*
X20320D3*
D96*
X83820Y157320D3*
D94*
Y154780D3*
Y152240D3*
Y149700D3*
Y147160D3*
Y144620D3*
Y142080D3*
Y139540D3*
D96*
X76200Y157320D3*
D94*
Y154780D3*
Y152240D3*
Y149700D3*
Y147160D3*
Y144620D3*
Y142080D3*
D96*
X96520Y162400D3*
D94*
X93980D3*
X96520Y159860D3*
X93980D3*
X96520Y157320D3*
X93980D3*
X96520Y154780D3*
X93980D3*
X96520Y152240D3*
X93980D3*
X96520Y149700D3*
X93980D3*
X96520Y147160D3*
X93980D3*
X96520Y144620D3*
X93980D3*
X96520Y142080D3*
X93980D3*
X96520Y139540D3*
X93980D3*
X96520Y137000D3*
X93980D3*
X96520Y134460D3*
X93980D3*
D96*
X48260Y129380D3*
D94*
X50800D3*
X53340D3*
D96*
X104140Y152240D3*
D94*
X101600D3*
X104140Y154780D3*
X101600D3*
X104140Y157320D3*
X101600D3*
X104140Y159860D3*
X101600D3*
X104140Y162400D3*
X101600D3*
D96*
X58420Y129380D3*
D94*
X60960D3*
X63500D3*
D96*
X104140Y134460D3*
D94*
X101600D3*
X104140Y137000D3*
X101600D3*
X104140Y139540D3*
X101600D3*
X104140Y142080D3*
X101600D3*
X104140Y144620D3*
X101600D3*
D96*
X33020Y126840D3*
D94*
X35560D3*
X38100D3*
X40640D3*
X43180D3*
X45720D3*
X48260D3*
X50800D3*
X53340D3*
X55880D3*
X58420D3*
X60960D3*
X63500D3*
X66040D3*
X68580D3*
D96*
X38100Y129380D3*
D94*
X40640D3*
X43180D3*
D96*
X118500Y119470D3*
D94*
Y116930D3*
Y114390D3*
Y111850D3*
D82*
X59390Y207710D3*
D80*
X56850D3*
X54310D3*
D82*
X14220Y207910D3*
D80*
X11680D3*
X9140D3*
M02*
