M48
INCH
T01C0.012
T02C0.0354
T03C0.0433
%
T01
X+009803Y+011417
X+009803Y+011024
X+009803Y+010630
X+009803Y+010236
X+009803Y+009843
X+010197Y+009843
X+010197Y+010236
X+010197Y+010630
X+010197Y+011024
X+010197Y+011417
X+010591Y+011417
X+010591Y+011024
X+010984Y+011024
X+010984Y+011417
X+011378Y+011417
X+011378Y+011024
X+011378Y+010630
X+011378Y+010236
X+011378Y+009843
X+010984Y+009843
X+010591Y+009843
X+010742Y+010447
X+012457Y+012161
X+013087Y+012059
X+012457Y+013673
X+011039Y+013673
X+010587Y+015465
X+011508Y+015465
X+008874Y+015465
X+006890Y+014370
X+006496Y+014370
X+006496Y+013976
X+006890Y+013976
X+009031Y+012650
X+008992Y+012217
X+007299Y+010620
X+007299Y+009303
X+008894Y+008850
X+008736Y+008260
X+006890Y+006693
X+006496Y+006693
X+006496Y+006299
X+006890Y+006299
X+007854Y+004094
X+007854Y+003228
X+011039Y+004795
X+012496Y+004177
X+012496Y+003445
X+014764Y+006299
X+014764Y+006693
X+015157Y+006693
X+015157Y+006299
X+015783Y+005906
X+015783Y+008631
X+015783Y+009913
X+015449Y+010152
X+015787Y+010386
X+015449Y+010858
X+015449Y+012079
X+015787Y+012913
X+015157Y+013976
X+014764Y+013976
X+014764Y+014370
X+015157Y+014370
X+015787Y+014902
X+017638Y+012185
X+019449Y+012185
X+022500Y+013287
X+024114Y+013031
X+025846Y+014016
X+026614Y+014508
X+026614Y+015571
X+027874Y+015571
X+028720Y+016713
X+026988Y+017972
X+027179Y+018248
X+026977Y+018563
X+027151Y+018819
X+026240Y+017559
X+025846Y+017205
X+024311Y+016240
X+022975Y+017205
X+023740Y+017992
X+023499Y+018248
X+023667Y+018563
X+023465Y+018819
X+023091Y+020827
X+022126Y+020886
X+020610Y+020886
X+020433Y+021240
X+020236Y+021831
X+020469Y+022134
X+019409Y+021260
X+019429Y+020886
X+017047Y+021260
X+015512Y+022205
X+017382Y+023169
X+017657Y+025531
X+017382Y+026043
X+018130Y+026949
X+017657Y+027559
X+018130Y+027854
X+018598Y+028551
X+020751Y+028802
X+020291Y+026996
X+018618Y+025500
X+015886Y+030236
X+015610Y+031437
X+015748Y+034646
X+015354Y+034646
X+014961Y+034646
X+014567Y+034646
X+014173Y+034646
X+013780Y+034646
X+013386Y+034646
X+012992Y+034646
X+012598Y+034646
X+012205Y+034646
X+011811Y+034646
X+011417Y+034646
X+011024Y+034646
X+010630Y+034646
X+010236Y+034646
X+009843Y+034646
X+009449Y+034646
X+009055Y+034646
X+008661Y+034646
X+008268Y+034646
X+007874Y+034646
X+007480Y+034646
X+007087Y+034646
X+006693Y+034646
X+006299Y+034646
X+005906Y+034646
X+005512Y+034646
X+005118Y+034646
X+004724Y+034646
X+004331Y+034646
X+003937Y+034646
X+003543Y+034646
X+003150Y+034646
X+002756Y+034646
X+002362Y+034646
X+001969Y+034646
X+001575Y+034646
X+001181Y+034646
X+000787Y+034646
X+000787Y+034252
X+000787Y+033858
X+000787Y+033465
X+000787Y+033071
X+000787Y+032677
X+000787Y+032283
X+000787Y+031890
X+000787Y+031496
X+000787Y+031102
X+000787Y+030709
X+000787Y+030315
X+000787Y+029921
X+000787Y+029528
X+000787Y+029134
X+000787Y+028740
X+000787Y+028346
X+000787Y+027953
X+000787Y+027559
X+000787Y+027165
X+000787Y+026772
X+000787Y+026378
X+000787Y+025984
X+000787Y+025591
X+000787Y+025197
X+000787Y+024803
X+000787Y+024409
X+000787Y+024016
X+000787Y+023622
X+000787Y+023228
X+000787Y+022835
X+000787Y+022441
X+000787Y+022047
X+000787Y+021654
X+000787Y+021260
X+000787Y+020866
X+000787Y+020472
X+000787Y+020079
X+000787Y+019685
X+000787Y+019291
X+000787Y+018898
X+000787Y+018504
X+000787Y+018110
X+000787Y+017717
X+000787Y+017323
X+000787Y+016929
X+000787Y+016535
X+000787Y+016142
X+000787Y+015748
X+000787Y+015354
X+000787Y+014961
X+000787Y+014567
X+000787Y+014173
X+000787Y+013780
X+000557Y+012472
X+003343Y+011626
X+003717Y+011713
X+003717Y+010996
X+003363Y+010425
X+004583Y+010858
X+005941Y+010858
X+005941Y+010386
X+003543Y+008465
X+003189Y+008740
X+003839Y+008012
X+004173Y+007028
X+000787Y+006890
X+000787Y+007283
X+000787Y+007677
X+000787Y+008071
X+000787Y+008465
X+000547Y+009480
X+000787Y+006496
X+000787Y+006102
X+000787Y+005709
X+000787Y+005315
X+000787Y+004921
X+000787Y+004528
X+000787Y+004134
X+000787Y+003740
X+000787Y+003346
X+000787Y+002953
X+000787Y+002559
X+000787Y+002165
X+000787Y+001772
X+000787Y+001378
X+000787Y+000984
X+000787Y+000591
X+000787Y+000197
X+000787Y-000197
X+003189Y+002205
X+003543Y+002441
X+003839Y+002697
X+003894Y-001933
X+003885Y-002583
X+003491Y-002583
X+003491Y-002976
X+003885Y-002976
X+004279Y-002976
X+004279Y-002583
X+003894Y-006559
X+009055Y-002728
X+011322Y-002579
X+011322Y-002973
X+011715Y-002973
X+011715Y-002579
X+012109Y-002579
X+012109Y-002973
X+011713Y-001972
X+011740Y-006906
X+017602Y-003657
X+018390Y-003657
X+021539Y-002713
X+021539Y-002319
X+021933Y-002319
X+021933Y-002713
X+022327Y-002713
X+022327Y-002319
X+021992Y-001827
X+024547Y-002476
X+021988Y+001004
X+021988Y+002205
X+021000Y+002441
X+025000Y+002697
X+027795Y+003898
X+028720Y+006000
X+028445Y+008504
X+026929Y+008504
X+026614Y+007638
X+025906Y+007008
X+024134Y+006000
X+022500Y+006772
X+025906Y+010138
X+026614Y+010158
X+027520Y+013031
X+021803Y+017205
X+018130Y+018012
X+017772Y+018248
X+012693Y+018563
X+012283Y+018819
X+010488Y+019075
X+010000Y+019193
X+010276Y+022657
X+009134Y+023209
X+008878Y+023465
X+009823Y+024980
X+009134Y+025492
X+008413Y+025500
X+008059Y+025992
X+008878Y+027028
X+009843Y+027480
X+010295Y+026437
X+009823Y+026280
X+008059Y+028571
X+006487Y+029161
X+007016Y+030008
X+006283Y+027000
X+005130Y+023571
X+006327Y+022311
X+006535Y+021949
X+003681Y+021949
X+002665Y+022311
X+001732Y+024587
X+001189Y+026083
X+002488Y+026976
X+001732Y+030343
X+001240Y+031437
X+010236Y+031433
X+010236Y+030222
X+012598Y+028583
X+013878Y+028563
X+016142Y+034646
X+016535Y+034646
X+016929Y+034646
X+017323Y+034646
X+017717Y+034646
X+018110Y+034646
X+018504Y+034646
X+018898Y+034646
X+019291Y+034646
X+019685Y+034646
X+020079Y+034646
X+020472Y+034646
X+020866Y+034646
X+021260Y+034646
X+021654Y+034646
X+022047Y+034646
X+022441Y+034646
X+022835Y+034646
X+023228Y+034646
X+023622Y+034646
X+024016Y+034646
X+024409Y+034646
X+024803Y+034646
X+025197Y+034646
X+025591Y+034646
X+025984Y+034646
X+026378Y+034646
X+026772Y+034646
X+027165Y+034646
X+027559Y+034646
X+027953Y+034646
X+028346Y+034646
X+028740Y+034646
X+029134Y+034646
X+029528Y+034646
X+029921Y+034646
X+030315Y+034646
X+030709Y+034646
X+031102Y+034646
X+031496Y+034646
X+031890Y+034646
X+032283Y+034646
X+032677Y+034646
X+033071Y+034646
X+033465Y+034646
X+033858Y+034646
X+034252Y+034646
X+034646Y+034646
X+035039Y+034646
X+035433Y+034646
X+035827Y+034646
X+036220Y+034646
X+036614Y+034646
X+037008Y+034646
X+037402Y+034646
X+037795Y+034646
X+038189Y+034646
X+038583Y+034646
X+038976Y+034646
X+039370Y+034646
X+039764Y+034646
X+040157Y+034646
X+040551Y+034646
X+040945Y+034646
X+041339Y+034646
X+041732Y+034646
X+042126Y+034646
X+042520Y+034646
X+042913Y+034646
X+043307Y+034646
X+043701Y+034646
X+044094Y+034646
X+044488Y+034646
X+044882Y+034646
X+045276Y+034646
X+045669Y+034646
X+046063Y+034646
X+046457Y+034646
X+046850Y+034646
X+047244Y+034646
X+047638Y+034646
X+048031Y+034646
X+048425Y+034646
X+048819Y+034646
X+048819Y+034252
X+048819Y+033858
X+048819Y+033465
X+048819Y+033071
X+048819Y+032677
X+048819Y+032283
X+048819Y+031890
X+048819Y+031496
X+048819Y+031102
X+048819Y+030709
X+048819Y+030315
X+048819Y+029921
X+048819Y+029528
X+048819Y+029134
X+048819Y+028740
X+048819Y+028346
X+048819Y+027953
X+048819Y+027559
X+048819Y+027165
X+048819Y+026772
X+048819Y+026378
X+048819Y+025984
X+048819Y+025591
X+048819Y+025197
X+048819Y+024803
X+048819Y+024409
X+048819Y+024016
X+048819Y+023622
X+048819Y+023228
X+048819Y+022835
X+048819Y+022441
X+048819Y+022047
X+048819Y+021654
X+048819Y+021260
X+048819Y+020866
X+048819Y+020472
X+048819Y+020079
X+048819Y+019685
X+048819Y+019291
X+048819Y+018898
X+048819Y+018504
X+048819Y+018110
X+048819Y+017717
X+048819Y+017323
X+048819Y+016929
X+048819Y+016535
X+048819Y+016142
X+048819Y+015748
X+048819Y+015354
X+048819Y+014961
X+048819Y+014567
X+048819Y+014173
X+048819Y+013780
X+048819Y+013386
X+048819Y+012992
X+048819Y+012598
X+048819Y+012205
X+048819Y+011811
X+048819Y+011417
X+048819Y+011024
X+048819Y+010630
X+048819Y+010236
X+048819Y+009843
X+048819Y+009449
X+048819Y+009055
X+048819Y+008661
X+048819Y+008268
X+048819Y+007874
X+048819Y+007480
X+048819Y+007087
X+048819Y+006693
X+048819Y+006299
X+048819Y+005906
X+048819Y+005512
X+048819Y+005118
X+048819Y+004724
X+048819Y+004331
X+048819Y+003937
X+048819Y+003543
X+048819Y+003150
X+048819Y+002756
X+048819Y+002362
X+048819Y+001969
X+048819Y+001575
X+048819Y+001181
X+048819Y+000787
X+048819Y+000394
X+048819Y+000000
X+048819Y-000394
X+048819Y-000787
X+048819Y-001181
X+048819Y-001575
X+048819Y-001969
X+048819Y-002362
X+048819Y-002756
X+048819Y-003150
X+048819Y-003543
X+048819Y-003937
X+048819Y-004331
X+048819Y-004724
X+048819Y-005118
X+048819Y-005512
X+048819Y-005906
X+048819Y-006299
X+048819Y-006693
X+048819Y-007087
X+048819Y-007480
X+048819Y-007874
X+048819Y-008268
X+047835Y-007087
X+047441Y-007087
X+047047Y-007087
X+046654Y-007087
X+046260Y-007087
X+045866Y-007087
X+045472Y-007087
X+045079Y-007087
X+044685Y-007087
X+044291Y-007087
X+043110Y-007087
X+043740Y-005717
X+045079Y-005717
X+045079Y-003157
X+045079Y-001969
X+044685Y-001969
X+044291Y-001969
X+045472Y-001969
X+045866Y-001969
X+046260Y-001969
X+046654Y-001969
X+047047Y-001969
X+047441Y-001969
X+047835Y-001969
X+043740Y-003138
X+041358Y-003327
X+041358Y-002933
X+041358Y-002539
X+040965Y-002539
X+040965Y-002933
X+040965Y-003327
X+040965Y-003720
X+041358Y-003720
X+041358Y-004114
X+041358Y-004508
X+040965Y-004508
X+040965Y-004902
X+040965Y-005295
X+040965Y-005689
X+041358Y-005689
X+041358Y-006083
X+040965Y-006083
X+041358Y-005295
X+041358Y-004902
X+040965Y-004114
X+041102Y-001969
X+043346Y-000697
X+037264Y-002035
X+035236Y-001791
X+034193Y-001791
X+031552Y-005236
X+030000Y-006063
X+029685Y-005650
X+029390Y-005984
X+029685Y-007894
X+030000Y-008228
X+029409Y-008720
X+036201Y-006839
X+036969Y-007055
X+037461Y-008248
X+036201Y-005795
X+036969Y-005224
X+021953Y-006807
X+013087Y+008654
X+012511Y+008693
X+004134Y+014213
X+024311Y+021398
X+024803Y+021831
X+024327Y+022134
X+027520Y+022283
X+028445Y+021161
X+028484Y+026024
X+026138Y+025992
X+026020Y+025402
X+024209Y+027016
X+024554Y+028760
X+025114Y+030087
X+026138Y+028512
X+027126Y+029016
X+027874Y+031969
X+028331Y+032461
X+028331Y+033287
X+030000Y+032461
X+033878Y+033287
X+034409Y+030945
X+036252Y+030980
X+036398Y+031969
X+037630Y+028657
X+037630Y+027358
X+036252Y+028165
X+034882Y+028130
X+035965Y+026811
X+039185Y+028185
X+039185Y+029287
X+040997Y+029345
X+040997Y+030626
X+040997Y+032575
X+043563Y+031693
X+043563Y+031299
X+043563Y+030906
X+043957Y+030906
X+044350Y+030906
X+044350Y+030512
X+044350Y+030118
X+044744Y+030118
X+044744Y+030512
X+045138Y+030512
X+045138Y+030906
X+044744Y+030906
X+044744Y+031299
X+044744Y+031693
X+045138Y+031693
X+045138Y+031299
X+045531Y+031299
X+045531Y+030906
X+045925Y+030906
X+046319Y+030906
X+046319Y+030512
X+046713Y+030512
X+046713Y+030118
X+047106Y+030118
X+047500Y+030118
X+047500Y+030512
X+047500Y+030906
X+047894Y+030906
X+047894Y+031299
X+047894Y+031693
X+047500Y+031693
X+047500Y+031299
X+047106Y+031299
X+047106Y+031693
X+046713Y+031693
X+046319Y+031693
X+045925Y+031693
X+045925Y+031299
X+046319Y+031299
X+046713Y+031299
X+046713Y+030906
X+047106Y+030906
X+047106Y+030512
X+047894Y+030512
X+047894Y+030118
X+047894Y+029724
X+047894Y+029331
X+047500Y+029331
X+047106Y+029331
X+047106Y+028937
X+046713Y+028937
X+046713Y+028543
X+046713Y+028150
X+047106Y+028150
X+047500Y+028150
X+047500Y+028543
X+047894Y+028543
X+047894Y+028150
X+047894Y+027756
X+047500Y+027756
X+047500Y+027362
X+047106Y+027362
X+046713Y+027362
X+046713Y+027756
X+047106Y+027756
X+047106Y+028543
X+047500Y+028937
X+047894Y+028937
X+047500Y+029724
X+047106Y+029724
X+046713Y+029724
X+046319Y+029724
X+046319Y+029331
X+045925Y+029331
X+045925Y+028937
X+045925Y+028543
X+045531Y+028543
X+045531Y+028937
X+045138Y+028937
X+045138Y+028543
X+044744Y+028543
X+044350Y+028543
X+043957Y+028543
X+043563Y+028543
X+043563Y+028937
X+043957Y+028937
X+044350Y+028937
X+044744Y+028937
X+044744Y+029331
X+044350Y+029331
X+044350Y+029724
X+043957Y+029724
X+043957Y+030118
X+043563Y+030118
X+043563Y+029724
X+043563Y+029331
X+043957Y+029331
X+044744Y+029724
X+045138Y+029724
X+045531Y+029724
X+045925Y+029724
X+045925Y+030118
X+045531Y+030118
X+045138Y+030118
X+045531Y+030512
X+045925Y+030512
X+046319Y+030118
X+046713Y+029331
X+046319Y+028937
X+046319Y+028543
X+046319Y+028150
X+045925Y+028150
X+045925Y+027756
X+045531Y+027756
X+045531Y+027362
X+045138Y+027362
X+045138Y+027756
X+045138Y+028150
X+045531Y+028150
X+044744Y+028150
X+044350Y+028150
X+043957Y+028150
X+043957Y+027756
X+044350Y+027756
X+044350Y+027362
X+044744Y+027362
X+044744Y+027756
X+043957Y+027362
X+043563Y+027362
X+043563Y+027756
X+043563Y+028150
X+045138Y+029331
X+045531Y+029331
X+046319Y+027756
X+046319Y+027362
X+045925Y+027362
X+047894Y+027362
X+045531Y+031693
X+044350Y+031693
X+043957Y+031693
X+043957Y+031299
X+044350Y+031299
X+043957Y+030512
X+043563Y+030512
X+040898Y+021791
X+040895Y+019618
X+040895Y+018363
X+039087Y+018268
X+039087Y+017205
X+037571Y+017677
X+036654Y+017224
X+036634Y+016752
X+037571Y+016437
X+035984Y+017972
X+035512Y+018248
X+035748Y+018563
X+035217Y+018819
X+036291Y+019980
X+036220Y+021161
X+035689Y+022205
X+033898Y+019980
X+034311Y+017224
X+043465Y+017067
X+043465Y+017461
X+043858Y+017461
X+044252Y+017461
X+044646Y+017461
X+044646Y+017854
X+044252Y+017854
X+044252Y+018248
X+044252Y+018642
X+044252Y+019035
X+044646Y+019035
X+044646Y+019429
X+044646Y+019823
X+045039Y+019823
X+045433Y+019823
X+045827Y+019823
X+046220Y+019823
X+046614Y+019823
X+046614Y+019429
X+046220Y+019429
X+046220Y+019035
X+046614Y+019035
X+047008Y+019035
X+047008Y+019429
X+047402Y+019429
X+047402Y+019823
X+047008Y+019823
X+047008Y+020217
X+046614Y+020217
X+046614Y+020610
X+046220Y+020610
X+046220Y+020217
X+045827Y+020217
X+045827Y+020610
X+045433Y+020610
X+045039Y+020610
X+044646Y+020610
X+044252Y+020610
X+044252Y+020217
X+043858Y+020217
X+043858Y+019823
X+043858Y+019429
X+043858Y+019035
X+043858Y+018642
X+043858Y+018248
X+043858Y+017854
X+043465Y+017854
X+043465Y+018248
X+043465Y+018642
X+043465Y+019035
X+043465Y+019429
X+043465Y+019823
X+043465Y+020217
X+043465Y+020610
X+043858Y+020610
X+044646Y+020217
X+045039Y+020217
X+045433Y+020217
X+045433Y+019429
X+045039Y+019429
X+045039Y+019035
X+045039Y+018642
X+045433Y+018642
X+045433Y+018248
X+045433Y+017854
X+045433Y+017461
X+045433Y+017067
X+045039Y+017067
X+044646Y+017067
X+044252Y+017067
X+043858Y+017067
X+043858Y+016673
X+043858Y+016280
X+043465Y+016280
X+043465Y+016673
X+044252Y+016673
X+044646Y+016673
X+044646Y+016280
X+044252Y+016280
X+045039Y+016280
X+045433Y+016280
X+045433Y+016673
X+045827Y+016673
X+046220Y+016673
X+046220Y+016280
X+045827Y+016280
X+046614Y+016280
X+047008Y+016280
X+047402Y+016280
X+047795Y+016280
X+047795Y+016673
X+047402Y+016673
X+047008Y+016673
X+046614Y+016673
X+046614Y+017067
X+047008Y+017067
X+047008Y+017461
X+047402Y+017461
X+047402Y+017854
X+047402Y+018248
X+047008Y+018248
X+047008Y+017854
X+046614Y+017854
X+046220Y+017854
X+046220Y+017461
X+046614Y+017461
X+046220Y+017067
X+045827Y+017067
X+045827Y+017461
X+045827Y+017854
X+045827Y+018248
X+046220Y+018248
X+046220Y+018642
X+046614Y+018642
X+047008Y+018642
X+047402Y+018642
X+047795Y+018642
X+047795Y+018248
X+047795Y+017854
X+047795Y+017461
X+047795Y+017067
X+047402Y+017067
X+046614Y+018248
X+045827Y+018642
X+045827Y+019035
X+045827Y+019429
X+045433Y+019035
X+044646Y+018642
X+044646Y+018248
X+045039Y+018248
X+045039Y+017854
X+045039Y+017461
X+045039Y+016673
X+044252Y+019429
X+044252Y+019823
X+047008Y+020610
X+047402Y+020610
X+047795Y+020610
X+047795Y+020217
X+047795Y+019823
X+047795Y+019429
X+047795Y+019035
X+047402Y+019035
X+047402Y+020217
X+048819Y+041669
X+048819Y+042063
X+048819Y+042457
X+048819Y+042850
X+048819Y+043244
X+048819Y+043638
X+048819Y+044031
X+048819Y+044425
X+048819Y+044819
X+048819Y+045213
X+048819Y+045606
X+048819Y+046000
X+048819Y+046394
X+048819Y+046787
X+048819Y+047181
X+048819Y+047575
X+048819Y+047969
X+048819Y+048362
X+048819Y+048756
X+048819Y+049150
X+048819Y+049543
X+048819Y+049937
X+048819Y+050331
X+048819Y+050724
X+048819Y+051118
X+048819Y+051512
X+048819Y+051906
X+048819Y+052299
X+048819Y+052693
X+048819Y+053087
X+048819Y+053480
X+048819Y+053874
X+048819Y+054268
X+048819Y+054661
X+048819Y+055055
X+048819Y+055449
X+048819Y+055843
X+048819Y+056236
X+048819Y+056630
X+048819Y+057024
X+048819Y+057417
X+048819Y+057811
X+048819Y+058205
X+048819Y+058598
X+048819Y+058992
X+048819Y+059386
X+048819Y+059780
X+048819Y+060173
X+048819Y+060567
X+048819Y+060961
X+048819Y+061354
X+048819Y+061748
X+048819Y+062142
X+048819Y+062535
X+048819Y+062929
X+048819Y+063323
X+048819Y+063717
X+048819Y+064110
X+048819Y+064504
X+048819Y+064898
X+048819Y+065291
X+048819Y+065685
X+048819Y+066079
X+048819Y+066472
X+048819Y+066866
X+048819Y+067260
X+048819Y+067654
X+048819Y+068047
X+048819Y+068441
X+048819Y+068835
X+048819Y+069228
X+048819Y+069622
X+048819Y+070016
X+048819Y+070409
X+048819Y+070803
X+048819Y+071197
X+048819Y+071591
X+048819Y+071984
X+048819Y+072378
X+048819Y+072772
X+048819Y+073165
X+048819Y+073559
X+048819Y+073953
X+048819Y+074346
X+048819Y+074740
X+048819Y+075134
X+048819Y+075528
X+048819Y+075921
X+048819Y+076315
X+048819Y+076709
X+048819Y+077102
X+048819Y+077496
X+048819Y+077890
X+048819Y+078283
X+048819Y+078677
X+048819Y+079071
X+048819Y+079465
X+048819Y+079858
X+048819Y+080252
X+048819Y+080646
X+048819Y+081039
X+048819Y+081433
X+048819Y+081827
X+048819Y+082220
X+048819Y+082614
X+048819Y+083008
X+048819Y+083402
X+048819Y+083795
X+048819Y+084189
X+048819Y+084583
X+048425Y+084583
X+048031Y+084583
X+047638Y+084583
X+047244Y+084583
X+046850Y+084583
X+046457Y+084583
X+046063Y+084583
X+045669Y+084583
X+045276Y+084583
X+044882Y+084583
X+044488Y+084583
X+044094Y+084583
X+043701Y+084583
X+043307Y+084583
X+042913Y+084583
X+042520Y+084583
X+042126Y+084583
X+041732Y+084583
X+041339Y+084583
X+040945Y+084583
X+040551Y+084583
X+040157Y+084583
X+039764Y+084583
X+039370Y+084583
X+038976Y+084583
X+038583Y+084583
X+038189Y+084583
X+037795Y+084583
X+037402Y+084583
X+037008Y+084583
X+036614Y+084583
X+036220Y+084583
X+035827Y+084583
X+035433Y+084583
X+035039Y+084583
X+034646Y+084583
X+034252Y+084583
X+033858Y+084583
X+033465Y+084583
X+033071Y+084583
X+032677Y+084583
X+032283Y+084583
X+031890Y+084583
X+031496Y+084583
X+031102Y+084583
X+030709Y+084583
X+030315Y+084583
X+029921Y+084583
X+029528Y+084583
X+029134Y+084583
X+028740Y+084583
X+028346Y+084583
X+027953Y+084583
X+027559Y+084583
X+027165Y+084583
X+026772Y+084583
X+026378Y+084583
X+025984Y+084583
X+025591Y+084583
X+025197Y+084583
X+024803Y+084583
X+024409Y+084583
X+024016Y+084583
X+023622Y+084583
X+023228Y+084583
X+022835Y+084583
X+022441Y+084583
X+022047Y+084583
X+021654Y+084583
X+021260Y+084583
X+020866Y+084583
X+020472Y+084583
X+020079Y+084583
X+019685Y+084583
X+019291Y+084583
X+018898Y+084583
X+018504Y+084583
X+018110Y+084583
X+017717Y+084583
X+017323Y+084583
X+016929Y+084583
X+016535Y+084583
X+016142Y+084583
X+015748Y+084583
X+015354Y+084583
X+014961Y+084583
X+014567Y+084583
X+014173Y+084583
X+013780Y+084583
X+013386Y+084583
X+012992Y+084583
X+012598Y+084583
X+012205Y+084583
X+011811Y+084583
X+011417Y+084583
X+011024Y+084583
X+010630Y+084583
X+010236Y+084583
X+009843Y+084583
X+009449Y+084583
X+009055Y+084583
X+008661Y+084583
X+008268Y+084583
X+007874Y+084583
X+007480Y+084583
X+007087Y+084583
X+006693Y+084583
X+006299Y+084583
X+005906Y+084583
X+005512Y+084583
X+005118Y+084583
X+004724Y+084583
X+004331Y+084583
X+003937Y+084583
X+003543Y+084583
X+003150Y+084583
X+002756Y+084583
X+002362Y+084583
X+001969Y+084583
X+001575Y+084583
X+001181Y+084583
X+000787Y+084583
X+000787Y+084189
X+000787Y+083795
X+000787Y+083402
X+000787Y+083008
X+000787Y+082614
X+000787Y+082220
X+000787Y+081827
X+000787Y+081433
X+000787Y+081039
X+000787Y+080646
X+000787Y+080252
X+000787Y+079858
X+000787Y+079465
X+000787Y+079071
X+000787Y+078677
X+000787Y+078283
X+000787Y+077890
X+000787Y+077496
X+000787Y+077102
X+000787Y+076709
X+000787Y+076315
X+000787Y+075921
X+000787Y+075528
X+000787Y+075134
X+000787Y+074740
X+000787Y+074346
X+000787Y+073953
X+000787Y+073559
X+000787Y+073165
X+000787Y+072772
X+000787Y+072378
X+000787Y+071984
X+000787Y+071591
X+000787Y+071197
X+000787Y+070803
X+000787Y+070409
X+000787Y+070016
X+000787Y+069622
X+000787Y+069228
X+000787Y+068835
X+000787Y+068441
X+000787Y+068047
X+000787Y+067654
X+000787Y+067260
X+000787Y+066866
X+000787Y+066472
X+000787Y+066079
X+000787Y+065685
X+000787Y+065291
X+000787Y+064898
X+000787Y+064504
X+000787Y+064110
X+000787Y+063717
X+000557Y+062409
X+003343Y+061563
X+003717Y+061650
X+003717Y+060933
X+003363Y+060362
X+004583Y+060795
X+005941Y+060795
X+005941Y+060323
X+007299Y+060557
X+007299Y+059240
X+008894Y+058787
X+008736Y+058197
X+009803Y+059780
X+010197Y+059780
X+010591Y+059780
X+010984Y+059780
X+011378Y+059780
X+011378Y+060173
X+011378Y+060567
X+011378Y+060961
X+011378Y+061354
X+010984Y+061354
X+010984Y+060961
X+010591Y+060961
X+010591Y+061354
X+010197Y+061354
X+010197Y+060961
X+010197Y+060567
X+010197Y+060173
X+009803Y+060173
X+009803Y+060567
X+009803Y+060961
X+009803Y+061354
X+008992Y+062154
X+009031Y+062587
X+011039Y+063610
X+012457Y+063610
X+012457Y+062098
X+013087Y+061996
X+015449Y+062016
X+015787Y+062850
X+015157Y+063913
X+014764Y+063913
X+014764Y+064307
X+015157Y+064307
X+015787Y+064839
X+017638Y+062122
X+019449Y+062122
X+022500Y+063224
X+024114Y+062969
X+025846Y+063953
X+026614Y+064445
X+026614Y+065508
X+027874Y+065508
X+028720Y+066650
X+026988Y+067909
X+027179Y+068185
X+026977Y+068500
X+027151Y+068756
X+026240Y+067496
X+025846Y+067142
X+024311Y+066177
X+022975Y+067142
X+023740Y+067929
X+023499Y+068185
X+023667Y+068500
X+023465Y+068756
X+023091Y+070764
X+022126Y+070823
X+020610Y+070823
X+020433Y+071177
X+020236Y+071768
X+020469Y+072071
X+019409Y+071197
X+019429Y+070823
X+017047Y+071197
X+015512Y+072142
X+017382Y+073106
X+017657Y+075469
X+017382Y+075980
X+018130Y+076886
X+017657Y+077496
X+018130Y+077791
X+018598Y+078488
X+020751Y+078739
X+020291Y+076933
X+018618Y+075437
X+015886Y+080173
X+015610Y+081374
X+013878Y+078500
X+012598Y+078520
X+010236Y+080159
X+010236Y+081370
X+007016Y+079945
X+006487Y+079098
X+008059Y+078508
X+008878Y+076965
X+009843Y+077417
X+010295Y+076374
X+009823Y+076217
X+009134Y+075429
X+008413Y+075437
X+008059Y+075929
X+009823Y+074917
X+008878Y+073402
X+009134Y+073146
X+010276Y+072594
X+010000Y+069130
X+010488Y+069012
X+012283Y+068756
X+012693Y+068500
X+011508Y+065402
X+010587Y+065402
X+008874Y+065402
X+006890Y+064307
X+006496Y+064307
X+006496Y+063913
X+006890Y+063913
X+004134Y+064150
X+003189Y+058677
X+003543Y+058402
X+003839Y+057949
X+004173Y+056965
X+006496Y+056630
X+006890Y+056630
X+006890Y+056236
X+006496Y+056236
X+007854Y+054031
X+007854Y+053165
X+011039Y+054732
X+012496Y+054114
X+012496Y+053382
X+014764Y+056236
X+015157Y+056236
X+015157Y+056630
X+014764Y+056630
X+015783Y+055843
X+015783Y+058568
X+015783Y+059850
X+015449Y+060089
X+015787Y+060323
X+015449Y+060795
X+013087Y+058591
X+012511Y+058630
X+010742Y+060384
X+000787Y+058402
X+000787Y+058008
X+000787Y+057614
X+000787Y+057220
X+000787Y+056827
X+000787Y+056433
X+000787Y+056039
X+000787Y+055646
X+000787Y+055252
X+000787Y+054858
X+000787Y+054465
X+000787Y+054071
X+000787Y+053677
X+000787Y+053283
X+000787Y+052890
X+000787Y+052496
X+000787Y+052102
X+000787Y+051709
X+000787Y+051315
X+000787Y+050921
X+000787Y+050528
X+000787Y+050134
X+000787Y+049740
X+003189Y+052142
X+003543Y+052378
X+003839Y+052634
X+003894Y+048004
X+003885Y+047354
X+004279Y+047354
X+004279Y+046961
X+003885Y+046961
X+003491Y+046961
X+003491Y+047354
X+003894Y+043378
X+009055Y+047209
X+011322Y+047358
X+011715Y+047358
X+012109Y+047358
X+012109Y+046964
X+011715Y+046964
X+011322Y+046964
X+011713Y+047965
X+011740Y+043031
X+017602Y+046280
X+018390Y+046280
X+021539Y+047224
X+021933Y+047224
X+022327Y+047224
X+022327Y+047618
X+021933Y+047618
X+021539Y+047618
X+021992Y+048110
X+024547Y+047461
X+021988Y+050941
X+021988Y+052142
X+021000Y+052378
X+025000Y+052634
X+027795Y+053835
X+028720Y+055937
X+028445Y+058441
X+026929Y+058441
X+026614Y+057575
X+025906Y+056945
X+024134Y+055937
X+022500Y+056709
X+025906Y+060075
X+026614Y+060095
X+027520Y+062969
X+021803Y+067142
X+018130Y+067949
X+017772Y+068185
X+024311Y+071335
X+024803Y+071768
X+024327Y+072071
X+027520Y+072220
X+028445Y+071098
X+028484Y+075961
X+026138Y+075929
X+026020Y+075339
X+024209Y+076953
X+024554Y+078697
X+025114Y+080024
X+026138Y+078449
X+027126Y+078953
X+027874Y+081906
X+028331Y+082398
X+028331Y+083224
X+030000Y+082398
X+033878Y+083224
X+034409Y+080882
X+036252Y+080917
X+036398Y+081906
X+037630Y+078594
X+037630Y+077295
X+036252Y+078102
X+034882Y+078067
X+035965Y+076748
X+039185Y+078122
X+039185Y+079224
X+040997Y+079282
X+040997Y+080563
X+040997Y+082512
X+043563Y+081630
X+043957Y+081630
X+044350Y+081630
X+044744Y+081630
X+044744Y+081236
X+044744Y+080843
X+044350Y+080843
X+044350Y+080449
X+044350Y+080055
X+044350Y+079661
X+044350Y+079268
X+044350Y+078874
X+044350Y+078480
X+044350Y+078087
X+044350Y+077693
X+044350Y+077299
X+043957Y+077299
X+043957Y+077693
X+043957Y+078087
X+043957Y+078480
X+043957Y+078874
X+043957Y+079268
X+043957Y+079661
X+043957Y+080055
X+043957Y+080449
X+043957Y+080843
X+043957Y+081236
X+044350Y+081236
X+043563Y+081236
X+043563Y+080843
X+043563Y+080449
X+043563Y+080055
X+043563Y+079661
X+043563Y+079268
X+043563Y+078874
X+043563Y+078480
X+043563Y+078087
X+043563Y+077693
X+043563Y+077299
X+044744Y+077299
X+044744Y+077693
X+044744Y+078087
X+044744Y+078480
X+044744Y+078874
X+044744Y+079268
X+045138Y+079268
X+045138Y+079661
X+044744Y+079661
X+044744Y+080055
X+044744Y+080449
X+045138Y+080449
X+045531Y+080449
X+045925Y+080449
X+045925Y+080055
X+046319Y+080055
X+046319Y+079661
X+046713Y+079661
X+047106Y+079661
X+047106Y+079268
X+047106Y+078874
X+047106Y+078480
X+047106Y+078087
X+047106Y+077693
X+047106Y+077299
X+046713Y+077299
X+046713Y+077693
X+046713Y+078087
X+046713Y+078480
X+046713Y+078874
X+046713Y+079268
X+046319Y+079268
X+046319Y+078874
X+045925Y+078874
X+045925Y+078480
X+045925Y+078087
X+045925Y+077693
X+046319Y+077693
X+046319Y+077299
X+045925Y+077299
X+045531Y+077299
X+045138Y+077299
X+045138Y+077693
X+045138Y+078087
X+045138Y+078480
X+045138Y+078874
X+045531Y+078874
X+045531Y+079268
X+045531Y+079661
X+045925Y+079661
X+045925Y+079268
X+046319Y+078480
X+046319Y+078087
X+045531Y+078087
X+045531Y+078480
X+045531Y+077693
X+047500Y+077693
X+047500Y+078087
X+047894Y+078087
X+047894Y+078480
X+047894Y+078874
X+047500Y+078874
X+047500Y+078480
X+047500Y+079268
X+047500Y+079661
X+047500Y+080055
X+047500Y+080449
X+047500Y+080843
X+047500Y+081236
X+047500Y+081630
X+047106Y+081630
X+047106Y+081236
X+047106Y+080843
X+047106Y+080449
X+047106Y+080055
X+046713Y+080055
X+046713Y+080449
X+046319Y+080449
X+046319Y+080843
X+046319Y+081236
X+046713Y+081236
X+046713Y+080843
X+046713Y+081630
X+046319Y+081630
X+045925Y+081630
X+045531Y+081630
X+045138Y+081630
X+045138Y+081236
X+045531Y+081236
X+045531Y+080843
X+045138Y+080843
X+045138Y+080055
X+045531Y+080055
X+045925Y+080843
X+045925Y+081236
X+047894Y+081236
X+047894Y+081630
X+047894Y+080843
X+047894Y+080449
X+047894Y+080055
X+047894Y+079661
X+047894Y+079268
X+047894Y+077693
X+047894Y+077299
X+047500Y+077299
X+047402Y+070547
X+047402Y+070154
X+047402Y+069760
X+047402Y+069366
X+047402Y+068972
X+047795Y+068972
X+047795Y+068579
X+047402Y+068579
X+047402Y+068185
X+047008Y+068185
X+047008Y+067791
X+047008Y+067398
X+047008Y+067004
X+047402Y+067004
X+047402Y+067398
X+047402Y+067791
X+047795Y+067791
X+047795Y+067398
X+047795Y+067004
X+047795Y+066610
X+047402Y+066610
X+047008Y+066610
X+047008Y+066217
X+046614Y+066217
X+046220Y+066217
X+045827Y+066217
X+045827Y+066610
X+045827Y+067004
X+045827Y+067398
X+045433Y+067398
X+045433Y+067004
X+045039Y+067004
X+045039Y+067398
X+044646Y+067398
X+044646Y+067004
X+044646Y+066610
X+044252Y+066610
X+044252Y+066217
X+044646Y+066217
X+045039Y+066217
X+045039Y+066610
X+045433Y+066610
X+045433Y+066217
X+046220Y+066610
X+046220Y+067004
X+046220Y+067398
X+046220Y+067791
X+046220Y+068185
X+046220Y+068579
X+046614Y+068579
X+047008Y+068579
X+047008Y+068972
X+046614Y+068972
X+046614Y+069366
X+046220Y+069366
X+045827Y+069366
X+045827Y+069760
X+045827Y+070154
X+045827Y+070547
X+045433Y+070547
X+045039Y+070547
X+045039Y+070154
X+045433Y+070154
X+045433Y+069760
X+045039Y+069760
X+044646Y+069760
X+044252Y+069760
X+044252Y+069366
X+043858Y+069366
X+043858Y+069760
X+043858Y+070154
X+043858Y+070547
X+043465Y+070547
X+043465Y+070154
X+043465Y+069760
X+043465Y+069366
X+043465Y+068972
X+043858Y+068972
X+043858Y+068579
X+044252Y+068579
X+044252Y+068185
X+044646Y+068185
X+044646Y+067791
X+044252Y+067791
X+044252Y+067398
X+044252Y+067004
X+043858Y+067004
X+043858Y+067398
X+043465Y+067398
X+043465Y+067004
X+043465Y+066610
X+043858Y+066610
X+043858Y+066217
X+043465Y+066217
X+043465Y+067791
X+043465Y+068185
X+043465Y+068579
X+043858Y+068185
X+043858Y+067791
X+044646Y+068579
X+044646Y+068972
X+045039Y+068972
X+045039Y+069366
X+045433Y+069366
X+045433Y+068972
X+045827Y+068972
X+046220Y+068972
X+045827Y+068579
X+045827Y+068185
X+045827Y+067791
X+045433Y+067791
X+045039Y+067791
X+045039Y+068185
X+045039Y+068579
X+045433Y+068579
X+045433Y+068185
X+046614Y+068185
X+046614Y+067791
X+046614Y+067398
X+046614Y+067004
X+046614Y+066610
X+047402Y+066217
X+047795Y+066217
X+047795Y+068185
X+047795Y+069366
X+047795Y+069760
X+047795Y+070154
X+047795Y+070547
X+047008Y+070547
X+046614Y+070547
X+046220Y+070547
X+046220Y+070154
X+046220Y+069760
X+046614Y+069760
X+047008Y+069760
X+047008Y+070154
X+046614Y+070154
X+047008Y+069366
X+044646Y+069366
X+044252Y+068972
X+044252Y+070154
X+044646Y+070154
X+044646Y+070547
X+044252Y+070547
X+040895Y+069555
X+040895Y+068300
X+039087Y+068205
X+039087Y+067142
X+037571Y+067614
X+036654Y+067161
X+036634Y+066689
X+037571Y+066374
X+035984Y+067909
X+035512Y+068185
X+035748Y+068500
X+035217Y+068756
X+036291Y+069917
X+036220Y+071098
X+035689Y+072142
X+033898Y+069917
X+034311Y+067161
X+040898Y+071728
X+043346Y+049240
X+044291Y+047969
X+044685Y+047969
X+045079Y+047969
X+045472Y+047969
X+045866Y+047969
X+046260Y+047969
X+046654Y+047969
X+047047Y+047969
X+047441Y+047969
X+047835Y+047969
X+045079Y+046780
X+043740Y+046799
X+041358Y+046610
X+040965Y+046610
X+040965Y+046217
X+040965Y+045823
X+040965Y+045429
X+041358Y+045429
X+041358Y+045035
X+041358Y+044642
X+040965Y+044642
X+040965Y+044248
X+040965Y+043854
X+041358Y+043854
X+041358Y+044248
X+040965Y+045035
X+041358Y+045823
X+041358Y+046217
X+041358Y+047004
X+040965Y+047004
X+040965Y+047398
X+041358Y+047398
X+041102Y+047969
X+037264Y+047902
X+035236Y+048146
X+034193Y+048146
X+031552Y+044701
X+030000Y+043874
X+029685Y+044287
X+029390Y+043953
X+029685Y+042043
X+030000Y+041709
X+029409Y+041217
X+036201Y+043098
X+036969Y+042882
X+037461Y+041689
X+036201Y+044142
X+036969Y+044713
X+043110Y+042850
X+044291Y+042850
X+044685Y+042850
X+045079Y+042850
X+045472Y+042850
X+045866Y+042850
X+046260Y+042850
X+046654Y+042850
X+047047Y+042850
X+047441Y+042850
X+047835Y+042850
X+045079Y+044220
X+043740Y+044220
X+021953Y+043130
X+000547Y+059417
X+003681Y+071886
X+002665Y+072248
X+001732Y+074524
X+001189Y+076020
X+002488Y+076913
X+001732Y+080280
X+001240Y+081374
X+006283Y+076937
X+005130Y+073508
X+006327Y+072248
X+006535Y+071886
T02
X+023382Y+031839
X+022382Y+031839
X+021382Y+031839
X+005598Y+031917
X+004598Y+031917
X+003598Y+031917
X+003598Y+081854
X+004598Y+081854
X+005598Y+081854
X+021382Y+081776
X+022382Y+081776
X+023382Y+081776
T03
X+027000Y+001000
X+027000Y+000000
X+026000Y+000000
X+025000Y+000000
X+025000Y+001000
X+024000Y+001000
X+024000Y+000000
X+023000Y+000000
X+022000Y+000000
X+021000Y+000000
X+021000Y+001000
X+020000Y+001000
X+020000Y+000000
X+019000Y+000000
X+019000Y+001000
X+018000Y+000000
X+017000Y+000000
X+017000Y+001000
X+016000Y+001000
X+015000Y+001000
X+015000Y+000000
X+014000Y+000000
X+013000Y+000000
X+016000Y+000000
X+023000Y+001000
X+028000Y+001000
X+030000Y+006000
X+030000Y+007000
X+030000Y+008000
X+030000Y+009000
X+030000Y+010000
X+030000Y+011000
X+030000Y+012000
X+033000Y+012000
X+033000Y+011000
X+033000Y+010000
X+033000Y+009000
X+033000Y+008000
X+033000Y+007000
X+033000Y+006000
X+033000Y+005000
X+037000Y+005000
X+037000Y+004000
X+037000Y+003000
X+038000Y+003000
X+038000Y+004000
X+038000Y+005000
X+038000Y+006000
X+038000Y+007000
X+038000Y+008000
X+037000Y+008000
X+037000Y+007000
X+037000Y+006000
X+037000Y+009000
X+038000Y+009000
X+038000Y+010000
X+038000Y+011000
X+037000Y+011000
X+037000Y+010000
X+037000Y+012000
X+037000Y+013000
X+037000Y+014000
X+038000Y+014000
X+038000Y+013000
X+038000Y+012000
X+040000Y+012000
X+040000Y+011000
X+041000Y+011000
X+041000Y+012000
X+041000Y+013000
X+040000Y+013000
X+040000Y+014000
X+041000Y+014000
X+041000Y+010000
X+040000Y+010000
X+040000Y+007000
X+040000Y+006000
X+040000Y+005000
X+040000Y+004000
X+041000Y+004000
X+041000Y+005000
X+041000Y+006000
X+041000Y+007000
X+041000Y+003000
X+040000Y+003000
X+046654Y-002902
X+046654Y-003902
X+046654Y-004902
X+046654Y-005902
X+033000Y+024000
X+033000Y+025000
X+033000Y+026000
X+033000Y+027000
X+033000Y+028000
X+033000Y+029000
X+033000Y+030000
X+033000Y+031000
X+030000Y+030000
X+030000Y+029000
X+030000Y+028000
X+030000Y+027000
X+030000Y+026000
X+030000Y+025000
X+030000Y+024000
X+012000Y+020000
X+011000Y+020000
X+010000Y+020000
X+009000Y+020000
X+008000Y+020000
X+013000Y+049937
X+014000Y+049937
X+015000Y+049937
X+016000Y+049937
X+017000Y+049937
X+018000Y+049937
X+019000Y+049937
X+019000Y+050937
X+020000Y+050937
X+021000Y+050937
X+021000Y+049937
X+020000Y+049937
X+022000Y+049937
X+023000Y+049937
X+023000Y+050937
X+024000Y+050937
X+025000Y+050937
X+025000Y+049937
X+024000Y+049937
X+026000Y+049937
X+027000Y+049937
X+027000Y+050937
X+028000Y+050937
X+030000Y+055937
X+030000Y+056937
X+030000Y+057937
X+030000Y+058937
X+030000Y+059937
X+030000Y+060937
X+030000Y+061937
X+033000Y+061937
X+033000Y+060937
X+033000Y+059937
X+033000Y+058937
X+033000Y+057937
X+033000Y+056937
X+033000Y+055937
X+033000Y+054937
X+037000Y+054937
X+037000Y+055937
X+037000Y+056937
X+037000Y+057937
X+037000Y+058937
X+037000Y+059937
X+037000Y+060937
X+038000Y+060937
X+038000Y+059937
X+038000Y+058937
X+038000Y+057937
X+038000Y+056937
X+038000Y+055937
X+038000Y+054937
X+038000Y+053937
X+037000Y+053937
X+037000Y+052937
X+038000Y+052937
X+040000Y+052937
X+041000Y+052937
X+041000Y+053937
X+040000Y+053937
X+040000Y+054937
X+041000Y+054937
X+041000Y+055937
X+040000Y+055937
X+040000Y+056937
X+041000Y+056937
X+041000Y+059937
X+040000Y+059937
X+040000Y+060937
X+040000Y+061937
X+040000Y+062937
X+041000Y+062937
X+041000Y+063937
X+040000Y+063937
X+038000Y+063937
X+037000Y+063937
X+037000Y+062937
X+037000Y+061937
X+038000Y+061937
X+038000Y+062937
X+041000Y+061937
X+041000Y+060937
X+046654Y+047035
X+046654Y+046035
X+046654Y+045035
X+046654Y+044035
X+017000Y+050937
X+016000Y+050937
X+015000Y+050937
X+012000Y+069937
X+011000Y+069937
X+010000Y+069937
X+009000Y+069937
X+008000Y+069937
X+030000Y+073937
X+030000Y+074937
X+030000Y+075937
X+030000Y+076937
X+030000Y+077937
X+030000Y+078937
X+030000Y+079937
X+033000Y+079937
X+033000Y+078937
X+033000Y+077937
X+033000Y+076937
X+033000Y+075937
X+033000Y+074937
X+033000Y+073937
X+033000Y+080937
T00
M30
