G04 DipTrace 2.4.0.2*
%INTopPaste.gbr*%
%MOMM*%
%ADD38R,0.635X0.635*%
%ADD57R,2.296X3.996*%
%ADD59R,1.596X0.196*%
%ADD61R,10.096X10.296*%
%ADD63R,2.796X0.396*%
%ADD65R,1.796X0.396*%
%ADD67R,5.496X5.496*%
%ADD69O,0.646X-0.004*%
%ADD71O,-0.004X0.646*%
%ADD73R,3.046X1.946*%
%ADD75R,0.746X1.946*%
%ADD77R,0.431X0.431*%
%ADD79R,1.396X1.596*%
%ADD85R,0.446X0.846*%
%ADD87R,1.696X1.596*%
%ADD89R,1.096X2.096*%
%ADD91R,1.196X1.396*%
%ADD93R,1.146X0.196*%
%ADD99R,0.596X0.596*%
%ADD101R,1.396X0.596*%
%ADD103R,0.396X0.396*%
%ADD105R,0.896X0.796*%
%ADD107R,0.696X0.496*%
%ADD109R,0.496X0.696*%
%ADD111R,0.796X0.896*%
%FSLAX53Y53*%
G04*
G71*
G90*
G75*
G01*
%LNTopPaste*%
%LPD*%
D111*
X60770Y-12210D3*
Y-10510D3*
D109*
X51220Y-11860D3*
Y-10560D3*
D107*
X55940Y61420D3*
X57240D3*
X10670Y61320D3*
X11970D3*
X55940Y40700D3*
X57240D3*
X55950Y22770D3*
X57250D3*
X33080Y73570D3*
X34380D3*
D111*
X60770Y-6360D3*
Y-8060D3*
D107*
X63950Y39530D3*
X62650D3*
X48490Y69870D3*
X49790D3*
X34340Y30680D3*
X35640D3*
X48440Y73920D3*
X49740D3*
D111*
X35145Y-12850D3*
Y-11150D3*
D107*
X65090Y69920D3*
X63790D3*
D105*
X102630Y74390D3*
X100930D3*
D111*
X35095Y-7050D3*
Y-8750D3*
D107*
X36840Y27580D3*
X38140D3*
D109*
X26900Y33350D3*
Y34650D3*
D107*
X34340Y26380D3*
X35640D3*
D109*
X24945Y-12850D3*
Y-11550D3*
D105*
X102630Y71590D3*
X100930D3*
D107*
X34340Y25180D3*
X35640D3*
X64000Y28980D3*
X62700D3*
X65090Y73720D3*
X63790D3*
X34390Y22930D3*
X35690D3*
X26030Y72820D3*
X27330D3*
D109*
X22550Y33320D3*
Y34620D3*
D107*
X34390Y21980D3*
X35690D3*
D109*
X31840Y19880D3*
Y18580D3*
D107*
X3070Y69870D3*
X4370D3*
X64150Y21620D3*
X62850D3*
D109*
X30790Y19880D3*
Y18580D3*
X30490Y13280D3*
Y11980D3*
D107*
X20540Y27580D3*
X19240D3*
D111*
X14865Y-12800D3*
Y-11100D3*
D107*
X3120Y73820D3*
X4420D3*
D109*
X28040Y19930D3*
Y18630D3*
D107*
X20540Y26380D3*
X19240D3*
D111*
X14865Y-7050D3*
Y-8750D3*
D109*
X26640Y19930D3*
Y18630D3*
X4865Y-12850D3*
Y-11550D3*
X26790Y15680D3*
Y14380D3*
D107*
X19320Y69870D3*
X18020D3*
D109*
X23740Y15680D3*
Y14380D3*
X21340Y13080D3*
Y11780D3*
D107*
X20540Y23630D3*
X19240D3*
D105*
X102230Y46400D3*
X100530D3*
X102230Y43750D3*
X100530D3*
D109*
X23040Y20880D3*
Y19580D3*
D107*
X64200Y11320D3*
X62900D3*
X19170Y74070D3*
X17870D3*
X82500Y-4550D3*
X81200D3*
X38140Y26380D3*
X36840D3*
X16490Y27580D3*
X17790D3*
D109*
X28040Y15980D3*
Y17280D3*
D107*
X16490Y26380D3*
X17790D3*
X38140Y25180D3*
X36840D3*
X27430Y66070D3*
X26130D3*
X42230Y69870D3*
X40930D3*
X42180Y64620D3*
X40880D3*
X7590Y26480D3*
X6290D3*
X112150Y-7970D3*
X113450D3*
X112150Y-14520D3*
X113450D3*
D111*
X108900Y-1770D3*
Y-3470D3*
X107100Y-1770D3*
Y-3470D3*
X105250Y-1770D3*
Y-3470D3*
X103400Y-1770D3*
Y-3470D3*
D109*
X99150Y-8670D3*
Y-7370D3*
D107*
X101700Y-6120D3*
X100400D3*
X91950Y-5170D3*
X93250D3*
D103*
X58600Y-15800D3*
X56400D3*
D101*
X51940Y60820D3*
Y57420D3*
D103*
X34095Y-16050D3*
X36295D3*
X31945D3*
X29745D3*
D101*
X61790Y60870D3*
Y57470D3*
X6770Y61120D3*
Y57720D3*
D103*
X14915Y-15500D3*
X17115D3*
X12515Y-15550D3*
X10315D3*
D101*
X16070Y61270D3*
Y57870D3*
D99*
X78050Y1500D3*
X79550D3*
D103*
X42680Y71520D3*
X40480D3*
X42730Y63070D3*
X40530D3*
X11590Y26480D3*
X9390D3*
D99*
X96350Y-7870D3*
X94850D3*
D93*
X4090Y29230D3*
Y28580D3*
Y27930D3*
Y27280D3*
Y26630D3*
D91*
X3865Y31130D3*
Y24730D3*
D89*
X1415Y31680D3*
Y24180D3*
D87*
Y29080D3*
Y26780D3*
D85*
X77200Y-2850D3*
X79100D3*
X78150Y-550D3*
D109*
X62550Y-12050D3*
Y-10750D3*
D107*
X61850Y-15800D3*
X60550D3*
D109*
X49670Y-10560D3*
Y-11860D3*
D107*
X57240Y60020D3*
X55940D3*
X12020Y59870D3*
X10720D3*
X57190Y42150D3*
X55890D3*
X57200Y24120D3*
X55900D3*
X34380Y74870D3*
X33080D3*
X53920Y-15810D3*
X55220D3*
X102080Y82790D3*
X103380D3*
X63950Y36880D3*
X62650D3*
Y38180D3*
X63950D3*
X49790Y68570D3*
X48490D3*
D109*
X32240Y38230D3*
Y36930D3*
D107*
X102055Y81230D3*
X103355D3*
X42330Y34610D3*
X43630D3*
X38995Y-16000D3*
X37695D3*
D109*
X31240Y38230D3*
Y36930D3*
X29740D3*
Y38230D3*
D107*
X97580Y81190D3*
X98880D3*
X102080Y79990D3*
X103380D3*
X49740Y72520D3*
X48440D3*
X48540Y64770D3*
X49840D3*
X64000Y35530D3*
X62700D3*
X42340Y33380D3*
X43640D3*
X99180Y78740D3*
X100480D3*
X102080D3*
X103380D3*
X48390Y75320D3*
X49690D3*
D109*
X28740Y36930D3*
Y38230D3*
D107*
X64000Y34230D3*
X62700D3*
X65090Y64520D3*
X63790D3*
D109*
X51590Y75320D3*
Y74020D3*
D107*
X62700Y31780D3*
X64000D3*
D109*
X23395Y-11600D3*
Y-12900D3*
X26890Y38230D3*
Y36930D3*
D107*
X34340Y27580D3*
X35640D3*
X97065Y72840D3*
X98365D3*
X63790Y68520D3*
X65090D3*
X62700Y30430D3*
X64000D3*
X27245Y-16050D3*
X28545D3*
X63790Y75120D3*
X65090D3*
D109*
X96930Y75690D3*
Y74390D3*
D107*
X63790Y72370D3*
X65090D3*
Y66020D3*
X63790D3*
X101330Y55350D3*
X102630D3*
X26080Y69820D3*
X27380D3*
Y71420D3*
X26080D3*
X19915Y-15500D3*
X18615D3*
X4370Y68470D3*
X3070D3*
X64150Y19120D3*
X62850D3*
Y20370D3*
X64150D3*
D109*
X31760Y13260D3*
Y14560D3*
D107*
X19150Y29750D3*
X17850D3*
X21870Y-6990D3*
X20570D3*
X19150Y28850D3*
X17850D3*
X101330Y53850D3*
X102630D3*
D109*
X29140Y13280D3*
Y14580D3*
D107*
X4420Y72520D3*
X3120D3*
Y64820D3*
X4420D3*
X96480Y53800D3*
X97780D3*
X101330Y52400D3*
X102630D3*
X3220Y75220D3*
X4520D3*
X64150Y17770D3*
X62850D3*
D109*
X3365Y-11500D3*
Y-12800D3*
D107*
X98330Y50800D3*
X99630D3*
X101380D3*
X102680D3*
X64150Y16420D3*
X62850D3*
X7565Y-15500D3*
X8865D3*
X19370Y64770D3*
X18070D3*
D109*
X6120Y75070D3*
Y73770D3*
D107*
X62800Y13970D3*
X64100D3*
D109*
X22640Y13080D3*
Y14380D3*
D107*
X17820Y75370D3*
X19120D3*
X18020Y68570D3*
X19320D3*
X96780Y44950D3*
X98080D3*
D109*
X20040Y13080D3*
Y14380D3*
D107*
X62850Y12670D3*
X64150D3*
X17870Y72520D3*
X19170D3*
X19370Y66020D3*
X18070D3*
D109*
X96730Y48350D3*
Y47050D3*
X22540Y38230D3*
Y36930D3*
D107*
X82500Y-2900D3*
X81200D3*
D109*
X28040Y13280D3*
Y14580D3*
D107*
X12490Y27580D3*
X13790D3*
X82400Y-600D3*
X81100D3*
X82350Y1500D3*
X81050D3*
X27380Y63520D3*
X26080D3*
Y64770D3*
X27380D3*
X77700Y-4600D3*
X79000D3*
X42180Y73020D3*
X40880D3*
X42180Y68520D3*
X40880D3*
Y74270D3*
X42180D3*
Y61370D3*
X40880D3*
X42180Y66170D3*
X40880D3*
Y59770D3*
X42180D3*
X7540Y29530D3*
X6240D3*
X7590Y24480D3*
X6290D3*
X95150Y-12020D3*
X96450D3*
X95150Y-14720D3*
X96450D3*
X108950Y-5970D3*
X107650D3*
X93250Y-9620D3*
X91950D3*
X93200Y-11070D3*
X91900D3*
X93200Y-15720D3*
X91900D3*
X95100Y-13270D3*
X96400D3*
X91950Y-7820D3*
X93250D3*
X90600Y-3450D3*
X91900D3*
X96350Y-1800D3*
X97650D3*
D79*
X112500Y-9520D3*
X115300D3*
X112500Y-12870D3*
X115300D3*
D107*
X98900Y-16920D3*
X100200D3*
X102950D3*
X101650D3*
D38*
X48440Y71220D3*
D77*
Y67270D3*
D38*
X49890Y63520D3*
D77*
X32240Y42880D3*
X100480Y81190D3*
X45140Y34580D3*
X31240Y42880D3*
X30190D3*
X45140Y33380D3*
X28790Y42880D3*
D38*
X43190Y32080D3*
X56840Y76320D3*
D77*
X43190Y30930D3*
Y29680D3*
X27740Y42880D3*
D38*
X43190Y28480D3*
X65140Y71120D3*
D77*
X43190Y27280D3*
X65140Y67320D3*
D38*
Y63120D3*
D77*
X26640Y42880D3*
X25540D3*
X24340D3*
X43250Y23300D3*
D38*
X23190Y42880D3*
D77*
X43250Y24600D3*
D38*
X21990Y42880D3*
X43240Y21480D3*
X20790Y42880D3*
D77*
X13740Y34180D3*
D38*
X3020Y71070D3*
D77*
X13740Y33030D3*
D38*
Y31930D3*
X32990Y14680D3*
D77*
X3020Y67170D3*
D38*
X13740Y30780D3*
X4570Y63470D3*
D77*
X31740Y11880D3*
D38*
X30510Y14670D3*
D77*
X99580Y53850D3*
D38*
X11770Y75070D3*
D77*
X13840Y25380D3*
Y24130D3*
D38*
Y22830D3*
X19270Y71120D3*
X13840Y21580D3*
D77*
X19470Y67370D3*
D38*
X17970Y63520D3*
X21380Y14470D3*
X13840Y20330D3*
D77*
X20040Y11680D3*
D38*
X13840Y19080D3*
X18690Y14480D3*
D77*
X13840Y17880D3*
X26000Y75450D3*
D75*
X53450Y-12250D3*
X55750D3*
X58050D3*
D73*
X55750Y-6450D3*
D71*
X30480Y30480D3*
X30080D3*
X29680D3*
X29280D3*
X28880D3*
X28480D3*
X28080D3*
X27680D3*
X27280D3*
X26880D3*
X26480D3*
X26080D3*
X25680D3*
X25280D3*
X24880D3*
X24480D3*
X24080D3*
D69*
X23385Y29775D3*
Y29375D3*
Y28975D3*
Y28575D3*
Y28175D3*
Y27775D3*
Y27375D3*
Y26975D3*
Y26575D3*
Y26175D3*
Y25775D3*
Y25375D3*
Y24975D3*
Y24575D3*
Y24175D3*
Y23775D3*
Y23375D3*
D71*
X24090Y22680D3*
X24490D3*
X24890D3*
X25290D3*
X25690D3*
X26090D3*
X26490D3*
X26890D3*
X27290D3*
X27690D3*
X28090D3*
X28490D3*
X28890D3*
X29290D3*
X29690D3*
X30090D3*
X30490D3*
D69*
X31185Y23385D3*
Y23785D3*
Y24185D3*
Y24585D3*
Y24985D3*
Y25385D3*
Y25785D3*
Y26185D3*
Y26585D3*
Y26985D3*
Y27385D3*
Y27785D3*
Y28185D3*
Y28585D3*
Y28985D3*
Y29385D3*
Y29785D3*
D67*
X27285Y26580D3*
D65*
X53940Y71120D3*
Y69850D3*
Y68580D3*
Y67310D3*
Y66040D3*
Y64770D3*
Y63500D3*
X59340D3*
Y64770D3*
Y66040D3*
Y67310D3*
Y68580D3*
Y69850D3*
Y71120D3*
X53840Y38100D3*
Y36830D3*
Y35560D3*
Y34290D3*
Y33020D3*
Y31750D3*
Y30480D3*
X59240D3*
Y31750D3*
Y33020D3*
Y34290D3*
Y35560D3*
Y36830D3*
Y38100D3*
D63*
X106680Y78740D3*
Y77770D3*
Y76800D3*
Y75830D3*
Y74860D3*
Y73890D3*
Y72920D3*
Y71950D3*
Y70980D3*
D61*
X115130Y74860D3*
D75*
X27450Y-12850D3*
X29750D3*
X32050D3*
D73*
X29750Y-7050D3*
D65*
X31080Y71120D3*
Y69850D3*
Y68580D3*
Y67310D3*
Y66040D3*
Y64770D3*
Y63500D3*
X36480D3*
Y64770D3*
Y66040D3*
Y67310D3*
Y68580D3*
Y69850D3*
Y71120D3*
X8520D3*
Y69850D3*
Y68580D3*
Y67310D3*
Y66040D3*
Y64770D3*
Y63500D3*
X13920D3*
Y64770D3*
Y66040D3*
Y67310D3*
Y68580D3*
Y69850D3*
Y71120D3*
D75*
X7590Y-12850D3*
X9890D3*
X12190D3*
D73*
X9890Y-7050D3*
D65*
X53840Y20320D3*
Y19050D3*
Y17780D3*
Y16510D3*
Y15240D3*
Y13970D3*
Y12700D3*
X59240D3*
Y13970D3*
Y15240D3*
Y16510D3*
Y17780D3*
Y19050D3*
Y20320D3*
D63*
X106680Y50800D3*
Y49830D3*
Y48860D3*
Y47890D3*
Y46920D3*
Y45950D3*
Y44980D3*
Y44010D3*
Y43040D3*
D61*
X115130Y46920D3*
D59*
X101600Y-7620D3*
Y-8270D3*
Y-8920D3*
Y-9570D3*
Y-10220D3*
Y-10870D3*
Y-11520D3*
Y-12170D3*
Y-12820D3*
Y-13470D3*
Y-14120D3*
Y-14770D3*
X107400D3*
Y-14120D3*
Y-13470D3*
Y-12820D3*
Y-12170D3*
Y-11520D3*
Y-10870D3*
Y-10220D3*
Y-9570D3*
Y-8920D3*
Y-8270D3*
Y-7620D3*
D57*
X104500Y-11195D3*
D107*
X95050Y-16550D3*
X96350D3*
X93250Y-22150D3*
X91950D3*
X93250Y-20900D3*
X91950D3*
X16050Y23600D3*
X17350D3*
X16050Y22250D3*
X17350D3*
D111*
X60770Y114630D3*
Y116330D3*
D109*
X51220Y114980D3*
Y116280D3*
D107*
X55940Y188260D3*
X57240D3*
X10670Y188160D3*
X11970D3*
X55940Y167540D3*
X57240D3*
X55950Y149610D3*
X57250D3*
X33080Y200410D3*
X34380D3*
D111*
X60770Y120480D3*
Y118780D3*
D107*
X63950Y166370D3*
X62650D3*
X48490Y196710D3*
X49790D3*
X34340Y157520D3*
X35640D3*
X48440Y200760D3*
X49740D3*
D111*
X35145Y113990D3*
Y115690D3*
D107*
X65090Y196760D3*
X63790D3*
D105*
X102630Y201230D3*
X100930D3*
D111*
X35095Y119790D3*
Y118090D3*
D107*
X36840Y154420D3*
X38140D3*
D109*
X26900Y160190D3*
Y161490D3*
D107*
X34340Y153220D3*
X35640D3*
D109*
X24945Y113990D3*
Y115290D3*
D105*
X102630Y198430D3*
X100930D3*
D107*
X34340Y152020D3*
X35640D3*
X64000Y155820D3*
X62700D3*
X65090Y200560D3*
X63790D3*
X34390Y149770D3*
X35690D3*
X26030Y199660D3*
X27330D3*
D109*
X22550Y160160D3*
Y161460D3*
D107*
X34390Y148820D3*
X35690D3*
D109*
X31840Y146720D3*
Y145420D3*
D107*
X3070Y196710D3*
X4370D3*
X64150Y148460D3*
X62850D3*
D109*
X30790Y146720D3*
Y145420D3*
X30490Y140120D3*
Y138820D3*
D107*
X20540Y154420D3*
X19240D3*
D111*
X14865Y114040D3*
Y115740D3*
D107*
X3120Y200660D3*
X4420D3*
D109*
X28040Y146770D3*
Y145470D3*
D107*
X20540Y153220D3*
X19240D3*
D111*
X14865Y119790D3*
Y118090D3*
D109*
X26640Y146770D3*
Y145470D3*
X4865Y113990D3*
Y115290D3*
X26790Y142520D3*
Y141220D3*
D107*
X19320Y196710D3*
X18020D3*
D109*
X23740Y142520D3*
Y141220D3*
X21340Y139920D3*
Y138620D3*
D107*
X20540Y150470D3*
X19240D3*
D105*
X102230Y173240D3*
X100530D3*
X102230Y170590D3*
X100530D3*
D109*
X23040Y147720D3*
Y146420D3*
D107*
X64200Y138160D3*
X62900D3*
X19170Y200910D3*
X17870D3*
X82500Y122290D3*
X81200D3*
X38140Y153220D3*
X36840D3*
X16490Y154420D3*
X17790D3*
D109*
X28040Y142820D3*
Y144120D3*
D107*
X16490Y153220D3*
X17790D3*
X38140Y152020D3*
X36840D3*
X27430Y192910D3*
X26130D3*
X42230Y196710D3*
X40930D3*
X42180Y191460D3*
X40880D3*
X7590Y153320D3*
X6290D3*
X112150Y118870D3*
X113450D3*
X112150Y112320D3*
X113450D3*
D111*
X108900Y125070D3*
Y123370D3*
X107100Y125070D3*
Y123370D3*
X105250Y125070D3*
Y123370D3*
X103400Y125070D3*
Y123370D3*
D109*
X99150Y118170D3*
Y119470D3*
D107*
X101700Y120720D3*
X100400D3*
X91950Y121670D3*
X93250D3*
D103*
X58600Y111040D3*
X56400D3*
D101*
X51940Y187660D3*
Y184260D3*
D103*
X34095Y110790D3*
X36295D3*
X31945D3*
X29745D3*
D101*
X61790Y187710D3*
Y184310D3*
X6770Y187960D3*
Y184560D3*
D103*
X14915Y111340D3*
X17115D3*
X12515Y111290D3*
X10315D3*
D101*
X16070Y188110D3*
Y184710D3*
D99*
X78050Y128340D3*
X79550D3*
D103*
X42680Y198360D3*
X40480D3*
X42730Y189910D3*
X40530D3*
X11590Y153320D3*
X9390D3*
D99*
X96350Y118970D3*
X94850D3*
D93*
X4090Y156070D3*
Y155420D3*
Y154770D3*
Y154120D3*
Y153470D3*
D91*
X3865Y157970D3*
Y151570D3*
D89*
X1415Y158520D3*
Y151020D3*
D87*
Y155920D3*
Y153620D3*
D85*
X77200Y123990D3*
X79100D3*
X78150Y126290D3*
D109*
X62550Y114790D3*
Y116090D3*
D107*
X61850Y111040D3*
X60550D3*
D109*
X49670Y116280D3*
Y114980D3*
D107*
X57240Y186860D3*
X55940D3*
X12020Y186710D3*
X10720D3*
X57190Y168990D3*
X55890D3*
X57200Y150960D3*
X55900D3*
X34380Y201710D3*
X33080D3*
X53920Y111030D3*
X55220D3*
X102080Y209630D3*
X103380D3*
X63950Y163720D3*
X62650D3*
Y165020D3*
X63950D3*
X49790Y195410D3*
X48490D3*
D109*
X32240Y165070D3*
Y163770D3*
D107*
X102055Y208070D3*
X103355D3*
X42330Y161450D3*
X43630D3*
X38995Y110840D3*
X37695D3*
D109*
X31240Y165070D3*
Y163770D3*
X29740D3*
Y165070D3*
D107*
X97580Y208030D3*
X98880D3*
X102080Y206830D3*
X103380D3*
X49740Y199360D3*
X48440D3*
X48540Y191610D3*
X49840D3*
X64000Y162370D3*
X62700D3*
X42340Y160220D3*
X43640D3*
X99180Y205580D3*
X100480D3*
X102080D3*
X103380D3*
X48390Y202160D3*
X49690D3*
D109*
X28740Y163770D3*
Y165070D3*
D107*
X64000Y161070D3*
X62700D3*
X65090Y191360D3*
X63790D3*
D109*
X51590Y202160D3*
Y200860D3*
D107*
X62700Y158620D3*
X64000D3*
D109*
X23395Y115240D3*
Y113940D3*
X26890Y165070D3*
Y163770D3*
D107*
X34340Y154420D3*
X35640D3*
X97065Y199680D3*
X98365D3*
X63790Y195360D3*
X65090D3*
X62700Y157270D3*
X64000D3*
X27245Y110790D3*
X28545D3*
X63790Y201960D3*
X65090D3*
D109*
X96930Y202530D3*
Y201230D3*
D107*
X63790Y199210D3*
X65090D3*
Y192860D3*
X63790D3*
X101330Y182190D3*
X102630D3*
X26080Y196660D3*
X27380D3*
Y198260D3*
X26080D3*
X19915Y111340D3*
X18615D3*
X4370Y195310D3*
X3070D3*
X64150Y145960D3*
X62850D3*
Y147210D3*
X64150D3*
D109*
X31760Y140100D3*
Y141400D3*
D107*
X19150Y156590D3*
X17850D3*
X21870Y119850D3*
X20570D3*
X19150Y155690D3*
X17850D3*
X101330Y180690D3*
X102630D3*
D109*
X29140Y140120D3*
Y141420D3*
D107*
X4420Y199360D3*
X3120D3*
Y191660D3*
X4420D3*
X96480Y180640D3*
X97780D3*
X101330Y179240D3*
X102630D3*
X3220Y202060D3*
X4520D3*
X64150Y144610D3*
X62850D3*
D109*
X3365Y115340D3*
Y114040D3*
D107*
X98330Y177640D3*
X99630D3*
X101380D3*
X102680D3*
X64150Y143260D3*
X62850D3*
X7565Y111340D3*
X8865D3*
X19370Y191610D3*
X18070D3*
D109*
X6120Y201910D3*
Y200610D3*
D107*
X62800Y140810D3*
X64100D3*
D109*
X22640Y139920D3*
Y141220D3*
D107*
X17820Y202210D3*
X19120D3*
X18020Y195410D3*
X19320D3*
X96780Y171790D3*
X98080D3*
D109*
X20040Y139920D3*
Y141220D3*
D107*
X62850Y139510D3*
X64150D3*
X17870Y199360D3*
X19170D3*
X19370Y192860D3*
X18070D3*
D109*
X96730Y175190D3*
Y173890D3*
X22540Y165070D3*
Y163770D3*
D107*
X82500Y123940D3*
X81200D3*
D109*
X28040Y140120D3*
Y141420D3*
D107*
X12490Y154420D3*
X13790D3*
X82400Y126240D3*
X81100D3*
X82350Y128340D3*
X81050D3*
X27380Y190360D3*
X26080D3*
Y191610D3*
X27380D3*
X77700Y122240D3*
X79000D3*
X42180Y199860D3*
X40880D3*
X42180Y195360D3*
X40880D3*
Y201110D3*
X42180D3*
Y188210D3*
X40880D3*
X42180Y193010D3*
X40880D3*
Y186610D3*
X42180D3*
X7540Y156370D3*
X6240D3*
X7590Y151320D3*
X6290D3*
X95150Y114820D3*
X96450D3*
X95150Y112120D3*
X96450D3*
X108950Y120870D3*
X107650D3*
X93250Y117220D3*
X91950D3*
X93200Y115770D3*
X91900D3*
X93200Y111120D3*
X91900D3*
X95100Y113570D3*
X96400D3*
X91950Y119020D3*
X93250D3*
X90600Y123390D3*
X91900D3*
X96350Y125040D3*
X97650D3*
D79*
X112500Y117320D3*
X115300D3*
X112500Y113970D3*
X115300D3*
D107*
X98900Y109920D3*
X100200D3*
X102950D3*
X101650D3*
D38*
X48440Y198060D3*
D77*
Y194110D3*
D38*
X49890Y190360D3*
D77*
X32240Y169720D3*
X100480Y208030D3*
X45140Y161420D3*
X31240Y169720D3*
X30190D3*
X45140Y160220D3*
X28790Y169720D3*
D38*
X43190Y158920D3*
X56840Y203160D3*
D77*
X43190Y157770D3*
Y156520D3*
X27740Y169720D3*
D38*
X43190Y155320D3*
X65140Y197960D3*
D77*
X43190Y154120D3*
X65140Y194160D3*
D38*
Y189960D3*
D77*
X26640Y169720D3*
X25540D3*
X24340D3*
X43250Y150140D3*
D38*
X23190Y169720D3*
D77*
X43250Y151440D3*
D38*
X21990Y169720D3*
X43240Y148320D3*
X20790Y169720D3*
D77*
X13740Y161020D3*
D38*
X3020Y197910D3*
D77*
X13740Y159870D3*
D38*
Y158770D3*
X32990Y141520D3*
D77*
X3020Y194010D3*
D38*
X13740Y157620D3*
X4570Y190310D3*
D77*
X31740Y138720D3*
D38*
X30510Y141510D3*
D77*
X99580Y180690D3*
D38*
X11770Y201910D3*
D77*
X13840Y152220D3*
Y150970D3*
D38*
Y149670D3*
X19270Y197960D3*
X13840Y148420D3*
D77*
X19470Y194210D3*
D38*
X17970Y190360D3*
X21380Y141310D3*
X13840Y147170D3*
D77*
X20040Y138520D3*
D38*
X13840Y145920D3*
X18690Y141320D3*
D77*
X13840Y144720D3*
X26000Y202290D3*
D75*
X53450Y114590D3*
X55750D3*
X58050D3*
D73*
X55750Y120390D3*
D71*
X30480Y157320D3*
X30080D3*
X29680D3*
X29280D3*
X28880D3*
X28480D3*
X28080D3*
X27680D3*
X27280D3*
X26880D3*
X26480D3*
X26080D3*
X25680D3*
X25280D3*
X24880D3*
X24480D3*
X24080D3*
D69*
X23385Y156615D3*
Y156215D3*
Y155815D3*
Y155415D3*
Y155015D3*
Y154615D3*
Y154215D3*
Y153815D3*
Y153415D3*
Y153015D3*
Y152615D3*
Y152215D3*
Y151815D3*
Y151415D3*
Y151015D3*
Y150615D3*
Y150215D3*
D71*
X24090Y149520D3*
X24490D3*
X24890D3*
X25290D3*
X25690D3*
X26090D3*
X26490D3*
X26890D3*
X27290D3*
X27690D3*
X28090D3*
X28490D3*
X28890D3*
X29290D3*
X29690D3*
X30090D3*
X30490D3*
D69*
X31185Y150225D3*
Y150625D3*
Y151025D3*
Y151425D3*
Y151825D3*
Y152225D3*
Y152625D3*
Y153025D3*
Y153425D3*
Y153825D3*
Y154225D3*
Y154625D3*
Y155025D3*
Y155425D3*
Y155825D3*
Y156225D3*
Y156625D3*
D67*
X27285Y153420D3*
D65*
X53940Y197960D3*
Y196690D3*
Y195420D3*
Y194150D3*
Y192880D3*
Y191610D3*
Y190340D3*
X59340D3*
Y191610D3*
Y192880D3*
Y194150D3*
Y195420D3*
Y196690D3*
Y197960D3*
X53840Y164940D3*
Y163670D3*
Y162400D3*
Y161130D3*
Y159860D3*
Y158590D3*
Y157320D3*
X59240D3*
Y158590D3*
Y159860D3*
Y161130D3*
Y162400D3*
Y163670D3*
Y164940D3*
D63*
X106680Y205580D3*
Y204610D3*
Y203640D3*
Y202670D3*
Y201700D3*
Y200730D3*
Y199760D3*
Y198790D3*
Y197820D3*
D61*
X115130Y201700D3*
D75*
X27450Y113990D3*
X29750D3*
X32050D3*
D73*
X29750Y119790D3*
D65*
X31080Y197960D3*
Y196690D3*
Y195420D3*
Y194150D3*
Y192880D3*
Y191610D3*
Y190340D3*
X36480D3*
Y191610D3*
Y192880D3*
Y194150D3*
Y195420D3*
Y196690D3*
Y197960D3*
X8520D3*
Y196690D3*
Y195420D3*
Y194150D3*
Y192880D3*
Y191610D3*
Y190340D3*
X13920D3*
Y191610D3*
Y192880D3*
Y194150D3*
Y195420D3*
Y196690D3*
Y197960D3*
D75*
X7590Y113990D3*
X9890D3*
X12190D3*
D73*
X9890Y119790D3*
D65*
X53840Y147160D3*
Y145890D3*
Y144620D3*
Y143350D3*
Y142080D3*
Y140810D3*
Y139540D3*
X59240D3*
Y140810D3*
Y142080D3*
Y143350D3*
Y144620D3*
Y145890D3*
Y147160D3*
D63*
X106680Y177640D3*
Y176670D3*
Y175700D3*
Y174730D3*
Y173760D3*
Y172790D3*
Y171820D3*
Y170850D3*
Y169880D3*
D61*
X115130Y173760D3*
D59*
X101600Y119220D3*
Y118570D3*
Y117920D3*
Y117270D3*
Y116620D3*
Y115970D3*
Y115320D3*
Y114670D3*
Y114020D3*
Y113370D3*
Y112720D3*
Y112070D3*
X107400D3*
Y112720D3*
Y113370D3*
Y114020D3*
Y114670D3*
Y115320D3*
Y115970D3*
Y116620D3*
Y117270D3*
Y117920D3*
Y118570D3*
Y119220D3*
D57*
X104500Y115645D3*
D107*
X95050Y110290D3*
X96350D3*
X93250Y104690D3*
X91950D3*
X93250Y105940D3*
X91950D3*
X16050Y150440D3*
X17350D3*
X16050Y149090D3*
X17350D3*
M02*
